SplineFontDB: 3.2
FontName: Siele_Two
FullName: Siele_Two
FamilyName: Siele_Two
Weight: Regular
Copyright: Copyright (c) 2020, g,,,
UComments: "2020-4-8: Created with FontForge (http://fontforge.org)+AAoACgAA-Created for want of an open source 21st century Garamond.+AAoA-Design influences from various open source and historical typefaces.+AAoACgAA-The name Degarde comes from the French +IBwA-de garde+IB0A, apparently meaning +IBwA-on guard+IB0A or +IBwA-on call+IB0A."

StartChar: i
Encoding: 105 105 0
GlifName: i
Width: 265
Flags: HMW
LayerCount: 3
Back
SplineSet
46 361 m 1
 46 369 l 1
 160 417 l 1
 170 417 l 1
 170 34 l 1
 245 34 l 1
 245 0 l 1
 29 0 l 1
 29 34 l 1
 100 34 l 1
 100 316 l 1
 46 361 l 1
95 588 m 0
 95 613 115 633 140 633 c 0
 165 633 185 613 185 588 c 0
 185 563 165 543 140 543 c 0
 115 543 95 563 95 588 c 0
EndSplineSet
Fore
SplineSet
46 361 m 1
 46 369 l 1
 160 417 l 1
 170 417 l 1
 170 35 l 1
 245 35 l 1
 245 0 l 1
 27 0 l 1
 27 35 l 1
 100 35 l 1
 100 316 l 1
 46 361 l 1
95 588 m 0
 95 613 115 633 140 633 c 0
 165 633 185 613 185 588 c 0
 185 563 165 543 140 543 c 0
 115 543 95 563 95 588 c 0
EndSplineSet
Layer: 2
SplineSet
417.809570312 41 m 1
 458.809570312 41 l 2
 499.809570312 41 503.809570312 45 503.809570312 86 c 2
 503.809570312 317 l 1
 440.809570312 362 l 1
 440.809570312 380 l 1
 566.809570312 421 l 1
 575.809570312 421 l 1
 580.809570312 86 l 2
 580.809570312 50 589.809570312 41 625.809570312 41 c 2
 666.809570312 41 l 1
 666.809570312 -1 l 1
 631.809570312 0 566.809570312 1 535.809570312 1 c 0
 501.809570312 1 449.809570312 0 417.809570312 -1 c 1
 417.809570312 41 l 1
EndSplineSet
EndChar

StartChar: n
Encoding: 110 110 1
GlifName: n
Width: 533
Flags: HMW
AnchorPoint: "Top" 260 500 basechar 0
LayerCount: 3
Back
SplineSet
45 356 m 1
 45 364 l 1
 147 415 l 1
 157 415 l 1
 166 338 l 1
 167 337 l 1
 204 379 265 411 316 411 c 0
 384 411 436 369 436 289 c 2
 436 34 l 1
 502 34 l 1
 502 0 l 1
 312 0 l 1
 312 34 l 1
 366 34 l 1
 366 269 l 2
 366 324 329 359 279 359 c 0
 243 359 199 339 167 304 c 1
 167 34 l 1
 223 34 l 1
 223 0 l 1
 36 0 l 1
 36 34 l 1
 97 34 l 1
 97 318 l 1
 45 356 l 1
EndSplineSet
Fore
SplineSet
48 356 m 1
 48 364 l 1
 150 415 l 1
 160 415 l 1
 169 338 l 1
 170 337 l 1
 207 379 267 411 318 411 c 0
 386 411 438 369 438 289 c 2
 438 35 l 1
 504 35 l 1
 504 0 l 1
 312 0 l 1
 312 35 l 1
 368 35 l 1
 368 269 l 2
 368 324 331 359 281 359 c 0
 245 359 202 339 170 304 c 1
 170 35 l 1
 228 35 l 1
 228 0 l 1
 38 0 l 1
 38 35 l 1
 100 35 l 1
 100 318 l 1
 48 356 l 1
EndSplineSet
Layer: 2
SplineSet
47 356 m 1
 47 364 l 1
 149 415 l 1
 159 415 l 1
 168 339 l 1
 169 338 l 1
 204 380 264 412 314 412 c 0
 382 412 434 370 434 290 c 2
 434 34 l 1
 500 34 l 1
 500 0 l 1
 310 0 l 1
 310 34 l 1
 364 34 l 1
 364 270 l 2
 364 325 327 360 277 360 c 0
 241 360 199 340 169 305 c 1
 169 34 l 1
 225 34 l 1
 225 0 l 1
 38 0 l 1
 38 34 l 1
 99 34 l 1
 99 318 l 1
 47 356 l 1
EndSplineSet
EndChar

StartChar: o
Encoding: 111 111 2
GlifName: o
Width: 496
Flags: HMW
AnchorPoint: "Top" 248 500 basechar 0
LayerCount: 3
Back
SplineSet
34 200 m 0
 34 321 127 414 248 414 c 0
 369 414 462 321 462 200 c 0
 462 79 369 -14 248 -14 c 0
 127 -14 34 79 34 200 c 0
116 210 m 0
 116 110 176 21 256 21 c 0
 330 21 380 92 380 190 c 0
 380 290 320 380 241 380 c 0
 166 380 116 308 116 210 c 0
EndSplineSet
Fore
SplineSet
34 200 m 0
 34 321 127 414 248 414 c 0
 369 414 462 321 462 200 c 0
 462 79 369 -14 248 -14 c 0
 127 -14 34 79 34 200 c 0
116 210 m 0
 116 110 176 21 256 21 c 0
 330 21 380 92 380 190 c 0
 380 290 320 380 241 380 c 0
 166 380 116 308 116 210 c 0
EndSplineSet
Layer: 2
SplineSet
32 200 m 0
 32 320 124 412 244 412 c 0
 364 412 456 320 456 200 c 0
 456 80 364 -12 244 -12 c 0
 124 -12 32 80 32 200 c 0
114 210 m 0
 114 110 172 23 252 23 c 0
 326 23 374 92 374 190 c 0
 374 290 316 378 237 378 c 0
 162 378 114 308 114 210 c 0
EndSplineSet
EndChar

StartChar: t
Encoding: 116 116 3
GlifName: t
Width: 318
Flags: HMW
LayerCount: 3
Back
SplineSet
90 86 m 2
 90 355 l 1
 32 355 l 1
 32 375 l 1
 145 469 l 1
 160 469 l 1
 160 400 l 1
 293 400 l 1
 293 355 l 1
 160 355 l 1
 160 105 l 2
 160 65 188 45 220 45 c 0
 248 45 269 55 288 77 c 1
 304 62 l 1
 279 21 235 -12 185 -12 c 0
 129 -12 90 26 90 86 c 2
EndSplineSet
Fore
SplineSet
90 88 m 2
 90 354 l 1
 32 354 l 1
 32 374 l 1
 145 469 l 1
 160 469 l 1
 160 399 l 1
 295 399 l 1
 295 354 l 1
 160 354 l 1
 160 107 l 2
 160 67 188 46 220 46 c 0
 248 46 269 57 288 79 c 1
 304 64 l 1
 279 22 237 -11 185 -11 c 0
 129 -11 90 28 90 88 c 2
EndSplineSet
Layer: 2
SplineSet
90 86 m 2
 90 353 l 1
 32 353 l 1
 32 373 l 1
 145 469 l 1
 160 469 l 1
 160 398 l 1
 295 398 l 1
 295 353 l 1
 160 353 l 1
 160 105 l 2
 160 65 188 45 220 45 c 0
 248 45 269 55 288 77 c 1
 304 62 l 1
 279 21 235 -12 185 -12 c 0
 129 -12 90 26 90 86 c 2
EndSplineSet
EndChar

StartChar: g
Encoding: 103 103 4
GlifName: g
Width: 455
Flags: HMW
LayerCount: 3
Back
SplineSet
123.7890625 270.071289062 m 0
 127.609375 197.171875 173.0625 151.487304688 226.98828125 154.313476562 c 0
 279.916015625 157.087890625 315.508789062 204.014648438 312.2109375 266.928710938 c 0
 308.390625 339.828125 262.9375 385.512695312 209.01171875 382.686523438 c 0
 156.083984375 379.912109375 120.491210938 332.985351562 123.7890625 270.071289062 c 0
428 -99 m 0
 428 -189 334 -277 218 -277 c 0
 107 -277 30 -213 30 -141 c 0
 30 -96 61 -61 109 -40 c 1
 109 -37 l 1
 65 -20 40 11 40 50 c 0
 40 91 75 128 131 143 c 1
 131 146 l 1
 86 167 52 213 52 268 c 0
 52 351 126 413 218 413 c 0
 250 413 283 405 309 390 c 1
 437 390 l 1
 437 348 l 1
 354 348 l 1
 354 346 l 1
 371 326 383 300 383 269 c 0
 383 186 310 125 218 125 c 2
 152 124 l 2
 120 124 99 102 99 73 c 0
 99 44 120 23 152 23 c 2
 299 23 l 2
 375 23 428 -27 428 -99 c 0
362 -120 m 0
 362 -72 332 -44 287 -44 c 2
 147 -44 l 2
 122 -44 97 -76 97 -125 c 0
 97 -191 136 -245 224 -245 c 0
 315 -245 362 -191 362 -120 c 0
EndSplineSet
Fore
SplineSet
122 278 m 0
 122 205 165 154 221 154 c 0
 273 154 310 198 310 259 c 0
 310 332 267 383 211 383 c 0
 159 383 122 339 122 278 c 0
433 -97 m 0
 433 -188 338 -277 222 -277 c 0
 111 -277 33 -214 33 -141 c 0
 33 -96 64 -59 112 -38 c 1
 112 -35 l 1
 68 -19 43 14 43 52 c 0
 43 95 76 127 129 143 c 1
 129 146 l 1
 84 167 50 213 50 268 c 0
 50 350 124 413 216 413 c 0
 248 413 281 405 307 390 c 1
 435 390 l 1
 435 348 l 1
 354 348 l 1
 354 346 l 1
 370 326 381 300 381 269 c 0
 381 186 308 125 216 125 c 2
 155 124 l 2
 123 124 102 103 102 74 c 0
 102 45 123 25 155 25 c 2
 304 25 l 2
 380 25 433 -25 433 -97 c 0
367 -119 m 0
 367 -71 337 -42 292 -42 c 2
 150 -42 l 2
 125 -42 100 -76 100 -125 c 0
 100 -192 140 -245 228 -245 c 0
 319 -245 367 -191 367 -119 c 0
EndSplineSet
Layer: 2
SplineSet
435 -97 m 0
 435 -188 340 -277 224 -277 c 0
 113 -277 35 -214 35 -141 c 0
 35 -96 66 -59 114 -38 c 1
 114 -35 l 1
 70 -19 45 14 45 52 c 0
 45 95 78 127 131 143 c 1
 131 146 l 1
 86 167 52 213 52 268 c 0
 52 350 126 413 218 413 c 0
 250 413 283 405 309 390 c 1
 437 390 l 1
 437 348 l 1
 356 348 l 1
 356 346 l 1
 372 326 383 300 383 269 c 0
 383 186 310 125 218 125 c 2
 157 124 l 2
 125 124 104 103 104 74 c 0
 104 45 125 25 157 25 c 2
 306 25 l 2
 382 25 435 -25 435 -97 c 0
124 275 m 0
 124 202 167 154 221 154 c 0
 274 154 312 199 312 262 c 0
 312 335 269 383 215 383 c 0
 162 383 124 338 124 275 c 0
369 -119 m 0
 369 -71 339 -42 294 -42 c 2
 152 -42 l 2
 127 -42 102 -76 102 -125 c 0
 102 -192 142 -245 230 -245 c 0
 321 -245 369 -191 369 -119 c 0
EndSplineSet
EndChar

StartChar: h
Encoding: 104 104 5
GlifName: h
Width: 532
Flags: HMW
LayerCount: 3
Back
SplineSet
34 661 m 1
 34 669 l 1
 152 712 l 1
 162 712 l 1
 162 389 l 1
 160 340 l 1
 162 339 l 1
 199 379 263 411 314 411 c 0
 384 411 434 369 434 289 c 2
 434 34 l 1
 500 34 l 1
 500 0 l 1
 313 0 l 1
 313 34 l 1
 364 34 l 1
 364 269 l 2
 364 324 327 359 274 359 c 0
 237 359 196 341 162 306 c 1
 162 34 l 1
 218 34 l 1
 218 0 l 1
 31 0 l 1
 31 34 l 1
 92 34 l 1
 92 621 l 1
 34 661 l 1
EndSplineSet
Fore
SplineSet
37 661 m 1
 37 669 l 1
 155 712 l 1
 165 712 l 1
 165 389 l 1
 163 340 l 1
 165 339 l 1
 202 379 264 411 315 411 c 0
 385 411 435 369 435 289 c 2
 435 35 l 1
 501 35 l 1
 501 0 l 1
 313 0 l 1
 313 35 l 1
 365 35 l 1
 365 269 l 2
 365 324 328 359 275 359 c 0
 238 359 199 341 165 306 c 1
 165 35 l 1
 222 35 l 1
 222 0 l 1
 33 0 l 1
 33 35 l 1
 95 35 l 1
 95 621 l 1
 37 661 l 1
EndSplineSet
Layer: 2
SplineSet
33 662 m 1
 33 670 l 1
 148 712 l 1
 158 712 l 1
 158 390 l 1
 156 341 l 1
 158 340 l 1
 193 380 257 412 308 412 c 0
 378 412 428 370 428 290 c 2
 428 34 l 1
 495 34 l 1
 495 0 l 1
 306 0 l 1
 306 34 l 1
 358 34 l 1
 358 270 l 2
 358 325 321 360 268 360 c 0
 231 360 190 342 158 307 c 1
 158 34 l 1
 215 34 l 1
 215 0 l 1
 26 0 l 1
 26 34 l 1
 88 34 l 1
 88 624 l 1
 33 662 l 1
EndSplineSet
EndChar

StartChar: a
Encoding: 97 97 6
GlifName: a
Width: 415
Flags: HMW
AnchorPoint: "Top" 195 500 basechar 0
LayerCount: 3
Back
SplineSet
274.809570312 100 m 1
 274.809570312 190 l 1
 234.809570312 178 l 2
 149.809570312 153 128.809570312 126 128.809570312 92 c 0
 128.809570312 62 152.809570312 42 179.809570312 42 c 0
 207.809570312 42 241.809570312 58 274.809570312 100 c 1
224.809570312 413 m 0
 294.809570312 413 343.809570312 365 343.809570312 300 c 2
 343.809570312 77 l 6
 343.809570312 57 353.809570312 44 369.809570312 44 c 0
 387.809570312 44 404.809570312 56 415.809570312 77 c 1
 432.809570312 62 l 5
 415.809570312 22 381.809570312 -12 338.809570312 -12 c 0
 298.809570312 -12 274.809570312 19 274.809570312 62 c 5
 274.809570312 65 l 1
 272.809570312 66 l 1
 234.809570312 19 191.809570312 -11 144.809570312 -11 c 0
 99.8095703125 -11 58.8095703125 24 58.8095703125 74 c 0
 58.8095703125 121 81.8095703125 160 216.809570312 202 c 2
 274.809570312 220 l 1
 274.809570312 288 l 2
 274.809570312 343 239.809570312 371 194.809570312 371 c 0
 184.809570312 371 164.809570312 368 154.809570312 363 c 1
 149.809570312 314 l 1
 73.8095703125 293 l 1
 73.8095703125 295 l 2
 73.8095703125 345 144.809570312 413 224.809570312 413 c 0
EndSplineSet
Fore
SplineSet
250 100 m 1
 250 190 l 1
 210 178 l 2
 125 153 104 126 104 92 c 0
 104 62 128 42 155 42 c 0
 183 42 217 58 250 100 c 1
200 413 m 0
 270 413 319 365 319 300 c 2
 319 78 l 2
 319 57 330 45 347 45 c 0
 365 45 382 56 393 77 c 1
 410 62 l 1
 393 22 359 -11 316 -11 c 0
 276 -11 250 19 250 62 c 1
 250 65 l 1
 248 66 l 1
 210 19 167 -11 120 -11 c 0
 75 -11 34 24 34 74 c 0
 34 121 57 160 192 202 c 2
 250 220 l 1
 250 288 l 2
 250 343 215 371 170 371 c 0
 160 371 140 368 130 363 c 1
 125 314 l 1
 49 293 l 1
 49 295 l 2
 49 345 120 413 200 413 c 0
EndSplineSet
Layer: 2
SplineSet
254 100 m 1
 254 190 l 1
 214 178 l 2
 129 153 108 126 108 92 c 0
 108 62 132 42 159 42 c 0
 187 42 221 58 254 100 c 1
204 413 m 0
 274 413 323 365 323 300 c 2
 323 77 l 2
 323 57 333 44 349 44 c 0
 367 44 384 56 395 77 c 1
 412 62 l 1
 395 22 361 -12 318 -12 c 0
 278 -12 254 19 254 62 c 1
 254 65 l 1
 252 66 l 1
 214 19 171 -11 124 -11 c 0
 79 -11 38 24 38 74 c 0
 38 121 61 160 196 202 c 2
 254 220 l 1
 254 288 l 2
 254 343 219 371 174 371 c 0
 164 371 144 368 134 363 c 1
 129 314 l 1
 53 293 l 1
 53 295 l 2
 53 345 124 413 204 413 c 0
EndSplineSet
EndChar

StartChar: j
Encoding: 106 106 7
GlifName: j
Width: 240
Flags: HMW
LayerCount: 3
Back
SplineSet
3 -279 m 1
 -8 -258 l 1
 67 -213 87 -153 87 -68 c 2
 87 318 l 1
 32 365 l 1
 32 373 l 1
 147 415 l 1
 157 415 l 1
 157 -54 l 2
 157 -159 102 -228 3 -279 c 1
82 588 m 0
 82 613 102 633 127 633 c 0
 152 633 172 613 172 588 c 0
 172 563 152 543 127 543 c 0
 102 543 82 563 82 588 c 0
EndSplineSet
Fore
SplineSet
6 -279 m 1
 -5 -258 l 1
 70 -213 90 -153 90 -68 c 2
 90 318 l 1
 35 365 l 1
 35 373 l 1
 150 415 l 1
 160 415 l 1
 160 -54 l 2
 160 -159 105 -228 6 -279 c 1
85 588 m 0
 85 613 105 633 130 633 c 0
 155 633 175 613 175 588 c 0
 175 563 155 543 130 543 c 0
 105 543 85 563 85 588 c 0
EndSplineSet
Layer: 2
SplineSet
3 -279 m 1
 -8 -258 l 1
 67 -213 87 -153 87 -68 c 2
 87 320 l 1
 33 366 l 1
 33 374 l 1
 147 415 l 1
 157 415 l 1
 157 -54 l 2
 157 -159 102 -228 3 -279 c 1
82 588 m 0
 82 613 102 633 127 633 c 0
 152 633 172 613 172 588 c 0
 172 563 152 543 127 543 c 0
 102 543 82 563 82 588 c 0
EndSplineSet
EndChar

StartChar: period
Encoding: 46 46 8
GlifName: period
Width: 204
Flags: HMW
LayerCount: 3
Back
SplineSet
50 45 m 0
 50 74 73 97 102 97 c 0
 131 97 154 74 154 45 c 0
 154 16 131 -7 102 -7 c 0
 73 -7 50 16 50 45 c 0
EndSplineSet
Fore
SplineSet
48 46 m 0
 48 76 72 100 102 100 c 0
 132 100 156 76 156 46 c 0
 156 16 132 -8 102 -8 c 0
 72 -8 48 16 48 46 c 0
EndSplineSet
Layer: 2
SplineSet
48 45 m 0
 48 74 71 97 100 97 c 0
 129 97 152 74 152 45 c 0
 152 16 129 -7 100 -7 c 0
 71 -7 48 16 48 45 c 0
EndSplineSet
EndChar

StartChar: k
Encoding: 107 107 9
GlifName: k
Width: 478
Flags: HMW
LayerCount: 3
Back
SplineSet
441 400 m 1
 441 366 l 1
 389 366 l 1
 242 240 l 1
 429 34 l 1
 473 34 l 1
 473 0 l 1
 292 0 l 1
 292 34 l 1
 339 34 l 1
 172 220 l 1
 323 356 l 1
 326 366 l 1
 271 366 l 1
 271 400 l 1
 441 400 l 1
37 665 m 1
 37 673 l 1
 152 712 l 1
 162 712 l 1
 162 34 l 1
 222 34 l 1
 222 0 l 1
 29 0 l 1
 29 34 l 1
 92 34 l 1
 92 619 l 1
 37 665 l 1
EndSplineSet
Fore
SplineSet
445 400 m 1
 445 365 l 1
 391 365 l 1
 245 240 l 1
 431 35 l 1
 476 35 l 1
 476 0 l 1
 292 0 l 1
 292 35 l 1
 342 35 l 1
 319 60 l 1
 175 220 l 1
 325 355 l 1
 328 365 l 1
 273 365 l 1
 273 400 l 1
 445 400 l 1
40 665 m 1
 40 673 l 1
 155 712 l 1
 165 712 l 1
 165 36 l 1
 225 36 l 1
 225 0 l 1
 30 0 l 1
 30 36 l 1
 95 36 l 1
 95 619 l 1
 40 665 l 1
EndSplineSet
Layer: 2
SplineSet
437 400 m 1
 437 366 l 1
 385 366 l 1
 238 240 l 1
 425 34 l 1
 469 34 l 1
 469 0 l 1
 288 0 l 1
 288 34 l 1
 335 34 l 1
 168 220 l 1
 319 356 l 1
 322 366 l 1
 267 366 l 1
 267 400 l 1
 437 400 l 1
36 666 m 1
 36 674 l 1
 148 712 l 1
 158 712 l 1
 158 34 l 1
 219 34 l 1
 219 0 l 1
 24 0 l 1
 24 34 l 1
 88 34 l 1
 88 624 l 1
 36 666 l 1
EndSplineSet
EndChar

StartChar: exclam
Encoding: 33 33 10
GlifName: exclam
Width: 250
Flags: HMW
LayerCount: 3
Back
SplineSet
68 42 m 0
 68 68 89 89 115 89 c 0
 141 89 162 68 162 42 c 0
 162 16 141 -5 115 -5 c 0
 89 -5 68 16 68 42 c 0
70 650 m 1
 160 650 l 1
 130 180 l 1
 100 180 l 1
 70 650 l 1
EndSplineSet
Fore
SplineSet
75 44 m 0
 75 72 97 94 125 94 c 0
 153 94 175 72 175 44 c 0
 175 16 153 -6 125 -6 c 0
 97 -6 75 16 75 44 c 0
80 635 m 1
 170 635 l 1
 140 180 l 1
 110 180 l 1
 80 635 l 1
EndSplineSet
Layer: 2
SplineSet
62 45 m 0
 62 74 86 98 115 98 c 0
 144 98 168 74 168 45 c 0
 168 16 144 -8 115 -8 c 0
 86 -8 62 16 62 45 c 0
EndSplineSet
EndChar

StartChar: quotedbl
Encoding: 34 34 11
GlifName: quotedbl
Width: 280
Flags: HMW
LayerCount: 3
Back
SplineSet
47 650 m 1
 115 650 l 1
 95 440 l 1
 65 440 l 1
 47 650 l 1
167 650 m 1
 235 650 l 1
 215 440 l 1
 185 440 l 1
 167 650 l 1
EndSplineSet
Fore
SplineSet
47 640 m 1
 115 640 l 1
 95 430 l 1
 65 430 l 1
 47 640 l 1
167 640 m 1
 235 640 l 1
 215 430 l 1
 185 430 l 1
 167 640 l 1
EndSplineSet
EndChar

StartChar: ampersand
Encoding: 38 38 12
GlifName: ampersand
Width: 705
Flags: HMW
LayerCount: 3
Back
SplineSet
450 375 m 1
 635 375 l 1
 635 341 l 1
 575 341 l 1
 542 268 507 204 471 153 c 1
 530 94 578 48 635 48 c 0
 664 48 683 56 703 73 c 1
 717 53 l 1
 688 20 650 -11 603 -11 c 0
 534 -11 500 18 426 95 c 1
 424 95 l 1
 367 30 300 -11 215 -11 c 0
 105 -11 35 69 35 158 c 0
 35 236 85 294 173 345 c 1
 173 347 l 1
 125 394 90 435 90 491 c 0
 90 564 150 634 240 634 c 0
 315 634 370 584 370 514 c 0
 370 449 319 405 257 368 c 1
 257 366 l 1
 446 177 l 1
 448 177 l 1
 472 213 497 257 515 305 c 1
 519 341 l 1
 450 341 l 1
 450 375 l 1
238 386 m 1
 283 416 303 455 303 504 c 0
 303 559 275 601 230 601 c 0
 190 601 155 569 155 517 c 0
 155 471 191 433 238 386 c 1
402 117 m 1
 192 327 l 1
 134 289 105 245 105 190 c 0
 105 110 167 47 245 47 c 0
 311 47 360 71 402 117 c 1
EndSplineSet
Fore
SplineSet
450 375 m 1
 635 375 l 1
 635 341 l 1
 575 341 l 1
 542 268 507 204 471 153 c 1
 530 94 578 48 635 48 c 0
 664 48 683 56 703 73 c 1
 717 53 l 1
 688 20 650 -11 603 -11 c 0
 534 -11 500 18 426 95 c 1
 424 95 l 1
 367 30 300 -11 215 -11 c 0
 105 -11 35 69 35 158 c 0
 35 236 85 294 173 345 c 1
 173 347 l 1
 125 394 90 435 90 491 c 0
 90 564 150 634 240 634 c 0
 315 634 370 584 370 514 c 0
 370 449 319 405 257 368 c 1
 257 366 l 1
 446 177 l 1
 448 177 l 1
 472 213 497 257 515 305 c 1
 519 341 l 1
 450 341 l 1
 450 375 l 1
238 386 m 1
 283 416 303 455 303 504 c 0
 303 559 275 601 230 601 c 0
 190 601 155 569 155 517 c 0
 155 471 191 433 238 386 c 1
402 117 m 1
 192 327 l 1
 134 289 105 245 105 190 c 0
 105 110 167 47 245 47 c 0
 311 47 360 71 402 117 c 1
EndSplineSet
EndChar

StartChar: quotesingle
Encoding: 39 39 13
GlifName: quotesingle
Width: 160
Flags: HMW
LayerCount: 3
Back
SplineSet
47 650 m 1
 115 650 l 1
 95 440 l 1
 65 440 l 1
 47 650 l 1
EndSplineSet
Fore
SplineSet
47 640 m 1
 115 640 l 1
 95 430 l 1
 65 430 l 1
 47 640 l 1
EndSplineSet
EndChar

StartChar: parenleft
Encoding: 40 40 14
GlifName: parenleft
Width: 285
Flags: HMW
LayerCount: 3
Back
SplineSet
103 240 m 0
 103 65 165 -85 270 -188 c 1
 250 -205 l 1
 122 -105 37 55 37 240 c 0
 37 425 122 585 250 685 c 1
 270 668 l 1
 165 565 103 415 103 240 c 0
EndSplineSet
Fore
SplineSet
103 240 m 0
 103 65 165 -85 270 -188 c 1
 250 -205 l 1
 122 -105 37 55 37 240 c 0
 37 425 122 585 250 685 c 1
 270 668 l 1
 165 565 103 415 103 240 c 0
EndSplineSet
EndChar

StartChar: parenright
Encoding: 41 41 15
GlifName: parenright
Width: 285
Flags: HMW
LayerCount: 3
Back
SplineSet
182 240 m 0
 182 415 120 565 15 668 c 1
 35 685 l 1
 163 585 248 425 248 240 c 0
 248 55 163 -105 35 -205 c 1
 15 -188 l 1
 120 -85 182 65 182 240 c 0
EndSplineSet
Fore
SplineSet
182 240 m 0
 182 415 120 565 15 668 c 1
 35 685 l 1
 163 585 248 425 248 240 c 0
 248 55 163 -105 35 -205 c 1
 15 -188 l 1
 120 -85 182 65 182 240 c 0
EndSplineSet
EndChar

StartChar: asterisk
Encoding: 42 42 16
GlifName: asterisk
Width: 380
Flags: HMW
LayerCount: 3
Back
SplineSet
223 482 m 1
 275 364 l 1
 230 344 l 1
 177 462 l 1
 81 375 l 1
 48 412 l 1
 144 499 l 1
 31 564 l 1
 57 607 l 1
 168 543 l 1
 195 670 l 1
 244 660 l 1
 217 532 l 1
 346 546 l 1
 352 496 l 1
 223 482 l 1
EndSplineSet
Fore
SplineSet
223 482 m 1
 275 364 l 1
 230 344 l 1
 177 462 l 1
 81 375 l 1
 48 412 l 1
 144 499 l 1
 31 564 l 1
 57 607 l 1
 168 543 l 1
 195 670 l 1
 244 660 l 1
 217 532 l 1
 346 546 l 1
 352 496 l 1
 223 482 l 1
EndSplineSet
EndChar

StartChar: comma
Encoding: 44 44 17
GlifName: comma
Width: 225
Flags: HMW
LayerCount: 3
Back
SplineSet
49 30 m 1
 69 105 l 1
 133 98 179 54 179 -12 c 0
 179 -79 133 -143 47 -172 c 1
 35 -147 l 1
 87 -127 115 -92 115 -47 c 0
 115 -8 89 23 49 30 c 1
EndSplineSet
Fore
SplineSet
49 30 m 1
 69 105 l 1
 133 98 179 54 179 -12 c 0
 179 -79 133 -144 47 -173 c 1
 35 -147 l 1
 87 -127 115 -92 115 -47 c 0
 115 -8 89 23 49 30 c 1
EndSplineSet
Layer: 2
SplineSet
44 30 m 1
 64 105 l 1
 128 98 174 52 174 -15 c 0
 174 -82 128 -146 42 -175 c 1
 30 -150 l 1
 82 -130 110 -95 110 -50 c 0
 110 -11 84 23 44 30 c 1
234 30 m 1
 254 105 l 1
 317 98 365 53 365 -14 c 0
 365 -80 318 -145 232 -175 c 1
 220 -150 l 1
 270 -130 300 -95 300 -50 c 0
 300 -11 274 23 234 30 c 1
414 30 m 1
 430 105 l 1
 432 105 l 2
 492 105 545 55 545 -14 c 0
 545 -80 498 -145 412 -175 c 1
 400 -150 l 1
 450 -130 478 -95 478 -52 c 0
 478 -12 453 24 414 30 c 1
564 27 m 1
 580 105 l 1
 585 105 l 2
 644 105 695 52 695 -10 c 0
 695 -82 645 -146 562 -175 c 1
 550 -150 l 1
 600 -130 628 -95 628 -55 c 0
 628 -18 603 21 564 27 c 1
718 16 m 1
 738 104 l 1
 746 104 l 2
 802 104 857 64 857 -13 c 0
 857 -88 805 -155 716 -189 c 1
 703 -162 l 1
 756 -140 786 -96 786 -55 c 0
 786 -14 758 10 718 16 c 1
EndSplineSet
EndChar

StartChar: hyphen
Encoding: 45 45 18
GlifName: hyphen
Width: 235
Flags: HMW
LayerCount: 3
Back
SplineSet
20 234 m 1
 215 234 l 1
 215 176 l 1
 20 176 l 1
 20 234 l 1
EndSplineSet
Fore
SplineSet
20 234 m 1
 215 234 l 1
 215 176 l 1
 20 176 l 1
 20 234 l 1
EndSplineSet
EndChar

StartChar: zero
Encoding: 48 48 19
GlifName: zero
Width: 530
Flags: HMW
LayerCount: 3
Back
SplineSet
98 215 m 0
 98 119 172 41 265 41 c 0
 358 41 432 119 432 215 c 0
 432 311 358 389 265 389 c 0
 172 389 98 311 98 215 c 0
38 215 m 0
 38 340 140 442 265 442 c 0
 390 442 492 340 492 215 c 0
 492 90 390 -12 265 -12 c 0
 140 -12 38 90 38 215 c 0
EndSplineSet
Fore
SplineSet
98 215 m 0
 98 119 172 41 265 41 c 0
 358 41 432 119 432 215 c 0
 432 311 358 389 265 389 c 0
 172 389 98 311 98 215 c 0
38 215 m 0
 38 340 140 442 265 442 c 0
 390 442 492 340 492 215 c 0
 492 90 390 -12 265 -12 c 0
 140 -12 38 90 38 215 c 0
EndSplineSet
EndChar

StartChar: one
Encoding: 49 49 20
GlifName: one
Width: 350
Flags: HMW
LayerCount: 3
Back
SplineSet
211 38 m 1
 315 33 l 1
 315 -1 l 1
 175 1 l 1
 35 -1 l 1
 35 33 l 1
 139 38 l 1
 139 392 l 1
 35 397 l 1
 35 431 l 1
 175 429 l 1
 315 431 l 1
 315 397 l 1
 211 392 l 1
 211 38 l 1
EndSplineSet
Fore
SplineSet
211 38 m 1
 315 33 l 1
 315 -1 l 1
 175 1 l 1
 35 -1 l 1
 35 33 l 1
 139 38 l 1
 139 392 l 1
 35 397 l 1
 35 431 l 1
 175 429 l 1
 315 431 l 1
 315 397 l 1
 211 392 l 1
 211 38 l 1
EndSplineSet
EndChar

StartChar: two
Encoding: 50 50 21
GlifName: two
Width: 435
Flags: HMW
LayerCount: 3
Back
SplineSet
395 0 m 1
 40 0 l 1
 40 30 l 1
 190 165 240 222 240 305 c 0
 240 355 208 384 168 384 c 0
 132 384 105 363 85 336 c 1
 67 355 l 1
 97 405 145 443 200 443 c 0
 270 443 319 395 319 325 c 0
 319 252 272 191 165 98 c 2
 126 64 l 1
 127 61 l 1
 160 62 l 1
 346 62 l 2
 366 62 376 70 382 97 c 2
 386 115 l 1
 415 115 l 1
 395 0 l 1
EndSplineSet
Fore
SplineSet
395 0 m 1
 40 0 l 1
 40 30 l 1
 190 165 240 222 240 305 c 0
 240 355 208 384 168 384 c 0
 132 384 105 363 85 336 c 1
 67 355 l 1
 97 405 145 443 200 443 c 0
 270 443 319 395 319 325 c 0
 319 252 272 191 165 98 c 2
 126 64 l 1
 127 61 l 1
 160 62 l 1
 346 62 l 2
 366 62 376 70 382 97 c 2
 386 115 l 1
 415 115 l 1
 395 0 l 1
EndSplineSet
EndChar

StartChar: three
Encoding: 51 51 22
GlifName: three
Width: 380
Flags: HMW
LayerCount: 3
Back
SplineSet
30 -185 m 1
 160 -162 252 -87 252 23 c 0
 252 98 204 140 142 140 c 0
 123 140 100 136 80 128 c 1
 70 153 l 1
 85 161 l 2
 175 209 208 258 208 315 c 0
 208 358 177 387 143 387 c 0
 112 387 83 372 62 346 c 1
 45 364 l 1
 73 410 115 442 170 442 c 0
 232 442 280 398 280 338 c 0
 280 278 245 234 195 196 c 1
 195 193 l 1
 270 187 327 128 327 43 c 0
 327 -102 185 -194 35 -210 c 1
 30 -185 l 1
EndSplineSet
Fore
SplineSet
30 -185 m 1
 160 -162 252 -87 252 23 c 0
 252 98 204 140 142 140 c 0
 123 140 100 136 80 128 c 1
 70 153 l 1
 85 161 l 2
 175 209 208 258 208 315 c 0
 208 358 177 387 143 387 c 0
 112 387 83 372 62 346 c 1
 45 364 l 1
 73 410 115 442 170 442 c 0
 232 442 280 398 280 338 c 0
 280 278 245 234 195 196 c 1
 195 193 l 1
 270 187 327 128 327 43 c 0
 327 -102 185 -194 35 -210 c 1
 30 -185 l 1
EndSplineSet
EndChar

StartChar: four
Encoding: 52 52 23
GlifName: four
Width: 505
Flags: HMW
LayerCount: 3
Back
SplineSet
350 60 m 1
 485 60 l 1
 480 0 l 1
 350 0 l 1
 350 -200 l 1
 285 -200 l 1
 285 0 l 1
 10 0 l 1
 10 35 l 1
 325 450 l 1
 350 450 l 1
 350 60 l 1
285 60 m 1
 285 334 l 1
 284 334 l 1
 78 62 l 1
 78 60 l 1
 285 60 l 1
EndSplineSet
Fore
SplineSet
340 60 m 1
 485 60 l 1
 480 0 l 1
 340 0 l 1
 340 -200 l 1
 275 -200 l 1
 275 0 l 1
 15 0 l 1
 15 35 l 1
 315 430 l 1
 340 430 l 1
 340 60 l 1
275 60 m 1
 275 314 l 1
 274 314 l 1
 83 62 l 1
 83 60 l 1
 275 60 l 1
EndSplineSet
EndChar

StartChar: five
Encoding: 53 53 24
GlifName: five
Width: 390
Flags: HMW
LayerCount: 3
Back
SplineSet
60 287 m 1
 75 430 l 1
 325 430 l 1
 325 365 l 1
 102 365 l 1
 100 349 l 1
 215 298 301 192 301 75 c 0
 301 -70 195 -190 45 -220 c 1
 37 -195 l 1
 153 -160 227 -64 227 55 c 0
 227 162 158 245 60 287 c 1
EndSplineSet
Fore
SplineSet
60 287 m 1
 75 430 l 1
 325 430 l 1
 325 365 l 1
 102 365 l 1
 100 349 l 1
 215 298 301 192 301 75 c 0
 301 -70 195 -190 45 -220 c 1
 37 -195 l 1
 153 -160 227 -64 227 55 c 0
 227 162 158 245 60 287 c 1
EndSplineSet
Layer: 2
SplineSet
60 287 m 1
 75 430 l 1
 325 430 l 1
 325 365 l 1
 105 365 l 1
 103 348 l 1
 215 297 301 192 301 75 c 0
 301 -70 195 -190 45 -220 c 1
 37 -195 l 1
 153 -160 227 -64 227 55 c 0
 227 162 155 245 60 287 c 1
490 285 m 1
 505 430 l 1
 755 430 l 1
 755 365 l 1
 541 365 l 1
 539 346 l 1
 650 296 726 195 726 80 c 0
 726 -68 620 -190 470 -220 c 1
 462 -195 l 1
 578 -160 652 -64 652 55 c 0
 652 162 590 245 490 285 c 1
905 284 m 1
 920 430 l 1
 1170 430 l 1
 1170 365 l 1
 956 365 l 1
 954 346 l 1
 1055 280 1115 186 1115 73 c 0
 1115 -72 1005 -190 860 -220 c 1
 852 -195 l 1
 965 -160 1042 -66 1042 52 c 0
 1042 145 995 235 905 284 c 1
EndSplineSet
EndChar

StartChar: six
Encoding: 54 54 25
GlifName: six
Width: 475
Flags: HMW
LayerCount: 3
Back
SplineSet
410 660 m 1
 420 636 l 1
 245 553 125 400 125 226 c 0
 125 98 177 23 252 23 c 0
 317 23 357 85 357 165 c 0
 357 255 308 307 240 307 c 0
 222 307 197 302 179 294 c 1
 174 315 l 1
 204 340 242 355 280 355 c 0
 362 355 436 292 436 185 c 0
 436 70 352 -12 240 -12 c 0
 140 -12 46 70 46 205 c 0
 46 415 210 590 410 660 c 1
EndSplineSet
Fore
SplineSet
410 650 m 1
 420 626 l 1
 245 543 125 395 125 221 c 0
 125 95 177 23 252 23 c 0
 317 23 357 85 357 165 c 0
 357 255 308 307 240 307 c 0
 222 307 197 302 179 294 c 1
 174 317 l 1
 203 339 242 355 280 355 c 0
 362 355 436 292 436 185 c 0
 436 70 352 -12 240 -12 c 0
 135 -12 46 75 46 210 c 0
 46 412 210 580 410 650 c 1
EndSplineSet
EndChar

StartChar: seven
Encoding: 55 55 26
GlifName: seven
Width: 445
Flags: HMW
LayerCount: 3
Back
SplineSet
415 430 m 1
 415 410 l 1
 129 -225 l 1
 70 -215 l 1
 351 363 l 1
 351 365 l 1
 103 365 l 2
 81 365 70 358 63 324 c 2
 60 310 l 1
 29 310 l 1
 47 430 l 1
 415 430 l 1
EndSplineSet
Fore
SplineSet
415 430 m 1
 415 410 l 1
 129 -225 l 1
 70 -215 l 1
 351 363 l 1
 351 365 l 1
 103 365 l 2
 81 365 70 358 63 324 c 2
 60 310 l 1
 29 310 l 1
 47 430 l 1
 415 430 l 1
EndSplineSet
EndChar

StartChar: eight
Encoding: 56 56 27
GlifName: eight
Width: 449
Flags: HMW
LayerCount: 3
Back
SplineSet
248 368 m 1
 296 405 312 450 312 503 c 0
 312 572 278 619 220 619 c 0
 169 619 131 579 131 525 c 0
 131 467 171 429 219 391 c 2
 248 368 l 1
176 328 m 1
 115 378 62 426 62 495 c 0
 62 575 132 653 230 653 c 0
 318 653 383 588 383 515 c 0
 383 442 342 397 270 352 c 1
 270 351 l 1
 341 294 407 244 407 160 c 0
 407 65 329 -13 220 -13 c 0
 121 -13 42 55 42 145 c 0
 42 220 90 277 176 327 c 1
 176 328 l 1
197 311 m 1
 146 275 117 225 117 160 c 0
 117 77 162 22 232 22 c 0
 296 22 335 66 335 130 c 0
 335 186 304 225 227 287 c 2
 197 311 l 1
EndSplineSet
Fore
SplineSet
248 358 m 1
 295 395 311 440 311 488 c 0
 311 555 277 599 220 599 c 0
 170 599 132 560 132 510 c 0
 132 453 171 419 219 381 c 2
 248 358 l 1
176 318 m 1
 115 368 63 412 63 481 c 0
 63 557 132 633 230 633 c 0
 315 633 382 573 382 500 c 0
 382 430 340 386 270 342 c 1
 270 341 l 1
 341 284 405 237 405 155 c 0
 405 62 325 -13 220 -13 c 0
 122 -13 44 55 44 140 c 0
 44 210 92 268 176 317 c 1
 176 318 l 1
197 301 m 1
 147 265 119 217 119 155 c 0
 119 75 163 22 232 22 c 0
 295 22 333 64 333 127 c 0
 333 179 304 215 227 277 c 2
 197 301 l 1
EndSplineSet
Layer: 2
SplineSet
198 302 m 1
 152 270 118 221 118 156 c 0
 118 75 162 22 232 22 c 0
 295 22 334 64 334 127 c 0
 334 181 302 219 227 279 c 2
 198 302 l 1
176 319 m 1
 118 367 63 413 63 481 c 0
 63 559 133 634 230 634 c 0
 317 634 382 571 382 500 c 0
 382 429 337 384 269 342 c 1
 269 341 l 1
 338 287 404 238 404 156 c 0
 404 64 327 -12 220 -12 c 0
 123 -12 45 54 45 141 c 0
 45 212 95 270 176 318 c 1
 176 319 l 1
247 358 m 1
 292 392 312 438 312 489 c 0
 312 557 278 601 220 601 c 0
 169 601 131 563 131 510 c 0
 131 454 172 417 219 380 c 2
 247 358 l 1
EndSplineSet
EndChar

StartChar: nine
Encoding: 57 57 28
GlifName: nine
Width: 475
Flags: HMW
LayerCount: 3
Back
SplineSet
65 -225 m 1
 55 -200 l 1
 250 -120 349 20 349 195 c 0
 349 330 299 407 224 407 c 0
 160 407 120 350 120 272 c 0
 120 180 168 125 232 125 c 0
 252 125 277 129 295 137 c 1
 300 117 l 1
 268 90 230 77 195 77 c 0
 114 77 41 139 41 245 c 0
 41 358 129 442 237 442 c 0
 340 442 429 360 429 215 c 0
 429 10 290 -157 65 -225 c 1
EndSplineSet
Fore
SplineSet
65 -220 m 1
 55 -195 l 1
 250 -115 349 25 349 200 c 0
 349 330 299 407 224 407 c 0
 160 407 120 350 120 272 c 0
 120 180 168 125 232 125 c 0
 252 125 277 129 295 137 c 1
 300 115 l 1
 273 93 233 77 195 77 c 0
 114 77 41 139 41 245 c 0
 41 358 129 442 237 442 c 0
 345 442 429 355 429 215 c 0
 429 10 290 -152 65 -220 c 1
EndSplineSet
EndChar

StartChar: colon
Encoding: 58 58 29
GlifName: colon
Width: 200
Flags: HMW
LayerCount: 3
Back
SplineSet
49 353 m 0
 49 382 71 404 100 404 c 0
 129 404 151 382 151 353 c 0
 151 324 129 302 100 302 c 0
 71 302 49 324 49 353 c 0
49 43 m 0
 49 72 71 94 100 94 c 0
 129 94 151 72 151 43 c 0
 151 14 129 -8 100 -8 c 0
 71 -8 49 14 49 43 c 0
EndSplineSet
Fore
SplineSet
49 353 m 0
 49 382 71 404 100 404 c 0
 129 404 151 382 151 353 c 0
 151 324 129 302 100 302 c 0
 71 302 49 324 49 353 c 0
49 43 m 0
 49 72 71 94 100 94 c 0
 129 94 151 72 151 43 c 0
 151 14 129 -8 100 -8 c 0
 71 -8 49 14 49 43 c 0
EndSplineSet
EndChar

StartChar: semicolon
Encoding: 59 59 30
GlifName: semicolon
Width: 200
Flags: HMW
LayerCount: 3
Back
SplineSet
49 353 m 0
 49 382 71 404 100 404 c 0
 129 404 151 382 151 353 c 0
 151 324 129 302 100 302 c 0
 71 302 49 324 49 353 c 0
39 28 m 1
 57 105 l 1
 65 105 l 2
 116 105 164 70 164 6 c 0
 164 -52 119 -110 39 -140 c 1
 26 -116 l 1
 74 -97 100 -62 100 -25 c 0
 100 7 72 23 39 28 c 1
EndSplineSet
Fore
SplineSet
49 353 m 0
 49 382 71 404 100 404 c 0
 129 404 151 382 151 353 c 0
 151 324 129 302 100 302 c 0
 71 302 49 324 49 353 c 0
39 28 m 1
 57 105 l 1
 65 105 l 2
 116 105 164 70 164 6 c 0
 164 -52 119 -110 39 -140 c 1
 26 -116 l 1
 74 -97 100 -62 100 -25 c 0
 100 7 72 23 39 28 c 1
EndSplineSet
EndChar

StartChar: question
Encoding: 63 63 31
GlifName: question
Width: 317
Flags: HMW
LayerCount: 3
Back
SplineSet
253 427 m 0
 253 500 183 534 90 536 c 1
 90 648 l 1
 118 648 l 1
 118 643 l 2
 118 617 131 617 171 597 c 0
 245 561 288 506 288 425 c 0
 288 348 246 288 175 254 c 0
 135 235 125 229 125 200 c 2
 125 170 l 1
 95 170 l 1
 95 314 l 1
 183 317 253 350 253 427 c 0
EndSplineSet
Fore
SplineSet
60 44 m 0
 60 72 82 94 110 94 c 0
 138 94 160 72 160 44 c 0
 160 16 138 -6 110 -6 c 0
 82 -6 60 16 60 44 c 0
248 427 m 0
 248 498 180 529 90 531 c 1
 90 642 l 1
 118 642 l 1
 118 638 l 2
 118 612 131 611 171 591 c 0
 243 556 283 503 283 425 c 0
 283 351 244 293 175 260 c 0
 135 241 125 234 125 205 c 2
 125 175 l 1
 95 175 l 1
 95 319 l 1
 180 322 248 352 248 427 c 0
EndSplineSet
Layer: 2
SplineSet
248 427 m 0
 248 498 180 531 90 533 c 1
 90 642 l 1
 117 642 l 1
 117 637 l 2
 117 612 130 611 169 592 c 0
 241 557 282 505 282 426 c 0
 282 351 241 293 172 260 c 0
 133 242 124 235 124 207 c 2
 124 178 l 1
 95 178 l 1
 95 318 l 1
 180 321 248 352 248 427 c 0
EndSplineSet
EndChar

StartChar: A
Encoding: 65 65 32
GlifName: A_
Width: 615
Flags: HMW
AnchorPoint: "CapTop" 314 690 basechar 0
LayerCount: 3
Back
SplineSet
437 227 m 1
 177 227 l 1
 119 92 l 1
 103 35 l 1
 176 35 l 1
 176 0 l 1
 -3 0 l 1
 -3 35 l 1
 48 35 l 1
 320 662 l 1
 344 662 l 1
 601 35 l 1
 651 35 l 1
 651 0 l 1
 446 0 l 1
 446 35 l 1
 514 35 l 1
 437 227 l 1
422 265 m 1
 313 537 l 1
 309 537 l 1
 193 265 l 1
 422 265 l 1
EndSplineSet
Fore
SplineSet
398 237 m 1
 177 237 l 1
 118 92 l 1
 103 35 l 1
 177 35 l 1
 177 0 l 1
 -5 0 l 1
 -5 35 l 1
 48 35 l 1
 301 642 l 1
 327 642 l 1
 564 35 l 1
 617 35 l 1
 617 0 l 1
 405 0 l 1
 405 35 l 1
 474 35 l 1
 398 237 l 1
384 275 m 1
 294 515 l 1
 290 515 l 1
 192 275 l 1
 384 275 l 1
EndSplineSet
Layer: 2
SplineSet
411 237 m 1
 167 237 l 1
 183 275 l 1
 396 275 l 1
 411 237 l 1
474 35 m 1
 294 515 l 1
 290 515 l 1
 118 92 l 1
 103 35 l 1
 176 35 l 1
 176 0 l 1
 -3 0 l 1
 -3 35 l 1
 48 35 l 1
 301 642 l 1
 327 642 l 1
 564 35 l 1
 615 35 l 1
 615 0 l 1
 406 0 l 1
 406 35 l 1
 474 35 l 1
-239 227 m 1
 -483 227 l 1
 -540 92 l 1
 -556 35 l 1
 -483 35 l 1
 -483 0 l 1
 -662 0 l 1
 -662 35 l 1
 -611 35 l 1
 -348 642 l 1
 -324 642 l 1
 -75 35 l 1
 -25 35 l 1
 -25 0 l 1
 -230 0 l 1
 -230 35 l 1
 -162 35 l 1
 -239 227 l 1
-254 265 m 1
 -355 517 l 1
 -359 517 l 1
 -467 265 l 1
 -254 265 l 1
178 350 m 0
 178 362 187 371 199 371 c 0
 211 371 220 362 220 350 c 0
 220 338 211 329 199 329 c 0
 187 329 178 338 178 350 c 0
178 351 m 0
 178 362 187 371 198 371 c 0
 209 371 218 362 218 351 c 0
 218 340 209 331 198 331 c 0
 187 331 178 340 178 351 c 0
EndSplineSet
EndChar

StartChar: B
Encoding: 66 66 33
GlifName: B_
Width: 548
Flags: HMW
LayerCount: 3
Back
SplineSet
360 347 m 1
 448 330 515 273 515 188 c 0
 515 70 425 0 265 0 c 2
 31 0 l 1
 31 35 l 1
 110 35 l 1
 110 605 l 1
 31 605 l 1
 31 640 l 1
 255 640 l 2
 392 640 475 585 475 490 c 0
 475 425 425 373 360 350 c 1
 360 347 l 1
190 322 m 1
 190 69 l 2
 190 50 201 38 220 38 c 2
 260 38 l 2
 365 38 427 93 427 180 c 0
 427 265 369 322 247 322 c 2
 190 322 l 1
242 604 m 2
 190 604 l 1
 190 358 l 1
 260 358 l 2
 335 358 391 406 391 483 c 0
 391 560 347 604 242 604 c 2
EndSplineSet
Fore
SplineSet
352 337 m 1
 440 320 508 265 508 183 c 0
 508 70 420 0 265 0 c 2
 29 0 l 1
 29 35 l 1
 110 35 l 1
 110 585 l 1
 29 585 l 1
 29 620 l 1
 255 620 l 2
 392 620 469 565 469 475 c 0
 469 410 417 362 352 340 c 1
 352 337 l 1
190 312 m 1
 190 69 l 2
 190 50 201 38 220 38 c 2
 260 38 l 2
 360 38 420 90 420 175 c 0
 420 257 364 312 247 312 c 2
 190 312 l 1
242 584 m 2
 190 584 l 1
 190 348 l 1
 260 348 l 2
 335 348 385 398 385 468 c 0
 385 542 340 584 242 584 c 2
EndSplineSet
Layer: 2
SplineSet
355 337 m 1
 440 321 506 264 506 182 c 0
 506 68 418 0 263 0 c 2
 36 0 l 1
 36 34 l 1
 113 34 l 1
 113 587 l 1
 36 587 l 1
 36 621 l 1
 253 621 l 2
 386 621 467 567 467 475 c 0
 467 412 418 362 355 340 c 1
 355 337 l 1
190 312 m 1
 190 67 l 2
 190 49 201 37 219 37 c 2
 258 37 l 2
 360 37 420 91 420 175 c 0
 420 257 364 312 246 312 c 2
 190 312 l 1
241 586 m 2
 190 586 l 1
 190 347 l 1
 258 347 l 2
 331 347 385 394 385 469 c 0
 385 544 343 586 241 586 c 2
EndSplineSet
EndChar

StartChar: C
Encoding: 67 67 34
GlifName: C_
Width: 645
Flags: HMW
AnchorPoint: "CapBottom" 373 8 basechar 0
LayerCount: 3
Back
SplineSet
585 138 m 2
 605 185 l 1
 635 185 l 1
 584 30 l 1
 528 2 452 -14 385 -14 c 0
 178 -14 35 125 35 320 c 0
 35 515 198 654 385 654 c 0
 455 654 532 637 588 607 c 1
 610 460 l 1
 580 460 l 1
 573 490 l 2
 566 520 552 548 535 565 c 0
 505 595 452 618 377 618 c 0
 240 618 130 505 130 335 c 0
 130 152 235 25 390 25 c 0
 505 25 557 72 585 138 c 2
EndSplineSet
Fore
SplineSet
568 137 m 2
 587 184 l 1
 617 184 l 1
 571 28 l 1
 515 0 443 -15 373 -15 c 0
 175 -15 35 125 35 310 c 0
 35 495 192 635 377 635 c 0
 444 635 517 620 573 590 c 1
 595 444 l 1
 565 444 l 1
 558 474 l 2
 551 504 537 531 520 548 c 0
 492 576 441 599 371 599 c 0
 234 599 130 488 130 325 c 0
 130 149 231 24 379 24 c 0
 489 24 541 69 568 137 c 2
EndSplineSet
Layer: 2
SplineSet
572 133 m 2
 591 179 l 1
 620 179 l 1
 571 29 l 1
 517 2 443 -14 378 -14 c 0
 177 -14 38 121 38 310 c 0
 38 499 197 634 378 634 c 0
 446 634 520 617 574 588 c 1
 596 446 l 1
 567 446 l 1
 560 475 l 2
 553 504 539 532 523 548 c 0
 494 577 443 599 370 599 c 0
 237 599 130 490 130 325 c 0
 130 147 232 24 382 24 c 0
 494 24 545 69 572 133 c 2
EndSplineSet
EndChar

StartChar: D
Encoding: 68 68 35
GlifName: D_
Width: 712
Flags: HMW
LayerCount: 3
Back
SplineSet
310 642 m 2
 515 642 684 530 684 332 c 0
 684 140 537 0 320 0 c 2
 33 0 l 1
 33 35 l 1
 110 35 l 1
 110 605 l 1
 33 605 l 1
 33 640 l 1
 310 642 l 2
300 605 m 2
 190 605 l 1
 190 80 l 2
 190 52 205 38 235 38 c 2
 317 38 l 2
 485 38 592 150 592 320 c 0
 592 505 472 605 300 605 c 2
EndSplineSet
Fore
SplineSet
310 622 m 17
 510 622 671 512 671 322 c 0
 671 138 532 0 320 0 c 2
 31 0 l 1
 31 35 l 1
 110 35 l 1
 110 585 l 1
 31 585 l 1
 31 620 l 1
 310 622 l 17
300 585 m 2
 190 585 l 1
 190 80 l 2
 190 52 205 38 235 38 c 2
 315 38 l 2
 478 38 579 145 579 310 c 0
 579 488 467 585 300 585 c 2
EndSplineSet
Layer: 2
SplineSet
306 622 m 2
 505 622 669 514 669 322 c 0
 669 136 526 0 316 0 c 2
 38 0 l 1
 38 34 l 1
 112 34 l 1
 112 586 l 1
 38 586 l 1
 38 620 l 1
 306 622 l 2
297 586 m 2
 190 586 l 1
 190 77 l 2
 190 50 205 36 234 36 c 2
 313 36 l 2
 476 36 580 145 580 310 c 0
 580 489 464 586 297 586 c 2
EndSplineSet
EndChar

StartChar: E
Encoding: 69 69 36
GlifName: E_
Width: 555
Flags: HMW
AnchorPoint: "CapTop" 270 690 basechar 0
LayerCount: 3
Back
SplineSet
383 604 m 2
 190 604 l 1
 190 355 l 1
 385 355 l 1
 385 423 l 1
 418 423 l 1
 418 338 l 1
 418 243 l 1
 385 243 l 1
 385 318 l 1
 190 318 l 1
 190 68 l 2
 190 48 200 38 220 38 c 2
 373 38 l 2
 433 38 461 62 485 147 c 2
 493 175 l 1
 525 175 l 1
 490 0 l 1
 23 0 l 1
 23 35 l 1
 110 35 l 1
 110 605 l 1
 30 605 l 1
 30 640 l 1
 485 640 l 1
 490 490 l 1
 459 490 l 1
 455 524 l 2
 447 590 425 604 383 604 c 2
EndSplineSet
Fore
SplineSet
378 584 m 2
 190 584 l 1
 190 345 l 1
 375 345 l 1
 375 413 l 1
 408 413 l 1
 408 328 l 1
 408 233 l 1
 375 233 l 1
 375 308 l 1
 190 308 l 1
 190 68 l 2
 190 48 200 38 220 38 c 2
 362 38 l 2
 422 38 447 60 470 125 c 2
 488 175 l 1
 520 175 l 1
 485 0 l 1
 21 0 l 1
 21 35 l 1
 110 35 l 1
 110 585 l 1
 28 585 l 1
 28 620 l 1
 480 620 l 1
 485 470 l 1
 454 470 l 1
 448 512 l 2
 440 570 420 584 378 584 c 2
EndSplineSet
EndChar

StartChar: F
Encoding: 70 70 37
GlifName: F_
Width: 505
Flags: HMW
LayerCount: 3
Back
SplineSet
190 305 m 1
 190 35 l 1
 287 35 l 1
 287 0 l 1
 33 0 l 1
 33 35 l 1
 110 35 l 1
 110 605 l 1
 26 605 l 1
 26 640 l 1
 480 640 l 1
 490 480 l 1
 458 480 l 1
 450 527 l 2
 440 585 415 604 372 604 c 2
 190 604 l 1
 190 342 l 1
 390 342 l 1
 390 420 l 1
 423 420 l 1
 423 325 l 1
 423 220 l 1
 390 220 l 1
 390 305 l 1
 190 305 l 1
EndSplineSet
Fore
SplineSet
190 285 m 1
 190 35 l 1
 287 35 l 1
 287 0 l 1
 31 0 l 1
 31 35 l 1
 110 35 l 1
 110 585 l 1
 24 585 l 1
 24 620 l 1
 475 620 l 1
 485 460 l 1
 453 460 l 1
 445 507 l 2
 435 565 410 584 367 584 c 2
 190 584 l 1
 190 322 l 1
 385 322 l 1
 385 400 l 1
 418 400 l 1
 418 305 l 1
 418 200 l 1
 385 200 l 1
 385 285 l 1
 190 285 l 1
EndSplineSet
EndChar

StartChar: G
Encoding: 71 71 38
GlifName: G_
Width: 700
Flags: HMW
LayerCount: 3
Back
SplineSet
528 52 m 1
 528 241 l 1
 434 241 l 1
 434 276 l 1
 665 276 l 1
 665 241 l 1
 605 241 l 1
 604 25 l 1
 530 0 452 -14 385 -14 c 0
 178 -14 35 125 35 320 c 0
 35 510 190 654 388 654 c 0
 462 654 537 635 592 605 c 1
 600 465 l 1
 570 465 l 1
 565 500 l 2
 561 526 551 551 534 568 c 0
 504 598 452 618 385 618 c 0
 230 618 126 500 126 330 c 0
 126 160 231 24 393 24 c 0
 437 24 489 31 528 52 c 1
EndSplineSet
Fore
SplineSet
517 52 m 1
 517 235 l 1
 423 235 l 1
 423 270 l 1
 654 270 l 1
 654 235 l 1
 594 235 l 1
 593 25 l 1
 521 1 447 -14 380 -14 c 0
 175 -14 35 123 35 310 c 0
 35 492 188 635 384 635 c 0
 458 635 528 616 582 586 c 1
 590 446 l 1
 560 446 l 1
 555 481 l 2
 551 507 540 534 524 550 c 0
 495 579 444 599 381 599 c 0
 228 599 126 486 126 320 c 0
 126 155 228 24 388 24 c 0
 432 24 479 32 517 52 c 1
EndSplineSet
Layer: 2
SplineSet
516 50 m 1
 516 233 l 1
 424 233 l 1
 424 267 l 1
 649 267 l 1
 649 233 l 1
 590 233 l 1
 589 24 l 1
 517 0 442 -14 377 -14 c 0
 176 -14 37 121 37 310 c 0
 37 494 188 634 380 634 c 0
 452 634 525 615 578 586 c 1
 585 451 l 1
 556 451 l 1
 552 485 l 2
 548 510 537 535 521 551 c 0
 492 580 442 599 377 599 c 0
 227 599 126 485 126 320 c 0
 126 155 228 23 385 23 c 0
 428 23 478 30 516 50 c 1
EndSplineSet
EndChar

StartChar: H
Encoding: 72 72 39
GlifName: H_
Width: 760
Flags: HMW
LayerCount: 3
Back
SplineSet
31 605 m 1
 31 640 l 1
 269 640 l 1
 269 605 l 1
 190 605 l 1
 190 352 l 1
 575 352 l 1
 575 605 l 1
 496 605 l 1
 496 640 l 1
 734 640 l 1
 734 605 l 1
 655 605 l 1
 655 35 l 1
 734 35 l 1
 734 0 l 1
 496 0 l 1
 496 35 l 1
 575 35 l 1
 575 312 l 1
 190 312 l 1
 190 35 l 1
 269 35 l 1
 269 0 l 1
 31 0 l 1
 31 35 l 1
 110 35 l 1
 110 605 l 1
 31 605 l 1
EndSplineSet
Fore
SplineSet
29 585 m 1
 29 620 l 1
 271 620 l 1
 271 585 l 1
 190 585 l 1
 190 342 l 1
 570 342 l 1
 570 585 l 1
 489 585 l 1
 489 620 l 1
 731 620 l 1
 731 585 l 1
 650 585 l 1
 650 35 l 1
 731 35 l 1
 731 0 l 1
 489 0 l 1
 489 35 l 1
 570 35 l 1
 570 302 l 1
 190 302 l 1
 190 35 l 1
 271 35 l 1
 271 0 l 1
 29 0 l 1
 29 35 l 1
 110 35 l 1
 110 585 l 1
 29 585 l 1
EndSplineSet
EndChar

StartChar: I
Encoding: 73 73 40
GlifName: I_
Width: 300
Flags: HMW
AnchorPoint: "CapTop" 150 690 basechar 0
LayerCount: 3
Back
SplineSet
28 605 m 1
 28 640 l 1
 272 640 l 1
 272 605 l 1
 190 605 l 1
 190 35 l 1
 272 35 l 1
 272 0 l 1
 28 0 l 1
 28 35 l 1
 110 35 l 1
 110 605 l 1
 28 605 l 1
EndSplineSet
Fore
SplineSet
26 585 m 1
 26 620 l 1
 274 620 l 1
 274 585 l 1
 190 585 l 1
 190 35 l 1
 274 35 l 1
 274 0 l 1
 26 0 l 1
 26 35 l 1
 110 35 l 1
 110 585 l 1
 26 585 l 1
EndSplineSet
EndChar

StartChar: J
Encoding: 74 74 41
GlifName: J_
Width: 290
Flags: HMW
LayerCount: 3
Back
SplineSet
185 15 m 2
 185 -130 90 -240 -34 -240 c 0
 -65 -240 -95 -232 -115 -219 c 1
 -77 -154 l 1
 -75 -154 l 1
 -52 -173 -18 -185 12 -185 c 0
 80 -185 105 -140 105 -30 c 2
 105 605 l 1
 12 605 l 1
 12 640 l 1
 264 640 l 1
 264 605 l 1
 185 605 l 1
 185 15 l 2
EndSplineSet
Fore
SplineSet
185 15 m 2
 185 -130 90 -240 -34 -240 c 0
 -65 -240 -95 -232 -115 -219 c 1
 -77 -154 l 1
 -75 -154 l 1
 -52 -173 -18 -185 12 -185 c 0
 80 -185 105 -140 105 -30 c 2
 105 585 l 1
 10 585 l 1
 10 620 l 1
 268 620 l 1
 268 585 l 1
 185 585 l 1
 185 15 l 2
EndSplineSet
EndChar

StartChar: K
Encoding: 75 75 42
GlifName: K_
Width: 638
Flags: HMW
LayerCount: 3
Back
SplineSet
40 605 m 1
 40 640 l 1
 278 640 l 1
 278 605 l 1
 199 605 l 1
 199 35 l 1
 273 35 l 1
 273 0 l 1
 40 0 l 1
 40 35 l 1
 119 35 l 1
 119 605 l 1
 40 605 l 1
596 640 m 1
 596 605 l 1
 539 605 l 1
 293 366 l 1
 592 35 l 1
 645 35 l 1
 645 0 l 1
 421 0 l 1
 421 35 l 1
 487 35 l 1
 214 340 l 1
 456 579 l 1
 473 605 l 1
 411 605 l 1
 411 640 l 1
 596 640 l 1
EndSplineSet
Fore
SplineSet
38 585 m 1
 38 620 l 1
 280 620 l 1
 280 585 l 1
 199 585 l 1
 199 35 l 1
 277 35 l 1
 277 0 l 1
 38 0 l 1
 38 35 l 1
 119 35 l 1
 119 585 l 1
 38 585 l 1
592 620 m 1
 592 585 l 1
 529 585 l 1
 293 356 l 1
 583 35 l 1
 640 35 l 1
 640 0 l 1
 405 0 l 1
 405 35 l 1
 478 35 l 1
 214 330 l 1
 446 559 l 1
 463 585 l 1
 395 585 l 1
 395 620 l 1
 592 620 l 1
EndSplineSet
Layer: 2
SplineSet
40 585 m 1
 40 620 l 1
 278 620 l 1
 278 585 l 1
 199 585 l 1
 199 35 l 1
 273 35 l 1
 273 0 l 1
 40 0 l 1
 40 35 l 1
 119 35 l 1
 119 585 l 1
 40 585 l 1
596 630 m 1
 596 595 l 1
 539 595 l 1
 293 356 l 1
 592 25 l 1
 645 25 l 1
 645 -10 l 1
 421 -10 l 1
 421 25 l 1
 487 25 l 1
 214 330 l 1
 456 569 l 1
 473 595 l 1
 411 595 l 1
 411 630 l 1
 596 630 l 1
EndSplineSet
EndChar

StartChar: L
Encoding: 76 76 43
GlifName: L_
Width: 570
Flags: HMW
LayerCount: 3
Back
SplineSet
120 35 m 1
 120 605 l 1
 41 605 l 1
 41 640 l 1
 289 640 l 1
 289 605 l 1
 200 605 l 1
 200 74 l 2
 200 51 213 39 235 39 c 2
 385 39 l 2
 445 39 478 68 515 155 c 2
 530 190 l 1
 562 190 l 1
 502 0 l 1
 39 0 l 1
 39 35 l 1
 120 35 l 1
EndSplineSet
Fore
SplineSet
120 35 m 1
 120 585 l 1
 39 585 l 1
 39 620 l 1
 290 620 l 1
 290 585 l 1
 200 585 l 1
 200 74 l 2
 200 51 213 39 235 39 c 2
 380 39 l 2
 440 39 473 68 510 155 c 2
 525 190 l 1
 557 190 l 1
 500 0 l 1
 37 0 l 1
 37 35 l 1
 120 35 l 1
EndSplineSet
EndChar

StartChar: M
Encoding: 77 77 44
GlifName: M_
Width: 862
Flags: HMW
LayerCount: 3
Back
SplineSet
668 640 m 1
 826 640 l 1
 826 606 l 1
 793 606 l 2
 766 606 754 595 754 573 c 2
 754 571 l 1
 768 35 l 1
 847 35 l 1
 847 0 l 1
 609 0 l 1
 609 35 l 1
 688 35 l 1
 675 544 l 1
 672 544 l 1
 420 -8 l 1
 398 -8 l 1
 168 544 l 1
 165 544 l 1
 140 35 l 1
 222 35 l 1
 222 0 l 1
 17 0 l 1
 17 35 l 1
 96 35 l 1
 125 587 l 1
 115 602 100 606 70 606 c 2
 47 606 l 1
 47 640 l 1
 216 640 l 1
 430 115 l 1
 433 115 l 1
 668 640 l 1
EndSplineSet
Fore
SplineSet
658 620 m 1
 822 620 l 1
 822 586 l 1
 783 586 l 2
 756 586 744 575 744 553 c 2
 744 551 l 1
 758 35 l 1
 840 35 l 1
 840 0 l 1
 598 0 l 1
 598 35 l 1
 678 35 l 1
 665 524 l 1
 662 524 l 1
 419 -8 l 1
 397 -8 l 1
 175 524 l 1
 172 524 l 1
 147 35 l 1
 230 35 l 1
 230 0 l 1
 22 0 l 1
 22 35 l 1
 103 35 l 1
 132 567 l 1
 122 582 107 586 77 586 c 2
 52 586 l 1
 52 620 l 1
 223 620 l 1
 429 115 l 1
 432 115 l 1
 658 620 l 1
EndSplineSet
Layer: 2
SplineSet
656 618 m 1
 809 618 l 1
 809 585 l 1
 777 585 l 2
 751 585 739 574 739 553 c 2
 739 551 l 1
 753 31 l 1
 830 31 l 1
 830 -3 l 1
 599 -3 l 1
 599 31 l 1
 675 31 l 1
 663 525 l 1
 660 525 l 1
 415 -10 l 1
 394 -10 l 1
 171 525 l 1
 168 525 l 1
 144 31 l 1
 223 31 l 1
 223 -3 l 1
 24 -3 l 1
 24 31 l 1
 101 31 l 1
 129 567 l 1
 119 582 105 585 76 585 c 2
 54 585 l 1
 54 618 l 1
 217 618 l 1
 425 109 l 1
 428 109 l 1
 656 618 l 1
127 642 m 1
 215 642 l 1
 430 115 l 1
 433 115 l 1
 669 642 l 1
 717 642 l 1
 420 -8 l 1
 398 -8 l 1
 127 642 l 1
EndSplineSet
EndChar

StartChar: N
Encoding: 78 78 45
GlifName: N_
Width: 749
Flags: HMW
AnchorPoint: "CapTop" 355 690 basechar 0
LayerCount: 3
Back
SplineSet
10 606 m 1
 10 640 l 1
 176 640 l 1
 597 139 l 1
 600 140 l 1
 600 605 l 1
 513 605 l 1
 513 640 l 1
 725 640 l 1
 725 605 l 1
 644 605 l 1
 644 -15 l 1
 614 -15 l 1
 157 529 l 1
 154 528 l 1
 154 35 l 1
 239 35 l 1
 239 0 l 1
 28 0 l 1
 28 35 l 1
 110 35 l 1
 110 570 l 1
 85 597 64 606 29 606 c 2
 10 606 l 1
EndSplineSet
Fore
SplineSet
10 586 m 1
 10 620 l 1
 174 620 l 1
 580 138 l 1
 583 139 l 1
 583 585 l 1
 496 585 l 1
 496 620 l 1
 711 620 l 1
 711 585 l 1
 627 585 l 1
 627 -15 l 1
 597 -15 l 1
 157 509 l 1
 154 508 l 1
 154 35 l 1
 239 35 l 1
 239 0 l 1
 25 0 l 1
 25 35 l 1
 110 35 l 1
 110 550 l 1
 85 577 64 586 29 586 c 2
 10 586 l 1
EndSplineSet
Layer: 2
SplineSet
14 588 m 1
 14 621 l 1
 175 621 l 1
 583 135 l 1
 586 136 l 1
 586 587 l 1
 502 587 l 1
 502 621 l 1
 707 621 l 1
 707 587 l 1
 629 587 l 1
 629 -15 l 1
 600 -15 l 1
 156 513 l 1
 153 512 l 1
 153 34 l 1
 236 34 l 1
 236 0 l 1
 31 0 l 1
 31 34 l 1
 111 34 l 1
 111 553 l 1
 87 579 66 588 32 588 c 2
 14 588 l 1
EndSplineSet
EndChar

StartChar: O
Encoding: 79 79 46
GlifName: O_
Width: 724
Flags: HMW
AnchorPoint: "CapTop" 360 690 basechar 0
LayerCount: 3
Back
SplineSet
35 320 m 0
 35 507 183 654 370 654 c 0
 557 654 705 507 705 320 c 0
 705 133 557 -14 370 -14 c 0
 183 -14 35 133 35 320 c 0
129 335 m 0
 129 153 236 23 380 23 c 0
 515 23 611 143 611 305 c 0
 611 487 504 618 360 618 c 0
 225 618 129 497 129 335 c 0
EndSplineSet
Fore
SplineSet
35 310 m 0
 35 492 180 635 362 635 c 0
 544 635 689 492 689 310 c 0
 689 128 544 -15 362 -15 c 0
 180 -15 35 128 35 310 c 0
129 325 m 0
 129 148 233 22 372 22 c 0
 502 22 595 140 595 295 c 0
 595 472 491 599 352 599 c 0
 222 599 129 480 129 325 c 0
EndSplineSet
Layer: 2
SplineSet
34 310 m 0
 34 491 178 634 359 634 c 0
 540 634 684 491 684 310 c 0
 684 129 540 -14 359 -14 c 0
 178 -14 34 129 34 310 c 0
125 325 m 0
 125 148 229 22 369 22 c 0
 500 22 593 139 593 296 c 0
 593 473 489 599 349 599 c 0
 218 599 125 482 125 325 c 0
EndSplineSet
EndChar

StartChar: P
Encoding: 80 80 47
GlifName: P_
Width: 535
Flags: HMW
LayerCount: 3
Back
SplineSet
220 605 m 2
 200 605 190 595 190 575 c 2
 190 35 l 1
 284 35 l 1
 284 0 l 1
 31 0 l 1
 31 35 l 1
 110 35 l 1
 110 605 l 1
 29 605 l 1
 29 640 l 1
 255 640 l 2
 402 640 500 572 500 455 c 0
 500 320 380 248 245 248 c 0
 240 248 231 249 225 250 c 1
 225 282 l 1
 250 282 l 2
 345 282 410 340 410 440 c 0
 410 547 350 605 245 605 c 2
 220 605 l 2
EndSplineSet
Fore
SplineSet
220 585 m 2
 200 585 190 575 190 555 c 2
 190 35 l 1
 284 35 l 1
 284 0 l 1
 29 0 l 1
 29 35 l 1
 110 35 l 1
 110 585 l 1
 27 585 l 1
 27 620 l 1
 255 620 l 2
 405 620 500 555 500 440 c 0
 500 308 380 236 245 236 c 0
 240 236 231 237 225 238 c 1
 225 270 l 1
 250 270 l 2
 345 270 410 330 410 428 c 0
 410 524 350 585 245 585 c 2
 220 585 l 2
EndSplineSet
Layer: 2
SplineSet
220 587 m 2
 201 587 191 577 191 558 c 2
 191 34 l 1
 282 34 l 1
 282 0 l 1
 37 0 l 1
 37 34 l 1
 114 34 l 1
 114 587 l 1
 35 587 l 1
 35 621 l 1
 254 621 l 2
 397 621 492 554 492 441 c 0
 492 310 376 241 245 241 c 0
 240 241 231 241 225 242 c 1
 225 274 l 1
 249 274 l 2
 341 274 405 330 405 427 c 0
 405 531 347 587 245 587 c 2
 220 587 l 2
EndSplineSet
EndChar

StartChar: Q
Encoding: 81 81 48
GlifName: Q_
Width: 724
Flags: HMW
LayerCount: 3
Back
SplineSet
129 335 m 0
 129 153 236 23 380 23 c 0
 515 23 611 143 611 305 c 0
 611 487 504 618 360 618 c 0
 225 618 129 497 129 335 c 0
35 320 m 0
 35 507 183 654 370 654 c 0
 557 654 705 507 705 320 c 0
 705 176 615 46 475 4 c 1
 475 0 l 1
 580 -35 645 -130 785 -130 c 0
 817 -130 859 -125 889 -110 c 1
 897 -130 l 1
 860 -160 797 -182 745 -182 c 0
 560 -182 456 -21 335 -12 c 0
 193 -1 35 120 35 320 c 0
EndSplineSet
Fore
SplineSet
318 -12 m 0
 165 7 35 135 35 310 c 0
 35 492 180 635 362 635 c 0
 544 635 689 492 689 310 c 0
 689 160 587 35 451 -1 c 1
 451 -5 l 1
 556 -40 603 -124 743 -124 c 0
 775 -124 817 -119 847 -104 c 1
 855 -124 l 1
 818 -154 755 -176 703 -176 c 0
 518 -176 428 -26 318 -12 c 0
129 325 m 0
 129 148 233 22 372 22 c 0
 502 22 595 140 595 295 c 0
 595 472 491 599 352 599 c 0
 222 599 129 480 129 325 c 0
EndSplineSet
Layer: 2
SplineSet
443 -1 m 1
 443 -5 l 1
 548 -40 613 -135 753 -135 c 0
 785 -135 827 -130 857 -115 c 1
 865 -135 l 1
 828 -165 765 -187 713 -187 c 0
 528 -187 424 -26 303 -17 c 1024
425 10 m 1
 425 6 l 1
 530 -29 595 -124 735 -124 c 0
 767 -124 809 -119 839 -104 c 1
 847 -124 l 1
 810 -154 747 -176 695 -176 c 0
 510 -176 406 -15 285 -6 c 1024
125 325 m 0
 125 148 229 22 369 22 c 0
 500 22 593 139 593 296 c 0
 593 473 489 599 349 599 c 0
 218 599 125 482 125 325 c 0
34 310 m 0
 34 491 178 634 359 634 c 0
 540 634 684 491 684 310 c 0
 684 170 597 45 461 4 c 1
 461 0 l 1
 563 -34 625 -126 761 -126 c 0
 792 -126 833 -122 862 -107 c 1
 870 -126 l 1
 834 -155 773 -177 723 -177 c 0
 544 -177 442 -21 325 -12 c 0
 187 -1 34 116 34 310 c 0
EndSplineSet
EndChar

StartChar: R
Encoding: 82 82 49
GlifName: R_
Width: 642
Flags: HMW
LayerCount: 3
Back
SplineSet
190 284 m 1
 190 35 l 1
 269 35 l 1
 269 0 l 1
 34 0 l 1
 34 35 l 1
 110 35 l 1
 110 605 l 1
 31 605 l 1
 31 640 l 1
 247 640 l 2
 395 640 482 577 482 472 c 0
 482 392 430 334 356 303 c 1
 356 300 l 1
 435 182 l 2
 526 46 575 30 635 30 c 2
 645 30 l 1
 645 10 l 1
 628 -2 600 -10 575 -10 c 0
 502 -10 440 21 346 177 c 2
 282 283 l 1
 190 284 l 1
215 605 m 2
 200 605 190 594 190 578 c 2
 190 322 l 1
 202 320 225 318 237 318 c 0
 343 318 399 376 399 465 c 0
 399 551 343 605 240 605 c 2
 215 605 l 2
EndSplineSet
Fore
SplineSet
190 274 m 1
 190 35 l 1
 272 35 l 1
 272 0 l 1
 32 0 l 1
 32 35 l 1
 110 35 l 1
 110 585 l 1
 29 585 l 1
 29 620 l 1
 248 620 l 2
 392 620 477 562 477 462 c 0
 477 385 428 324 355 294 c 1
 355 292 l 1
 432 177 l 2
 523 41 572 25 632 25 c 2
 642 25 l 1
 642 5 l 1
 625 -7 597 -15 572 -15 c 0
 499 -15 437 16 343 172 c 2
 282 273 l 1
 190 274 l 1
215 585 m 2
 200 585 190 574 190 558 c 2
 190 312 l 1
 202 310 225 308 237 308 c 0
 342 308 394 370 394 455 c 0
 394 537 340 585 240 585 c 2
 215 585 l 2
EndSplineSet
Layer: 2
SplineSet
191 275 m 1
 191 34 l 1
 268 34 l 1
 268 0 l 1
 40 0 l 1
 40 34 l 1
 114 34 l 1
 114 587 l 1
 37 587 l 1
 37 621 l 1
 247 621 l 2
 391 621 475 560 475 458 c 0
 475 380 424 324 352 294 c 1
 352 291 l 1
 429 177 l 2
 517 45 565 29 623 29 c 2
 633 29 l 1
 633 10 l 1
 617 -2 589 -10 565 -10 c 0
 494 -10 434 21 343 172 c 2
 281 275 l 1
 191 275 l 1
216 587 m 2
 201 587 191 577 191 561 c 2
 191 312 l 1
 203 310 225 308 237 308 c 0
 340 308 394 365 394 451 c 0
 394 534 340 587 240 587 c 2
 216 587 l 2
EndSplineSet
EndChar

StartChar: S
Encoding: 83 83 50
GlifName: S_
Width: 460
Flags: HMW
AnchorPoint: "CapTop" 230 690 basechar 0
LayerCount: 3
Back
SplineSet
221 21 m 0
 301 21 340 70 340 125 c 0
 340 193 298 233 196 305 c 0
 90 380 50 427 50 500 c 0
 50 580 129 656 240 656 c 0
 298 656 349 640 386 615 c 1
 396 475 l 1
 364 475 l 1
 359 514 l 2
 351 574 306 621 231 621 c 0
 169 621 124 582 124 535 c 0
 124 475 161 440 256 373 c 0
 379 286 424 240 424 160 c 0
 424 65 335 -16 211 -16 c 0
 156 -16 95 -3 53 25 c 1
 31 185 l 1
 63 185 l 1
 73 140 l 2
 91 60 141 21 221 21 c 0
EndSplineSet
Fore
SplineSet
214 21 m 0
 290 21 330 68 330 120 c 0
 330 187 287 226 189 295 c 0
 87 367 47 413 47 485 c 0
 47 561 126 636 233 636 c 0
 290 636 339 620 376 597 c 1
 386 457 l 1
 354 457 l 1
 349 496 l 2
 342 554 295 601 224 601 c 0
 166 601 121 564 121 515 c 0
 121 461 158 427 249 363 c 0
 367 280 413 234 413 154 c 0
 413 62 324 -16 204 -16 c 0
 150 -16 93 -3 51 23 c 1
 29 183 l 1
 61 183 l 1
 71 138 l 2
 88 60 138 21 214 21 c 0
EndSplineSet
Layer: 2
SplineSet
214 20 m 0
 292 20 330 68 330 121 c 0
 330 187 289 226 190 296 c 0
 87 369 48 414 48 485 c 0
 48 563 125 636 233 636 c 0
 289 636 338 621 374 597 c 1
 384 461 l 1
 353 461 l 1
 348 499 l 2
 340 557 297 602 224 602 c 0
 164 602 120 565 120 519 c 0
 120 461 156 427 248 362 c 0
 367 278 411 233 411 155 c 0
 411 63 325 -16 205 -16 c 0
 152 -16 92 -3 51 24 c 1
 30 179 l 1
 61 179 l 1
 71 136 l 2
 88 58 136 20 214 20 c 0
EndSplineSet
EndChar

StartChar: T
Encoding: 84 84 51
GlifName: T_
Width: 605
Flags: HMW
LayerCount: 3
Back
SplineSet
29 675 m 1
 61 675 l 1
 66 640 l 1
 562 640 l 1
 572 675 l 1
 604 675 l 1
 594 475 l 1
 562 475 l 1
 562 518 l 2
 562 585 542 602 509 602 c 2
 344 602 l 1
 344 35 l 1
 428 35 l 1
 428 0 l 1
 180 0 l 1
 180 35 l 1
 264 35 l 1
 264 602 l 1
 114 602 l 2
 76 602 53 580 38 512 c 2
 31 480 l 1
 -1 480 l 1
 29 675 l 1
EndSplineSet
Fore
SplineSet
30 655 m 1
 62 655 l 1
 67 620 l 1
 553 620 l 1
 563 655 l 1
 595 655 l 1
 585 455 l 1
 553 455 l 1
 553 498 l 2
 553 565 533 582 500 582 c 2
 340 582 l 1
 340 35 l 1
 425 35 l 1
 425 0 l 1
 175 0 l 1
 175 35 l 1
 260 35 l 1
 260 582 l 1
 115 582 l 2
 77 582 54 560 39 492 c 2
 32 460 l 1
 0 460 l 1
 30 655 l 1
EndSplineSet
EndChar

StartChar: U
Encoding: 85 85 52
GlifName: U_
Width: 716
Flags: HMW
AnchorPoint: "CapTop" 358 690 basechar 0
LayerCount: 3
Back
SplineSet
26 605 m 1
 26 640 l 1
 259 640 l 1
 259 605 l 1
 180 605 l 1
 180 240 l 2
 180 102 250 32 380 32 c 0
 510 32 585 110 585 245 c 2
 585 605 l 1
 505 605 l 1
 505 640 l 1
 704 640 l 1
 704 605 l 1
 630 605 l 1
 630 255 l 2
 630 85 535 -15 360 -15 c 0
 200 -15 100 80 100 235 c 2
 100 605 l 1
 26 605 l 1
EndSplineSet
Fore
SplineSet
24 585 m 1
 24 620 l 1
 260 620 l 1
 260 585 l 1
 180 585 l 1
 180 235 l 2
 180 102 243 32 373 32 c 0
 503 32 571 110 571 240 c 2
 571 585 l 1
 489 585 l 1
 489 620 l 1
 694 620 l 1
 694 585 l 1
 616 585 l 1
 616 250 l 2
 616 80 523 -15 353 -15 c 0
 198 -15 100 75 100 230 c 2
 100 585 l 1
 24 585 l 1
EndSplineSet
Layer: 2
SplineSet
36 586 m 1
 36 620 l 1
 262 620 l 1
 262 586 l 1
 186 586 l 1
 186 232 l 2
 186 98 254 30 380 30 c 0
 506 30 578 106 578 237 c 2
 578 586 l 1
 501 586 l 1
 501 620 l 1
 694 620 l 1
 694 586 l 1
 622 586 l 1
 622 247 l 2
 622 82 530 -15 360 -15 c 0
 205 -15 108 77 108 227 c 2
 108 586 l 1
 36 586 l 1
EndSplineSet
EndChar

StartChar: V
Encoding: 86 86 53
GlifName: V_
Width: 638
Flags: HMW
LayerCount: 3
Back
SplineSet
141 605 m 1
 336 109 l 1
 339 109 l 1
 524 545 l 1
 538 605 l 1
 465 605 l 1
 465 640 l 1
 653 640 l 1
 653 605 l 1
 596 605 l 1
 326 -20 l 1
 304 -20 l 1
 52 605 l 1
 -3 605 l 1
 -3 640 l 1
 210 640 l 1
 210 605 l 1
 141 605 l 1
EndSplineSet
Fore
SplineSet
144 585 m 1
 330 109 l 1
 333 109 l 1
 509 525 l 1
 523 585 l 1
 450 585 l 1
 450 620 l 1
 642 620 l 1
 642 585 l 1
 581 585 l 1
 320 -20 l 1
 298 -20 l 1
 55 585 l 1
 -5 585 l 1
 -5 620 l 1
 216 620 l 1
 216 585 l 1
 144 585 l 1
EndSplineSet
EndChar

StartChar: W
Encoding: 87 87 54
GlifName: W_
Width: 952
Flags: HMW
LayerCount: 3
Back
SplineSet
516 607 m 1
 690 121 l 1
 693 121 l 1
 854 544 l 1
 868 607 l 1
 795 607 l 1
 795 640 l 1
 977 640 l 1
 977 607 l 1
 924 607 l 1
 681 -20 l 1
 659 -20 l 1
 493 432 l 1
 490 432 l 1
 301 -20 l 1
 279 -20 l 1
 51 607 l 1
 -3 607 l 1
 -3 640 l 1
 210 640 l 1
 210 607 l 1
 139 607 l 1
 313 119 l 1
 316 119 l 1
 470 494 l 1
 428 607 l 1
 365 607 l 1
 365 640 l 1
 589 640 l 1
 589 607 l 1
 516 607 l 1
EndSplineSet
Fore
SplineSet
504 587 m 1
 671 121 l 1
 674 121 l 1
 827 524 l 1
 841 587 l 1
 766 587 l 1
 766 620 l 1
 955 620 l 1
 955 587 l 1
 897 587 l 1
 662 -20 l 1
 640 -20 l 1
 481 413 l 1
 478 413 l 1
 297 -20 l 1
 275 -20 l 1
 54 587 l 1
 -5 587 l 1
 -5 620 l 1
 216 620 l 1
 216 587 l 1
 142 587 l 1
 309 119 l 1
 312 119 l 1
 458 475 l 1
 416 587 l 1
 352 587 l 1
 352 620 l 1
 579 620 l 1
 579 587 l 1
 504 587 l 1
EndSplineSet
Layer: 2
SplineSet
-600 608 m 1
 -531 446 l 1
 -528 446 l 1
 -479 561 l 1
 -466 608 l 1
 -600 608 l 1
-360 640 m 1
 -360 608 l 1
 -411 608 l 1
 -509 395 l 1
 -386 104 l 1
 -191 550 l 1
 -175 608 l 1
 -240 608 l 1
 -240 640 l 1
 -75 640 l 1
 -75 608 l 1
 -120 608 l 1
 -394 -20 l 1
 -416 -20 l 1
 -553 302 l 1
 -556 302 l 1
 -704 -20 l 1
 -726 -20 l 1
 -985 608 l 1
 -1025 608 l 1
 -1025 640 l 1
 -835 640 l 1
 -835 608 l 1
 -898 608 l 1
 -694 104 l 1
 -691 104 l 1
 -577 357 l 1
 -685 608 l 1
 -735 608 l 1
 -735 640 l 1
 -360 640 l 1
EndSplineSet
EndChar

StartChar: X
Encoding: 88 88 55
GlifName: X_
Width: 670
Flags: HMW
LayerCount: 3
Back
SplineSet
380 348 m 1
 625 35 l 1
 684 35 l 1
 684 0 l 1
 453 0 l 1
 453 35 l 1
 520 35 l 1
 326 286 l 1
 325 286 l 1
 152 77 l 1
 130 35 l 1
 203 35 l 1
 203 0 l 1
 -2 0 l 1
 -2 35 l 1
 60 35 l 1
 298 320 l 1
 74 605 l 1
 15 605 l 1
 15 640 l 1
 246 640 l 1
 246 605 l 1
 177 605 l 1
 354 382 l 1
 355 382 l 1
 506 564 l 1
 527 605 l 1
 454 605 l 1
 454 640 l 1
 657 640 l 1
 657 605 l 1
 597 605 l 1
 380 348 l 1
EndSplineSet
Fore
SplineSet
374 338 m 1
 611 35 l 1
 672 35 l 1
 672 0 l 1
 437 0 l 1
 437 35 l 1
 506 35 l 1
 320 276 l 1
 319 276 l 1
 154 77 l 1
 132 35 l 1
 207 35 l 1
 207 0 l 1
 -2 0 l 1
 -2 35 l 1
 62 35 l 1
 292 310 l 1
 76 585 l 1
 15 585 l 1
 15 620 l 1
 250 620 l 1
 250 585 l 1
 179 585 l 1
 348 372 l 1
 349 372 l 1
 492 544 l 1
 513 585 l 1
 438 585 l 1
 438 620 l 1
 645 620 l 1
 645 585 l 1
 583 585 l 1
 374 338 l 1
EndSplineSet
Layer: 2
SplineSet
380 338 m 1
 625 25 l 1
 684 25 l 1
 684 -10 l 1
 453 -10 l 1
 453 25 l 1
 520 25 l 1
 326 276 l 1
 325 276 l 1
 152 67 l 1
 130 25 l 1
 203 25 l 1
 203 -10 l 1
 -2 -10 l 1
 -2 25 l 1
 60 25 l 1
 298 310 l 1
 74 595 l 1
 15 595 l 1
 15 630 l 1
 246 630 l 1
 246 595 l 1
 177 595 l 1
 354 372 l 1
 355 372 l 1
 506 554 l 1
 527 595 l 1
 454 595 l 1
 454 630 l 1
 657 630 l 1
 657 595 l 1
 597 595 l 1
 380 338 l 1
EndSplineSet
EndChar

StartChar: Y
Encoding: 89 89 56
GlifName: Y_
Width: 588
Flags: HMW
AnchorPoint: "CapTop" 305 690 basechar 0
LayerCount: 3
Back
SplineSet
148 595 m 1
 315 321 l 1
 318 321 l 1
 464 546 l 1
 484 595 l 1
 413 595 l 1
 413 630 l 1
 600 630 l 1
 600 595 l 1
 546 595 l 1
 334 275 l 1
 334 24 l 1
 411 24 l 1
 411 -10 l 1
 177 -10 l 1
 177 24 l 1
 254 24 l 1
 254 266 l 1
 52 595 l 1
 -2 595 l 1
 -2 630 l 1
 210 630 l 1
 210 595 l 1
 148 595 l 1
EndSplineSet
Fore
SplineSet
150 585 m 1
 311 321 l 1
 314 321 l 1
 454 536 l 1
 474 585 l 1
 402 585 l 1
 402 620 l 1
 594 620 l 1
 594 585 l 1
 536 585 l 1
 330 275 l 1
 330 34 l 1
 409 34 l 1
 409 0 l 1
 171 0 l 1
 171 34 l 1
 250 34 l 1
 250 266 l 1
 54 585 l 1
 -4 585 l 1
 -4 620 l 1
 217 620 l 1
 217 585 l 1
 150 585 l 1
EndSplineSet
Layer: 2
SplineSet
312 329 m 0
 312 341 321 350 333 350 c 0
 345 350 354 341 354 329 c 0
 354 317 345 308 333 308 c 0
 321 308 312 317 312 329 c 0
312 330 m 0
 312 341 321 350 332 350 c 0
 343 350 352 341 352 330 c 0
 352 319 343 310 332 310 c 0
 321 310 312 319 312 330 c 0
EndSplineSet
EndChar

StartChar: Z
Encoding: 90 90 57
GlifName: Z_
Width: 630
Flags: HMW
AnchorPoint: "CapTop" 317 690 basechar 0
LayerCount: 3
Back
SplineSet
78 670 m 1
 110 670 l 1
 115 640 l 1
 575 640 l 1
 575 610 l 1
 145 40 l 1
 145 38 l 1
 466 38 l 2
 516 38 544 55 568 140 c 2
 578 175 l 1
 610 175 l 1
 575 0 l 1
 35 0 l 1
 35 30 l 1
 465 602 l 1
 465 604 l 1
 175 604 l 2
 130 604 109 585 91 515 c 2
 81 475 l 1
 50 475 l 1
 78 670 l 1
EndSplineSet
Fore
SplineSet
78 650 m 1
 110 650 l 1
 115 620 l 1
 560 620 l 1
 560 590 l 1
 145 40 l 1
 145 38 l 1
 451 38 l 2
 501 38 529 55 553 140 c 2
 563 175 l 1
 595 175 l 1
 560 0 l 1
 35 0 l 1
 35 30 l 1
 450 582 l 1
 450 584 l 1
 175 584 l 2
 130 584 109 565 91 495 c 2
 81 455 l 1
 50 455 l 1
 78 650 l 1
EndSplineSet
EndChar

StartChar: bracketleft
Encoding: 91 91 58
GlifName: bracketleft
Width: 290
Flags: HMW
LayerCount: 3
Back
SplineSet
125 638 m 1
 125 -158 l 1
 265 -158 l 1
 265 -195 l 1
 65 -195 l 1
 65 675 l 1
 265 675 l 1
 265 638 l 1
 125 638 l 1
EndSplineSet
Fore
SplineSet
125 638 m 1
 125 -158 l 1
 265 -158 l 1
 265 -195 l 1
 65 -195 l 1
 65 675 l 1
 265 675 l 1
 265 638 l 1
 125 638 l 1
EndSplineSet
Layer: 2
SplineSet
98 240 m 0
 98 65 160 -85 265 -188 c 1
 245 -205 l 1
 117 -105 32 55 32 240 c 0
 32 425 117 585 245 685 c 1
 265 668 l 1
 160 565 98 415 98 240 c 0
EndSplineSet
EndChar

StartChar: bracketright
Encoding: 93 93 59
GlifName: bracketright
Width: 290
Flags: HMW
LayerCount: 3
Back
SplineSet
165 638 m 1
 25 638 l 1
 25 675 l 1
 225 675 l 1
 225 -195 l 1
 25 -195 l 1
 25 -158 l 1
 165 -158 l 1
 165 638 l 1
EndSplineSet
Fore
SplineSet
165 638 m 1
 25 638 l 1
 25 675 l 1
 225 675 l 1
 225 -195 l 1
 25 -195 l 1
 25 -158 l 1
 165 -158 l 1
 165 638 l 1
EndSplineSet
EndChar

StartChar: b
Encoding: 98 98 60
GlifName: b
Width: 495
Flags: HMW
LayerCount: 3
Back
SplineSet
154 73 m 1
 176 45 214 28 254 28 c 0
 329 28 389 82 389 185 c 0
 389 295 320 357 251 357 c 0
 214 357 177 343 154 326 c 1
 154 73 l 1
84 25 m 1
 84 621 l 1
 26 663 l 1
 26 671 l 1
 144 712 l 1
 154 712 l 1
 154 390 l 1
 152 353 l 1
 154 352 l 1
 184 382 231 412 284 412 c 0
 369 412 459 339 459 220 c 0
 459 85 354 -12 234 -12 c 0
 192 -12 129 0 84 25 c 1
EndSplineSet
Fore
SplineSet
155 73 m 1
 175 45 215 28 257 28 c 0
 330 28 389 82 389 185 c 0
 389 290 324 357 250 357 c 0
 215 357 178 343 155 326 c 1
 155 73 l 1
85 25 m 1
 85 621 l 1
 27 663 l 1
 27 671 l 1
 145 712 l 1
 155 712 l 1
 155 390 l 1
 153 353 l 1
 155 352 l 1
 185 382 232 412 285 412 c 0
 372 412 459 335 459 220 c 0
 459 85 355 -12 235 -12 c 0
 190 -12 127 2 85 25 c 1
EndSplineSet
Layer: 2
SplineSet
150 73 m 1
 172 45 210 28 250 28 c 0
 325 28 384 82 384 185 c 0
 384 295 316 357 247 357 c 0
 210 357 173 343 150 326 c 1
 150 73 l 1
80 25 m 1
 80 624 l 1
 25 664 l 1
 25 672 l 1
 140 712 l 1
 150 712 l 1
 150 390 l 1
 148 353 l 1
 150 352 l 1
 180 382 227 412 280 412 c 0
 365 412 455 339 455 220 c 0
 455 85 350 -12 230 -12 c 0
 188 -12 125 0 80 25 c 1
EndSplineSet
EndChar

StartChar: c
Encoding: 99 99 61
GlifName: c
Width: 398
Flags: HMW
AnchorPoint: "Bottom" 220 10 basechar 0
LayerCount: 3
Back
SplineSet
331 313 m 1
 303 343 267 362 225 362 c 0
 163 362 110 314 110 215 c 0
 110 109 173 49 250 49 c 0
 295 49 333 66 361 102 c 1
 377 88 l 1
 344 27 288 -11 215 -11 c 0
 117 -11 38 67 38 185 c 0
 38 310 145 411 252 411 c 4
 297 411 343 397 378 371 c 1
 333 313 l 1
 331 313 l 1
EndSplineSet
Fore
SplineSet
329 313 m 1
 301 343 266 362 225 362 c 0
 162 362 108 314 108 215 c 0
 108 111 172 49 249 49 c 0
 294 49 332 66 360 102 c 1
 376 88 l 1
 343 27 287 -11 214 -11 c 0
 116 -11 38 71 38 185 c 0
 38 310 144 411 250 411 c 0
 295 411 341 397 376 371 c 1
 331 313 l 1
 329 313 l 1
EndSplineSet
Layer: 2
SplineSet
333 313 m 1
 305 343 268 363 226 363 c 0
 164 363 110 314 110 215 c 0
 110 109 174 49 252 49 c 0
 297 49 335 66 363 102 c 1
 379 88 l 1
 346 27 290 -11 217 -11 c 0
 118 -11 38 67 38 185 c 0
 38 310 143 411 253 411 c 0
 298 411 345 397 380 371 c 1
 335 313 l 1
 333 313 l 1
-75.001953125 314 m 1
 -103.001953125 344 -141.001953125 368 -181.001953125 368 c 0
 -243.001953125 368 -296.001953125 317 -296.001953125 214 c 0
 -296.001953125 108 -233.001953125 50 -156.001953125 50 c 0
 -111.001953125 50 -73.001953125 66 -45.001953125 102 c 1
 -29.001953125 88 l 1
 -62.001953125 27 -118.001953125 -12 -191.001953125 -12 c 0
 -290.001953125 -12 -370.001953125 67 -370.001953125 185 c 0
 -370.001953125 310 -265.001953125 412 -155.001953125 412 c 0
 -110.001953125 412 -63.001953125 398 -28.001953125 372 c 1
 -73.001953125 314 l 1
 -75.001953125 314 l 1
-465.001953125 315 m 1
 -493.001953125 344 -530.001953125 367 -570.001953125 367 c 0
 -633.001953125 367 -684.001953125 317 -684.001953125 215 c 0
 -684.001953125 108 -621.001953125 50 -543.001953125 50 c 0
 -498.001953125 50 -459.001953125 67 -432.001953125 103 c 1
 -416.001953125 89 l 1
 -448.001953125 28 -505.001953125 -12 -578.001953125 -12 c 0
 -678.001953125 -12 -758.001953125 67 -758.001953125 185 c 0
 -758.001953125 310 -653.001953125 412 -543.001953125 412 c 0
 -500.001953125 412 -451.001953125 398 -419.001953125 373 c 1
 -463.001953125 315 l 1
 -465.001953125 315 l 1
-915.001953125 314 m 1
 -942.001953125 343 -979.001953125 367 -1019.00195312 368 c 0
 -1082.00195312 369 -1134.00195312 320 -1136.00195312 218 c 0
 -1138.00195312 111 -1076.00195312 51 -998.001953125 50 c 0
 -953.001953125 49 -914.001953125 65 -886.001953125 101 c 1
 -870.001953125 87 l 1
 -903.001953125 27 -961.001953125 -12 -1034.00195312 -11 c 0
 -1134.00195312 -9 -1212.00195312 71 -1210.00195312 189 c 0
 -1208.00195312 314 -1101.00195312 414 -991.001953125 412 c 0
 -948.001953125 411 -900.001953125 397 -868.001953125 371 c 1
 -913.001953125 314 l 1
 -915.001953125 314 l 1
EndSplineSet
EndChar

StartChar: d
Encoding: 100 100 62
GlifName: d
Width: 502
Flags: HMW
LayerCount: 3
Back
SplineSet
341 325 m 1
 319 352 279 371 238 371 c 0
 166 371 108 312 108 212 c 0
 108 107 170 48 243 48 c 0
 281 48 316 60 341 82 c 1
 341 325 l 1
275 663 m 1
 275 671 l 1
 401 712 l 1
 411 712 l 1
 411 53 l 1
 481 61 l 1
 481 30 l 1
 356 -10 l 1
 341 -10 l 1
 346 57 l 1
 341 57 l 1
 309 19 260 -10 208 -10 c 0
 118 -10 38 70 38 182 c 0
 38 312 144 410 254 410 c 0
 286 410 319 403 341 395 c 1
 343 396 l 1
 341 435 l 1
 341 622 l 1
 275 663 l 1
EndSplineSet
Fore
SplineSet
339 325 m 1
 317 352 277 371 236 371 c 0
 164 371 107 312 107 212 c 0
 107 108 170 47 243 47 c 0
 281 47 315 61 339 82 c 1
 339 325 l 1
272 656 m 1
 272 664 l 1
 399 712 l 1
 409 712 l 1
 409 53 l 1
 479 61 l 1
 479 30 l 1
 354 -10 l 1
 339 -10 l 1
 344 57 l 1
 339 57 l 1
 307 19 258 -9 206 -9 c 0
 114 -9 37 73 37 182 c 0
 37 312 142 410 253 410 c 0
 284 410 317 403 339 395 c 1
 341 396 l 1
 339 435 l 1
 339 618 l 1
 272 656 l 1
EndSplineSet
Layer: 2
SplineSet
351.904296875 325 m 1
 329.904296875 352 291.904296875 370 248.904296875 370 c 0
 176.904296875 370 117.904296875 315 117.904296875 215 c 0
 117.904296875 105 180.904296875 46 253.904296875 46 c 0
 291.904296875 46 326.904296875 58 351.904296875 80 c 1
 351.904296875 325 l 1
287.904296875 664 m 1
 287.904296875 672 l 1
 411.904296875 712 l 1
 421.904296875 712 l 1
 421.904296875 52 l 1
 491.904296875 61 l 1
 491.904296875 30 l 1
 366.904296875 -10 l 1
 351.904296875 -10 l 1
 356.904296875 55 l 1
 351.904296875 55 l 1
 319.904296875 17 270.904296875 -12 218.904296875 -12 c 0
 126.904296875 -12 46.904296875 68 46.904296875 180 c 0
 46.904296875 312 154.904296875 409 264.904296875 409 c 0
 296.904296875 409 326.904296875 402 351.904296875 393 c 1
 353.904296875 394 l 1
 351.904296875 435 l 1
 351.904296875 626 l 1
 287.904296875 664 l 1
EndSplineSet
EndChar

StartChar: e
Encoding: 101 101 63
GlifName: e
Width: 418
Flags: HMW
AnchorPoint: "Top" 220 500 basechar 0
LayerCount: 3
Back
SplineSet
115 280 m 1
 303 280 l 1
 303 340 271 376 223 376 c 0
 173 376 132 343 115 280 c 1
109 250 m 1
 108 240 107 227 107 215 c 0
 107 115 171 51 253 51 c 0
 300 51 338 70 362 96 c 1
 377 82 l 1
 348 33 293 -11 223 -11 c 0
 123 -11 38 67 38 195 c 0
 38 310 125 412 235 412 c 0
 318 412 378 353 378 265 c 2
 378 250 l 1
 109 250 l 1
EndSplineSet
Fore
SplineSet
115 280 m 1
 303 280 l 1
 303 340 271 376 223 376 c 0
 173 376 132 343 115 280 c 1
109 250 m 1
 108 240 107 227 107 215 c 0
 107 115 171 51 253 51 c 0
 300 51 338 70 362 96 c 1
 377 82 l 1
 348 33 293 -11 223 -11 c 0
 123 -11 38 68 38 195 c 0
 38 310 125 412 235 412 c 0
 318 412 378 353 378 265 c 2
 378 250 l 1
 109 250 l 1
EndSplineSet
EndChar

StartChar: f
Encoding: 102 102 64
GlifName: f
Width: 290
Flags: HMW
LayerCount: 3
Back
SplineSet
346 622 m 1
 324 636 294 645 271 645 c 0
 213 645 168 605 168 480 c 2
 168 400 l 1
 285 400 l 1
 280 357 l 1
 168 357 l 1
 168 34 l 1
 255 34 l 1
 255 0 l 1
 37 0 l 1
 37 34 l 1
 98 34 l 1
 98 357 l 1
 38 357 l 1
 38 378 l 1
 98 405 l 1
 98 440 l 2
 98 600 223 703 308 703 c 0
 333 703 359 695 378 681 c 1
 348 622 l 1
 346 622 l 1
EndSplineSet
Fore
SplineSet
356 622 m 1
 334 636 304 645 281 645 c 0
 220 645 168 605 168 480 c 2
 168 400 l 1
 285 400 l 1
 280 357 l 1
 168 357 l 1
 168 35 l 1
 258 35 l 1
 258 0 l 1
 35 0 l 1
 35 35 l 1
 98 35 l 1
 98 355 l 1
 32 355 l 1
 32 378 l 1
 98 408 l 1
 98 440 l 2
 98 600 230 703 318 703 c 0
 343 703 369 695 388 681 c 1
 358 622 l 1
 356 622 l 1
EndSplineSet
Layer: 2
SplineSet
371 622 m 1
 349 636 319 645 296 645 c 0
 230 645 168 605 168 480 c 2
 168 400 l 1
 285 400 l 1
 280 357 l 1
 168 357 l 1
 168 35 l 1
 258 35 l 1
 258 0 l 1
 35 0 l 1
 35 35 l 1
 98 35 l 1
 98 357 l 1
 38 357 l 1
 38 378 l 1
 98 405 l 1
 98 440 l 2
 98 600 240 703 333 703 c 0
 358 703 384 695 403 681 c 1
 373 622 l 1
 371 622 l 1
EndSplineSet
Substitution2: "'ss01' Style Set 1 in Latin lookup 0-1" f.alt
EndChar

StartChar: l
Encoding: 108 108 65
GlifName: l
Width: 260
Flags: HMW
LayerCount: 3
Back
SplineSet
36 663 m 1
 36 671 l 1
 153 712 l 1
 163 712 l 1
 163 34 l 1
 237 34 l 1
 237 0 l 1
 24 0 l 1
 24 34 l 1
 93 34 l 1
 93 621 l 1
 36 663 l 1
EndSplineSet
Fore
SplineSet
38 663 m 1
 38 671 l 1
 155 712 l 1
 165 712 l 1
 165 35 l 1
 239 35 l 1
 239 0 l 1
 23 0 l 1
 23 35 l 1
 95 35 l 1
 95 621 l 1
 38 663 l 1
EndSplineSet
Layer: 2
SplineSet
57.80859375 664 m 1
 57.80859375 672 l 1
 171.80859375 712 l 1
 181.80859375 712 l 1
 181.80859375 34 l 1
 256.80859375 34 l 1
 256.80859375 0 l 1
 41.80859375 0 l 1
 41.80859375 34 l 1
 111.80859375 34 l 1
 111.80859375 624 l 1
 57.80859375 664 l 1
EndSplineSet
EndChar

StartChar: m
Encoding: 109 109 66
GlifName: m
Width: 795
Flags: HMW
LayerCount: 3
Back
SplineSet
44 356 m 1
 44 364 l 1
 146 415 l 1
 156 415 l 1
 165 338 l 1
 166 337 l 1
 203 379 258 411 313 411 c 0
 365 411 410 383 422 329 c 1
 425 329 l 1
 462 374 520 411 578 411 c 0
 643 411 696 368 696 289 c 2
 696 34 l 1
 762 34 l 1
 762 0 l 1
 575 0 l 1
 575 34 l 1
 626 34 l 1
 626 269 l 2
 626 324 592 359 541 359 c 0
 501 359 459 334 428 299 c 0
 426 297 430 287 430 281 c 2
 430 34 l 1
 496 34 l 1
 496 0 l 1
 309 0 l 1
 309 34 l 1
 360 34 l 1
 360 269 l 2
 360 324 328 359 277 359 c 0
 239 359 198 339 166 304 c 1
 166 34 l 1
 222 34 l 1
 222 0 l 1
 35 0 l 1
 35 34 l 1
 96 34 l 1
 96 318 l 1
 44 356 l 1
EndSplineSet
Fore
SplineSet
48 356 m 1
 48 364 l 1
 150 415 l 1
 160 415 l 1
 169 338 l 1
 170 337 l 1
 207 379 262 411 317 411 c 0
 369 411 414 383 426 329 c 1
 429 329 l 1
 466 374 524 411 582 411 c 0
 647 411 700 368 700 289 c 2
 700 35 l 1
 768 35 l 1
 768 0 l 1
 574 0 l 1
 574 35 l 1
 630 35 l 1
 630 269 l 2
 630 324 596 359 545 359 c 0
 505 359 463 334 432 299 c 0
 430 297 434 287 434 281 c 2
 434 35 l 1
 500 35 l 1
 500 0 l 1
 308 0 l 1
 308 35 l 1
 364 35 l 1
 364 269 l 2
 364 324 332 359 281 359 c 0
 243 359 202 339 170 304 c 1
 170 35 l 1
 228 35 l 1
 228 0 l 1
 37 0 l 1
 37 35 l 1
 100 35 l 1
 100 318 l 1
 48 356 l 1
EndSplineSet
EndChar

StartChar: p
Encoding: 112 112 67
GlifName: p
Width: 496
Flags: HMW
LayerCount: 3
Back
SplineSet
159 350 m 1
 160 348 l 1
 191 382 237 410 288 410 c 0
 385 410 460 332 460 212 c 0
 460 87 356 -9 249 -9 c 0
 216 -9 182 -3 161 5 c 1
 159 4 l 1
 160 -40 l 1
 160 -242 l 1
 243 -242 l 1
 243 -276 l 1
 23 -276 l 1
 23 -242 l 1
 90 -242 l 1
 90 321 l 1
 38 372 l 1
 38 380 l 1
 145 416 l 1
 155 416 l 1
 159 350 l 1
160 71 m 1
 184 46 217 31 263 31 c 0
 335 31 390 85 390 185 c 0
 390 288 330 356 255 356 c 0
 221 356 186 344 160 322 c 1
 160 71 l 1
EndSplineSet
Fore
SplineSet
159 350 m 1
 160 348 l 1
 191 382 237 410 288 410 c 0
 385 410 459 330 459 212 c 0
 459 87 356 -9 248 -9 c 0
 216 -9 182 -3 161 5 c 1
 159 4 l 1
 160 -40 l 1
 160 -240 l 1
 244 -240 l 1
 244 -275 l 1
 20 -275 l 1
 20 -240 l 1
 90 -240 l 1
 90 321 l 1
 38 372 l 1
 38 380 l 1
 145 416 l 1
 155 416 l 1
 159 350 l 1
160 71 m 1
 184 46 217 31 259 31 c 0
 335 31 389 85 389 185 c 0
 389 286 330 356 254 356 c 0
 218 356 184 342 160 322 c 1
 160 71 l 1
EndSplineSet
Layer: 2
SplineSet
156 350 m 1
 157 348 l 1
 188 382 234 412 285 412 c 0
 382 412 463 334 463 212 c 0
 463 83 354 -10 247 -10 c 0
 214 -10 179 -3 158 5 c 1
 156 4 l 1
 157 -40 l 1
 157 -242 l 1
 240 -242 l 1
 240 -276 l 1
 20 -276 l 1
 20 -242 l 1
 87 -242 l 1
 87 321 l 1
 35 372 l 1
 35 380 l 1
 142 416 l 1
 152 416 l 1
 156 350 l 1
157 71 m 1
 181 46 215 30 262 30 c 0
 334 30 392 83 392 183 c 0
 392 290 327 358 252 358 c 0
 218 358 183 344 157 322 c 1
 157 71 l 1
EndSplineSet
EndChar

StartChar: q
Encoding: 113 113 68
GlifName: q
Width: 491
Flags: HMW
LayerCount: 3
Back
SplineSet
343 313 m 1
 323 346 283 370 240 370 c 0
 171 370 108 315 108 216 c 0
 108 101 182 44 254 44 c 0
 287 44 318 54 343 75 c 1
 343 313 l 1
363 390 m 1
 365 390 l 1
 393 419 l 1
 413 419 l 1
 413 -242 l 1
 485 -242 l 1
 485 -276 l 1
 257 -276 l 1
 257 -242 l 1
 343 -242 l 1
 343 10 l 1
 345 49 l 1
 343 50 l 1
 309 13 264 -11 216 -11 c 0
 124 -11 38 67 38 181 c 0
 38 307 145 412 262 412 c 0
 295 412 332 403 363 390 c 1
EndSplineSet
Fore
SplineSet
341 313 m 1
 322 346 280 370 237 370 c 0
 169 370 107 315 107 216 c 0
 107 103 180 44 254 44 c 0
 288 44 319 56 341 75 c 1
 341 313 l 1
361 390 m 1
 363 390 l 1
 391 419 l 1
 411 419 l 1
 411 -240 l 1
 484 -240 l 1
 484 -275 l 1
 254 -275 l 1
 254 -240 l 1
 341 -240 l 1
 341 10 l 1
 343 49 l 1
 341 50 l 1
 307 13 262 -11 214 -11 c 0
 120 -11 37 71 37 181 c 0
 37 307 143 412 260 412 c 0
 293 412 330 403 361 390 c 1
EndSplineSet
EndChar

StartChar: r
Encoding: 114 114 69
GlifName: r
Width: 345
Flags: HMW
LayerCount: 3
Back
SplineSet
306 328 m 2
 297 331 284 333 272 333 c 0
 235 333 200 318 170 278 c 1
 170 35 l 1
 258 35 l 1
 258 0 l 1
 33 0 l 1
 33 35 l 1
 100 35 l 1
 100 320 l 1
 45 361 l 1
 45 369 l 1
 155 415 l 1
 165 415 l 1
 165 314 l 1
 169 312 l 1
 210 368 251 412 299 412 c 0
 313 412 326 409 337 403 c 1
 307 328 l 1
 306 328 l 2
EndSplineSet
Fore
SplineSet
314 327 m 2
 305 330 292 332 280 332 c 0
 242 332 204 318 170 277 c 1
 170 35 l 1
 258 35 l 1
 258 0 l 1
 33 0 l 1
 33 35 l 1
 100 35 l 1
 100 320 l 1
 45 361 l 1
 45 369 l 1
 155 415 l 1
 165 415 l 1
 165 311 l 1
 168 309 l 1
 212 367 256 412 304 412 c 0
 318 412 331 409 342 403 c 1
 315 327 l 1
 314 327 l 2
EndSplineSet
EndChar

StartChar: s
Encoding: 115 115 70
GlifName: s
Width: 340
Flags: HMW
AnchorPoint: "Top" 173 500 basechar 0
LayerCount: 3
Back
SplineSet
158 21 m 0
 200 21 225 45 225 80 c 0
 225 110 200 138 133 182 c 0
 68 225 48 262 48 307 c 0
 48 366 103 413 173 413 c 0
 211 413 249 400 269 385 c 1
 278 290 l 1
 247 290 l 1
 243 314 l 2
 236 353 208 380 165 380 c 0
 133 380 108 361 108 332 c 0
 108 300 129 277 189 237 c 0
 260 189 290 157 290 108 c 0
 290 36 228 -13 148 -13 c 0
 113 -13 74 -3 49 14 c 1
 35 125 l 1
 66 125 l 1
 72 95 l 2
 81 50 110 21 158 21 c 0
EndSplineSet
Fore
SplineSet
164 21 m 0
 206 21 231 45 231 80 c 0
 231 110 206 138 139 182 c 0
 74 225 54 262 54 307 c 0
 54 366 109 413 179 413 c 0
 217 413 255 400 275 385 c 1
 284 290 l 1
 252 290 l 1
 248 314 l 2
 241 353 214 380 171 380 c 0
 139 380 114 361 114 332 c 0
 114 300 135 277 195 237 c 0
 266 189 296 157 296 108 c 0
 296 36 234 -13 154 -13 c 0
 119 -13 80 -3 55 14 c 1
 41 125 l 1
 73 125 l 1
 79 95 l 2
 88 50 116 21 164 21 c 0
EndSplineSet
Layer: 2
SplineSet
158 21 m 0
 200 21 225 45 225 80 c 0
 225 110 200 138 133 182 c 0
 68 225 48 262 48 307 c 0
 48 366 103 414 173 414 c 0
 211 414 249 400 269 385 c 1
 278 290 l 1
 244 290 l 1
 240 314 l 2
 233 353 208 380 165 380 c 0
 133 380 108 361 108 332 c 0
 108 300 129 277 189 237 c 0
 260 189 290 157 290 108 c 0
 290 36 228 -14 148 -14 c 0
 113 -14 74 -3 49 14 c 1
 35 125 l 1
 69 125 l 1
 75 95 l 2
 84 50 110 21 158 21 c 0
EndSplineSet
EndChar

StartChar: u
Encoding: 117 117 71
GlifName: u
Width: 517
Flags: HMW
AnchorPoint: "Top" 254 500 basechar 0
LayerCount: 3
Back
SplineSet
418 415 m 1
 418 50 l 1
 488 59 l 1
 488 28 l 1
 363 -10 l 1
 348 -10 l 1
 353 64 l 1
 348 65 l 1
 309 20 251 -12 196 -12 c 0
 131 -12 86 25 86 110 c 2
 86 328 l 1
 33 370 l 1
 33 378 l 1
 146 414 l 1
 156 414 l 1
 156 130 l 2
 156 70 186 40 236 40 c 0
 273 40 316 62 348 100 c 1
 348 328 l 1
 276 366 l 1
 276 374 l 1
 408 415 l 1
 418 415 l 1
EndSplineSet
Fore
SplineSet
422 415 m 1
 422 50 l 1
 492 59 l 1
 492 28 l 1
 367 -10 l 1
 352 -10 l 1
 357 64 l 1
 352 65 l 1
 313 20 255 -12 200 -12 c 0
 135 -12 90 25 90 110 c 2
 90 328 l 1
 37 370 l 1
 37 378 l 1
 150 414 l 1
 160 414 l 1
 160 130 l 2
 160 70 190 40 240 40 c 0
 277 40 320 62 352 100 c 1
 352 328 l 1
 280 366 l 1
 280 374 l 1
 412 415 l 1
 422 415 l 1
EndSplineSet
EndChar

StartChar: v
Encoding: 118 118 72
GlifName: v
Width: 442
Flags: HMW
LayerCount: 3
Back
SplineSet
129 366 m 1
 235 95 l 1
 237 95 l 1
 335 325 l 1
 344 366 l 1
 286 366 l 1
 286 400 l 1
 445 400 l 1
 445 366 l 1
 395 366 l 1
 226 -16 l 1
 206 -16 l 1
 52 366 l 1
 4 366 l 1
 4 400 l 1
 183 400 l 1
 183 366 l 1
 129 366 l 1
EndSplineSet
Fore
SplineSet
129 365 m 1
 235 95 l 1
 237 95 l 1
 335 324 l 1
 344 365 l 1
 286 365 l 1
 286 400 l 1
 445 400 l 1
 445 365 l 1
 395 365 l 1
 226 -16 l 1
 206 -16 l 1
 52 365 l 1
 4 365 l 1
 4 400 l 1
 183 400 l 1
 183 365 l 1
 129 365 l 1
EndSplineSet
EndChar

StartChar: w
Encoding: 119 119 73
GlifName: w
Width: 655
Flags: HMW
LayerCount: 3
Back
SplineSet
281 366 m 1
 132 366 l 1
 235 93 l 1
 235 88 l 1
 319 269 l 1
 281 366 l 1
4 400 m 1
 408 400 l 1
 408 366 l 1
 357 366 l 1
 457 99 l 1
 457 94 l 1
 549 326 l 1
 558 366 l 1
 504 366 l 1
 504 400 l 1
 655 400 l 1
 655 366 l 1
 608 366 l 1
 449 -16 l 1
 429 -16 l 1
 338 223 l 1
 336 223 l 1
 224 -16 l 1
 204 -16 l 1
 55 366 l 1
 4 366 l 1
 4 400 l 1
EndSplineSet
Fore
SplineSet
281 365 m 1
 132 365 l 1
 235 93 l 1
 235 88 l 1
 319 269 l 1
 281 365 l 1
4 400 m 1
 408 400 l 1
 408 365 l 1
 357 365 l 1
 457 99 l 1
 457 94 l 1
 549 325 l 1
 558 365 l 1
 504 365 l 1
 504 400 l 1
 655 400 l 1
 655 365 l 1
 608 365 l 1
 449 -16 l 1
 429 -16 l 1
 338 223 l 1
 336 223 l 1
 224 -16 l 1
 204 -16 l 1
 55 365 l 1
 4 365 l 1
 4 400 l 1
EndSplineSet
Substitution2: "'ss01' Style Set 1 in Latin lookup 0-1" w.alt
EndChar

StartChar: x
Encoding: 120 120 74
GlifName: x
Width: 452
Flags: HMW
LayerCount: 3
Back
SplineSet
185 196 m 1
 58 366 l 1
 16 366 l 1
 16 400 l 1
 184 400 l 1
 184 366 l 1
 145 366 l 1
 234 247 l 1
 236 247 l 1
 315 341 l 1
 325 366 l 1
 282 366 l 1
 282 400 l 1
 429 400 l 1
 429 366 l 1
 384 366 l 1
 257 217 l 1
 395 34 l 1
 441 34 l 1
 441 0 l 1
 266 0 l 1
 266 34 l 1
 307 34 l 1
 209 165 l 1
 207 165 l 1
 119 61 l 1
 109 34 l 1
 157 34 l 1
 157 0 l 1
 6 0 l 1
 6 34 l 1
 49 34 l 1
 185 196 l 1
EndSplineSet
Fore
SplineSet
190 196 m 1
 63 366 l 1
 15 366 l 1
 15 400 l 1
 196 400 l 1
 196 366 l 1
 150 366 l 1
 239 247 l 1
 241 247 l 1
 320 341 l 1
 330 366 l 1
 281 366 l 1
 281 400 l 1
 439 400 l 1
 439 366 l 1
 389 366 l 1
 262 217 l 1
 399 35 l 1
 451 35 l 1
 451 0 l 1
 266 0 l 1
 266 35 l 1
 311 35 l 1
 214 165 l 1
 212 165 l 1
 125 62 l 1
 115 35 l 1
 167 35 l 1
 167 0 l 1
 5 0 l 1
 5 35 l 1
 55 35 l 1
 190 196 l 1
EndSplineSet
EndChar

StartChar: y
Encoding: 121 121 75
GlifName: y
Width: 445
Flags: HMW
AnchorPoint: "Top" 229 500 basechar 0
LayerCount: 3
Back
SplineSet
156 -178 m 2
 126 -246 91 -278 56 -278 c 1
 32 -212 l 1
 32 -209 l 1
 89 -202 119 -179 139 -131 c 2
 198 8 l 1
 54 366 l 1
 2 366 l 1
 2 400 l 1
 188 400 l 1
 188 366 l 1
 130 366 l 1
 237 98 l 1
 239 98 l 1
 335 325 l 1
 344 366 l 1
 286 366 l 1
 286 400 l 1
 449 400 l 1
 449 366 l 1
 395 366 l 1
 156 -178 l 2
EndSplineSet
Fore
SplineSet
156 -178 m 2
 126 -246 91 -278 56 -278 c 1
 32 -212 l 1
 32 -209 l 1
 89 -202 119 -179 139 -131 c 2
 198 8 l 1
 54 365 l 1
 2 365 l 1
 2 400 l 1
 188 400 l 1
 188 365 l 1
 130 365 l 1
 237 98 l 1
 239 98 l 1
 335 324 l 1
 344 365 l 1
 286 365 l 1
 286 400 l 1
 449 400 l 1
 449 365 l 1
 395 365 l 1
 156 -178 l 2
EndSplineSet
EndChar

StartChar: z
Encoding: 122 122 76
GlifName: z
Width: 418
Flags: HMW
AnchorPoint: "Top" 219 500 basechar 0
LayerCount: 3
Back
SplineSet
65 426 m 1
 94 426 l 1
 94 400 l 1
 372 400 l 1
 372 370 l 1
 128 34 l 1
 282 34 l 2
 322 34 341 50 357 119 c 2
 362 140 l 1
 391 140 l 1
 364 0 l 1
 38 0 l 1
 38 30 l 1
 283 367 l 1
 139 367 l 2
 101 367 89 360 78 305 c 2
 74 285 l 1
 45 285 l 1
 65 426 l 1
EndSplineSet
Fore
SplineSet
65 426 m 1
 94 426 l 1
 94 400 l 1
 372 400 l 1
 372 370 l 1
 128 34 l 1
 282 34 l 2
 322 34 341 50 357 119 c 2
 362 140 l 1
 391 140 l 1
 364 0 l 1
 38 0 l 1
 38 30 l 1
 283 367 l 1
 139 367 l 2
 101 367 89 360 78 305 c 2
 74 285 l 1
 45 285 l 1
 65 426 l 1
EndSplineSet
EndChar

StartChar: germandbls
Encoding: 223 223 77
GlifName: germandbls
Width: 508
Flags: HMW
LayerCount: 3
Back
SplineSet
383 555 m 0
 383 605 343 650 288 650 c 0
 218 650 168 604 168 480 c 2
 168 34 l 1
 213 34 l 1
 213 0 l 1
 36 0 l 1
 36 34 l 1
 98 34 l 1
 98 357 l 1
 39 357 l 1
 39 378 l 1
 98 405 l 1
 98 435 l 2
 98 595 213 695 308 695 c 0
 378 695 443 640 443 570 c 0
 443 515 417 480 367 435 c 0
 332 404 313 385 313 355 c 0
 313 322 342 300 398 255 c 0
 470 198 495 165 495 115 c 0
 495 43 433 -13 353 -13 c 0
 318 -13 279 -3 254 14 c 1
 244 105 l 1
 275 105 l 1
 277 93 l 2
 285 45 315 20 363 20 c 0
 405 20 430 48 430 85 c 0
 430 120 410 145 338 200 c 0
 276 247 248 280 248 325 c 0
 248 370 279 393 338 451 c 0
 373 486 383 515 383 555 c 0
EndSplineSet
Fore
SplineSet
383 555 m 0
 383 605 343 650 288 650 c 0
 218 650 168 604 168 480 c 2
 168 35 l 1
 215 35 l 1
 215 0 l 1
 34 0 l 1
 34 35 l 1
 98 35 l 1
 98 355 l 1
 32 355 l 1
 32 378 l 1
 98 408 l 1
 98 435 l 2
 98 595 213 695 308 695 c 0
 378 695 443 640 443 570 c 0
 443 515 417 480 367 435 c 0
 332 404 313 385 313 355 c 0
 313 322 342 300 398 255 c 0
 470 198 495 165 495 115 c 0
 495 43 433 -13 353 -13 c 0
 318 -13 279 -3 254 14 c 1
 244 105 l 1
 275 105 l 1
 277 93 l 2
 285 45 315 20 363 20 c 0
 405 20 430 48 430 85 c 0
 430 120 410 145 338 200 c 0
 276 247 248 280 248 325 c 0
 248 370 279 393 338 451 c 0
 373 486 383 515 383 555 c 0
EndSplineSet
EndChar

StartChar: ae
Encoding: 230 230 78
GlifName: ae
Width: 608
Flags: HMW
LayerCount: 3
Back
SplineSet
321 239 m 1
 497 282 l 1
 497 340 465 376 420 376 c 0
 360 376 325 322 321 239 c 1
256 110 m 1
 253 122 250 142 250 160 c 2
 250 192 l 1
 208 181 l 2
 125 159 104 129 104 94 c 0
 104 61 128 42 155 42 c 0
 190 42 229 68 256 110 c 1
269 88 m 1
 222 21 174 -11 120 -11 c 0
 75 -11 34 24 34 76 c 0
 34 126 64 170 189 205 c 2
 250 222 l 1
 250 288 l 2
 250 343 215 371 170 371 c 0
 160 371 140 368 130 363 c 1
 125 315 l 1
 49 293 l 1
 49 295 l 2
 49 345 120 413 200 413 c 0
 247 413 288 390 307 350 c 1
 310 350 l 1
 332 385 385 412 432 412 c 0
 516 412 573 358 573 277 c 2
 573 270 l 1
 320 209 l 1
 323 110 372 51 450 51 c 0
 500 51 534 70 557 100 c 1
 573 87 l 1
 543 30 490 -11 415 -11 c 0
 353 -11 300 28 272 88 c 1
 269 88 l 1
EndSplineSet
Fore
SplineSet
321 239 m 1
 497 282 l 1
 497 340 465 376 420 376 c 0
 360 376 325 322 321 239 c 1
256 110 m 1
 253 122 250 142 250 160 c 2
 250 192 l 1
 208 181 l 2
 125 159 104 129 104 94 c 0
 104 61 128 42 155 42 c 0
 190 42 229 68 256 110 c 1
269 88 m 1
 222 21 174 -11 120 -11 c 0
 75 -11 34 24 34 76 c 0
 34 126 64 170 189 205 c 2
 250 222 l 1
 250 288 l 2
 250 343 215 371 170 371 c 0
 160 371 140 368 130 363 c 1
 125 315 l 1
 49 293 l 1
 49 295 l 2
 49 345 120 413 200 413 c 0
 247 413 288 390 307 350 c 1
 310 350 l 1
 332 385 385 412 432 412 c 0
 516 412 573 358 573 277 c 2
 573 270 l 1
 320 209 l 1
 323 110 370 51 450 51 c 0
 500 51 534 70 557 100 c 1
 573 87 l 1
 543 30 490 -11 415 -11 c 0
 353 -11 300 29 272 88 c 1
 269 88 l 1
EndSplineSet
EndChar

StartChar: eth
Encoding: 240 240 79
GlifName: eth
Width: 483
Flags: HMW
LayerCount: 3
Back
SplineSet
34 192 m 0
 34 311 123 404 243 404 c 0
 273 404 313 395 337 380 c 1
 339 382 l 1
 321 446 288 508 250 556 c 1
 141 502 l 1
 126 534 l 1
 227 583 l 1
 227 584 l 1
 186 628 139 663 86 690 c 1
 101 710 l 1
 166 686 225 650 275 606 c 1
 381 658 l 1
 396 627 l 1
 302 581 l 1
 302 580 l 1
 388 492 441 373 441 245 c 0
 441 84 349 -12 231 -12 c 0
 112 -12 34 73 34 192 c 0
364 212 m 0
 364 247 361 285 354 312 c 1
 331 343 288 364 240 364 c 0
 168 364 114 297 114 205 c 0
 114 94 167 25 245 25 c 0
 317 25 364 100 364 212 c 0
EndSplineSet
Fore
SplineSet
34 192 m 0
 34 311 123 404 243 404 c 0
 273 404 313 395 337 380 c 1
 339 382 l 1
 321 446 288 508 250 556 c 1
 141 502 l 1
 126 534 l 1
 227 583 l 1
 227 584 l 1
 186 628 139 663 86 690 c 1
 101 710 l 1
 166 686 225 650 275 606 c 1
 381 658 l 1
 396 627 l 1
 302 581 l 1
 302 580 l 1
 388 492 441 373 441 245 c 0
 441 84 349 -12 231 -12 c 0
 112 -12 34 73 34 192 c 0
364 212 m 0
 364 247 361 285 354 312 c 1
 331 343 288 364 240 364 c 0
 168 364 114 297 114 205 c 0
 114 94 167 25 245 25 c 0
 317 25 364 100 364 212 c 0
EndSplineSet
Layer: 2
SplineSet
32 195 m 0
 32 315 119 409 239 409 c 0
 269 409 309 400 332 386 c 1
 334 388 l 1
 315 452 285 508 247 556 c 1
 138 502 l 1
 123 534 l 1
 224 583 l 1
 224 584 l 1
 183 628 136 663 83 690 c 1
 98 710 l 1
 163 686 222 650 272 606 c 1
 378 658 l 1
 393 627 l 1
 299 581 l 1
 299 580 l 1
 385 492 438 373 438 235 c 0
 438 82 346 -12 228 -12 c 0
 109 -12 32 75 32 195 c 0
361 210 m 0
 361 245 357 294 349 323 c 1
 323 353 277 369 236 369 c 0
 164 369 110 301 110 208 c 0
 110 95 162 25 240 25 c 0
 313 25 361 100 361 210 c 0
EndSplineSet
EndChar

StartChar: oslash
Encoding: 248 248 80
GlifName: oslash
Width: 496
Flags: HMW
LayerCount: 3
Back
SplineSet
41 -9 m 1
 424 432 l 1
 451 408 l 1
 68 -33 l 1
 41 -9 l 1
-434 -9 m 1
 -41 432 l 1
 -14 408 l 1
 -407 -33 l 1
 -434 -9 l 1
34 200 m 0
 34 321 127 414 248 414 c 0
 369 414 462 321 462 200 c 0
 462 79 369 -14 248 -14 c 0
 127 -14 34 79 34 200 c 0
116 210 m 0
 116 110 176 21 256 21 c 0
 330 21 380 92 380 190 c 0
 380 290 320 380 241 380 c 0
 166 380 116 308 116 210 c 0
EndSplineSet
Fore
SplineSet
41 -9 m 1
 424 432 l 1
 451 408 l 1
 68 -33 l 1
 41 -9 l 1
34 200 m 0
 34 321 127 414 248 414 c 0
 369 414 462 321 462 200 c 0
 462 79 369 -14 248 -14 c 0
 127 -14 34 79 34 200 c 0
116 210 m 0
 116 110 176 21 256 21 c 0
 330 21 380 92 380 190 c 0
 380 290 320 380 241 380 c 0
 166 380 116 308 116 210 c 0
EndSplineSet
Layer: 2
SplineSet
-355 107 m 1
 -353 107 l 1
 -156 326 l 1
 -180 358 -214 379 -252 379 c 0
 -327 379 -376 308 -376 210 c 0
 -376 173 -368 137 -355 107 c 1
-334 74 m 1
 -309 42 -275 22 -237 22 c 0
 -163 22 -114 92 -114 190 c 0
 -114 227 -122 264 -135 294 c 1
 -137 294 l 1
 -334 74 l 1
-458 200 m 0
 -458 321 -366 413 -245 413 c 0
 -196 413 -151 397 -116 371 c 1
 -62 431 l 1
 -35 407 l 1
 -89 347 l 1
 -54 309 -32 258 -32 200 c 0
 -32 79 -124 -13 -245 -13 c 0
 -294 -13 -340 3 -375 29 c 1
 -430 -33 l 1
 -457 -9 l 1
 -401 53 l 1
 -436 91 -458 142 -458 200 c 0
35 -9 m 1
 430 431 l 1
 457 407 l 1
 62 -33 l 1
 35 -9 l 1
34 200 m 0
 34 321 126 413 247 413 c 0
 368 413 460 321 460 200 c 0
 460 79 368 -13 247 -13 c 0
 126 -13 34 79 34 200 c 0
116 210 m 0
 116 110 175 22 255 22 c 0
 329 22 378 92 378 190 c 0
 378 290 319 379 240 379 c 0
 165 379 116 308 116 210 c 0
EndSplineSet
EndChar

StartChar: thorn
Encoding: 254 254 81
GlifName: thorn
Width: 489
Flags: HMW
LayerCount: 3
Back
SplineSet
149 352 m 1
 150 350 l 1
 182 385 230 411 280 411 c 0
 380 411 455 326 455 212 c 0
 455 82 350 -10 240 -10 c 0
 212 -10 176 -5 151 6 c 1
 149 5 l 1
 150 -35 l 1
 150 -242 l 1
 228 -242 l 1
 228 -276 l 1
 13 -276 l 1
 13 -242 l 1
 80 -242 l 1
 80 621 l 1
 22 666 l 1
 22 674 l 1
 140 712 l 1
 150 712 l 1
 150 390 l 1
 149 352 l 1
150 73 m 1
 175 45 210 30 255 30 c 0
 327 30 381 87 381 185 c 0
 381 290 325 358 250 358 c 0
 211 358 174 344 150 324 c 1
 150 73 l 1
EndSplineSet
Fore
SplineSet
149 352 m 1
 150 350 l 1
 182 385 230 411 280 411 c 0
 380 411 452 325 452 212 c 0
 452 85 345 -10 240 -10 c 0
 212 -10 176 -5 151 6 c 1
 149 5 l 1
 150 -35 l 1
 150 -241 l 1
 232 -241 l 1
 232 -276 l 1
 12 -276 l 1
 12 -241 l 1
 80 -241 l 1
 80 621 l 1
 22 666 l 1
 22 674 l 1
 140 712 l 1
 150 712 l 1
 150 390 l 1
 149 352 l 1
150 74 m 1
 175 46 210 30 252 30 c 0
 327 30 381 88 381 185 c 0
 381 288 325 358 250 358 c 0
 211 358 174 344 150 324 c 1
 150 74 l 1
EndSplineSet
Layer: 2
SplineSet
149 350 m 1
 150 348 l 1
 181 382 227 410 278 410 c 0
 375 410 449 330 449 212 c 0
 449 87 346 -9 239 -9 c 0
 206 -9 172 -3 151 5 c 1
 149 4 l 1
 150 -40 l 1
 150 -242 l 1
 234 -242 l 1
 234 -277 l 1
 10 -277 l 1
 10 -242 l 1
 80 -242 l 1
 80 321 l 1
 28 372 l 1
 28 380 l 1
 135 416 l 1
 145 416 l 1
 149 350 l 1
150 71 m 1
 174 46 207 31 249 31 c 0
 325 31 379 85 379 185 c 0
 379 287 320 356 244 356 c 0
 208 356 174 342 150 322 c 1
 150 71 l 1
EndSplineSet
EndChar

StartChar: quoteleft
Encoding: 8216 8216 82
GlifName: quoteleft
Width: 190
Flags: HMW
LayerCount: 3
Back
SplineSet
147 499 m 1
 132 426 l 1
 131 426 l 1
 73 430 29 466 29 528 c 0
 29 583 72 641 143 668 c 1
 153 645 l 1
 111 625 87 592 87 559 c 0
 87 525 111 505 147 499 c 1
EndSplineSet
Fore
SplineSet
147 489 m 1
 132 416 l 1
 131 416 l 1
 73 420 29 456 29 518 c 0
 29 573 72 632 143 659 c 1
 153 635 l 1
 111 615 87 582 87 549 c 0
 87 515 111 495 147 489 c 1
EndSplineSet
EndChar

StartChar: quoteright
Encoding: 8217 8217 83
GlifName: quoteright
Width: 190
Flags: HMW
LayerCount: 3
Back
SplineSet
41 581 m 1
 56 654 l 1
 57 654 l 1
 115 650 159 614 159 552 c 0
 159 497 116 439 45 412 c 1
 35 435 l 1
 77 455 101 488 101 521 c 0
 101 555 77 575 41 581 c 1
EndSplineSet
Fore
SplineSet
41 571 m 1
 56 644 l 1
 57 644 l 1
 115 640 159 604 159 542 c 0
 159 487 116 428 45 401 c 1
 35 425 l 1
 77 445 101 478 101 511 c 0
 101 545 77 565 41 571 c 1
EndSplineSet
EndChar

StartChar: quotedblleft
Encoding: 8220 8220 84
GlifName: quotedblleft
Width: 348
Flags: HMW
LayerCount: 3
Back
SplineSet
306 499 m 1
 290 426 l 1
 289 426 l 1
 232 431 190 466 190 528 c 0
 190 583 232 641 303 668 c 1
 313 645 l 1
 271 625 247 592 247 559 c 0
 247 526 270 505 306 499 c 1
146 499 m 1
 130 426 l 1
 129 426 l 1
 72 431 30 466 30 528 c 0
 30 583 72 641 143 668 c 1
 153 645 l 1
 111 625 87 592 87 559 c 0
 87 526 110 505 146 499 c 1
EndSplineSet
Fore
SplineSet
306 489 m 1
 290 416 l 1
 289 416 l 1
 232 421 190 456 190 518 c 0
 190 573 232 632 303 659 c 1
 313 635 l 1
 271 615 247 582 247 549 c 0
 247 516 270 495 306 489 c 1
146 489 m 1
 130 416 l 1
 129 416 l 1
 72 421 30 456 30 518 c 0
 30 573 72 632 143 659 c 1
 153 635 l 1
 111 615 87 582 87 549 c 0
 87 516 110 495 146 489 c 1
EndSplineSet
EndChar

StartChar: quotedblright
Encoding: 8221 8221 85
GlifName: quotedblright
Width: 348
Flags: HMW
LayerCount: 3
Back
SplineSet
42 581 m 1
 58 654 l 1
 59 654 l 1
 116 649 158 614 158 552 c 0
 158 497 116 439 45 412 c 1
 35 435 l 1
 77 455 101 488 101 521 c 0
 101 554 78 575 42 581 c 1
202 581 m 1
 218 654 l 1
 219 654 l 1
 276 649 318 614 318 552 c 0
 318 497 276 439 205 412 c 1
 195 435 l 1
 237 455 261 488 261 521 c 0
 261 554 238 575 202 581 c 1
EndSplineSet
Fore
SplineSet
42 571 m 1
 58 644 l 1
 59 644 l 1
 116 639 158 604 158 542 c 0
 158 487 116 428 45 401 c 1
 35 425 l 1
 77 445 101 478 101 511 c 0
 101 544 78 565 42 571 c 1
202 571 m 1
 218 644 l 1
 219 644 l 1
 276 639 318 604 318 542 c 0
 318 487 276 428 205 401 c 1
 195 425 l 1
 237 445 261 478 261 511 c 0
 261 544 238 565 202 571 c 1
EndSplineSet
EndChar

StartChar: kgreenlandic
Encoding: 312 312 87
GlifName: kgreenlandic
Width: 483
Flags: HMW
LayerCount: 3
Fore
SplineSet
450 400 m 1
 450 365 l 1
 396 365 l 1
 250 240 l 1
 436 35 l 1
 481 35 l 1
 481 0 l 1
 297 0 l 1
 297 35 l 1
 347 35 l 1
 324 60 l 1
 180 220 l 1
 330 355 l 1
 333 365 l 1
 278 365 l 1
 278 400 l 1
 450 400 l 1
47 363 m 1
 47 371 l 1
 160 417 l 1
 170 417 l 1
 170 35 l 1
 229 35 l 1
 229 0 l 1
 33 0 l 1
 33 35 l 1
 100 35 l 1
 100 322 l 1
 47 363 l 1
EndSplineSet
EndChar

StartChar: oe
Encoding: 339 339 88
GlifName: oe
Width: 762
Flags: HMW
LayerCount: 3
Back
SplineSet
460 280 m 1
 647 280 l 1
 647 340 615 376 567 376 c 0
 519 376 475 343 460 280 c 1
116 210 m 0
 116 110 175 23 255 23 c 0
 329 23 377 92 377 190 c 0
 377 290 319 378 240 378 c 0
 165 378 116 308 116 210 c 0
34 200 m 0
 34 318 129 412 247 412 c 0
 322 412 382 375 417 316 c 1
 420 316 l 1
 452 375 513 412 579 412 c 0
 665 412 722 350 722 265 c 2
 722 250 l 1
 454 250 l 1
 453 242 452 227 452 215 c 0
 452 115 517 51 597 51 c 0
 647 51 682 71 706 100 c 1
 722 87 l 1
 692 30 632 -11 564 -11 c 0
 502 -11 444 22 415 77 c 1
 412 77 l 1
 377 20 315 -12 247 -12 c 0
 129 -12 34 82 34 200 c 0
EndSplineSet
Fore
SplineSet
460 280 m 1
 647 280 l 1
 647 340 615 376 567 376 c 0
 519 376 475 343 460 280 c 1
116 210 m 0
 116 110 175 23 255 23 c 0
 329 23 377 92 377 190 c 0
 377 290 319 378 240 378 c 0
 165 378 116 308 116 210 c 0
34 200 m 0
 34 318 129 412 247 412 c 0
 322 412 382 375 417 316 c 1
 420 316 l 1
 452 375 513 412 579 412 c 0
 665 412 722 350 722 265 c 2
 722 250 l 1
 454 250 l 1
 453 242 452 227 452 215 c 0
 452 115 517 51 597 51 c 0
 647 51 682 71 706 100 c 1
 722 87 l 1
 692 30 632 -11 564 -11 c 0
 502 -11 444 22 415 79 c 1
 412 79 l 1
 377 20 315 -12 247 -12 c 0
 129 -12 34 82 34 200 c 0
EndSplineSet
Layer: 2
SplineSet
28 200 m 0
 28 321 120 413 241 413 c 0
 362 413 454 321 454 200 c 0
 454 79 362 -13 241 -13 c 0
 120 -13 28 79 28 200 c 0
110 210 m 0
 110 110 169 22 249 22 c 0
 323 22 372 92 372 190 c 0
 372 290 313 379 234 379 c 0
 159 379 110 308 110 210 c 0
452 280 m 1
 640 280 l 1
 640 340 608 376 560 376 c 0
 510 376 469 343 452 280 c 1
446 250 m 1
 445 240 444 227 444 215 c 0
 444 115 509 52 590 52 c 0
 637 52 675 70 699 96 c 1
 714 82 l 1
 685 33 630 -12 560 -12 c 0
 460 -12 375 67 375 195 c 0
 375 310 461 412 572 412 c 0
 655 412 715 353 715 265 c 2
 715 250 l 1
 446 250 l 1
EndSplineSet
EndChar

StartChar: dotlessi
Encoding: 305 305 89
GlifName: dotlessi
Width: 265
Flags: HMW
AnchorPoint: "Top" 133 500 basechar 0
LayerCount: 3
Back
SplineSet
45 361 m 1
 45 369 l 1
 159 417 l 1
 169 417 l 1
 169 34 l 1
 244 34 l 1
 244 0 l 1
 28 0 l 1
 28 34 l 1
 99 34 l 1
 99 316 l 1
 45 361 l 1
EndSplineSet
Fore
SplineSet
46 361 m 1
 46 369 l 1
 160 417 l 1
 170 417 l 1
 170 35 l 1
 245 35 l 1
 245 0 l 1
 27 0 l 1
 27 35 l 1
 100 35 l 1
 100 316 l 1
 46 361 l 1
EndSplineSet
Layer: 2
SplineSet
37 359 m 1
 37 367 l 1
 152 415 l 1
 162 415 l 1
 162 32 l 1
 234 32 l 1
 234 0 l 1
 24 0 l 1
 24 32 l 1
 92 32 l 1
 92 314 l 1
 37 359 l 1
EndSplineSet
EndChar

StartChar: f.alt
Encoding: 65541 -1 90
GlifName: f.alt
Width: 277
Flags: HMW
LayerCount: 3
Back
SplineSet
249 626 m 1
 239 630 224 632 216 632 c 0
 184 632 168 612 168 526 c 2
 168 400 l 1
 273 400 l 1
 268 357 l 1
 168 357 l 1
 168 35 l 1
 253 35 l 1
 253 0 l 1
 35 0 l 1
 35 35 l 1
 98 35 l 1
 98 355 l 1
 32 355 l 1
 32 378 l 1
 98 408 l 1
 98 455 l 2
 98 605 193 703 255 703 c 0
 260 703 270 702 275 700 c 1
 289 695 l 1
 265 621 l 1
 251 626 l 1
 249 626 l 1
EndSplineSet
Fore
SplineSet
285 698 m 1
 278 701 265 703 255 703 c 0
 193 703 98 605 98 455 c 2
 98 408 l 1
 32 378 l 1
 32 355 l 1
 98 355 l 1
 98 35 l 1
 35 35 l 1
 35 0 l 1
 253 0 l 1
 253 35 l 1
 168 35 l 1
 168 357 l 1
 268 357 l 1
 273 400 l 1
 168 400 l 1
 168 526 l 2
 168 612 184 632 217 632 c 0
 230 632 250 627 262 622 c 1
 264 622 l 1
 285 698 l 1
EndSplineSet
EndChar

StartChar: w.alt
Encoding: 65545 -1 91
GlifName: w.alt
Width: 680
Flags: HMW
LayerCount: 3
Back
SplineSet
365 366 m 1
 465 96 l 1
 467 96 l 1
 561 324 l 1
 570 366 l 1
 517 366 l 1
 517 400 l 1
 664 400 l 1
 664 366 l 1
 621 366 l 1
 457 -16 l 1
 437 -16 l 1
 334 250 l 1
 332 250 l 1
 217 -16 l 1
 197 -16 l 1
 48 366 l 1
 2 366 l 1
 2 400 l 1
 169 400 l 1
 169 366 l 1
 125 366 l 1
 225 97 l 1
 227 97 l 1
 315 300 l 1
 288 366 l 1
 249 366 l 1
 249 400 l 1
 417 400 l 1
 417 366 l 1
 365 366 l 1
EndSplineSet
Fore
SplineSet
377 365 m 1
 477 96 l 1
 479 96 l 1
 573 323 l 1
 582 365 l 1
 527 365 l 1
 527 400 l 1
 682 400 l 1
 682 365 l 1
 633 365 l 1
 469 -16 l 1
 449 -16 l 1
 344 255 l 1
 342 255 l 1
 224 -16 l 1
 204 -16 l 1
 55 365 l 1
 4 365 l 1
 4 400 l 1
 180 400 l 1
 180 365 l 1
 132 365 l 1
 232 97 l 1
 234 97 l 1
 325 305 l 1
 300 365 l 1
 255 365 l 1
 255 400 l 1
 431 400 l 1
 431 365 l 1
 377 365 l 1
EndSplineSet
Layer: 2
SplineSet
372 365 m 1
 472 96 l 1
 474 96 l 1
 568 323 l 1
 577 365 l 1
 522 365 l 1
 522 400 l 1
 677 400 l 1
 677 365 l 1
 628 365 l 1
 464 -16 l 1
 444 -16 l 1
 341 250 l 1
 339 250 l 1
 224 -16 l 1
 204 -16 l 1
 55 365 l 1
 4 365 l 1
 4 400 l 1
 180 400 l 1
 180 365 l 1
 132 365 l 1
 232 97 l 1
 234 97 l 1
 322 300 l 1
 295 365 l 1
 250 365 l 1
 250 400 l 1
 426 400 l 1
 426 365 l 1
 372 365 l 1
EndSplineSet
EndChar

StartChar: plus
Encoding: 43 43 92
Width: 480
Flags: HMW
LayerCount: 3
Back
SplineSet
217 243 m 1
 217 430 l 1
 263 430 l 1
 263 243 l 1
 450 243 l 1
 450 197 l 1
 263 197 l 1
 263 5 l 1
 217 5 l 1
 217 197 l 1
 30 197 l 1
 30 243 l 1
 217 243 l 1
EndSplineSet
Fore
SplineSet
216 244 m 1
 216 430 l 1
 264 430 l 1
 264 244 l 1
 450 244 l 1
 450 196 l 1
 264 196 l 1
 264 5 l 1
 216 5 l 1
 216 196 l 1
 30 196 l 1
 30 244 l 1
 216 244 l 1
EndSplineSet
EndChar

StartChar: slash
Encoding: 47 47 93
Width: 310
Flags: HMW
LayerCount: 3
Back
SplineSet
274 660 m 1
 320 660 l 1
 36 -100 l 1
 -10 -100 l 1
 274 660 l 1
EndSplineSet
Fore
SplineSet
274 660 m 1
 320 660 l 1
 36 -100 l 1
 -10 -100 l 1
 274 660 l 1
EndSplineSet
EndChar

StartChar: numbersign
Encoding: 35 35 94
Width: 480
Flags: HMW
LayerCount: 3
Back
SplineSet
145 149 m 1
 305 149 l 1
 335 311 l 1
 175 311 l 1
 145 149 l 1
40 311 m 1
 40 355 l 1
 143 355 l 1
 180 560 l 1
 220 560 l 1
 183 355 l 1
 343 355 l 1
 380 560 l 1
 420 560 l 1
 383 355 l 1
 465 355 l 1
 465 311 l 1
 375 311 l 1
 345 149 l 1
 440 149 l 1
 440 105 l 1
 337 105 l 1
 300 -100 l 1
 260 -100 l 1
 297 105 l 1
 137 105 l 1
 100 -100 l 1
 60 -100 l 1
 97 105 l 1
 15 105 l 1
 15 149 l 1
 105 149 l 1
 135 311 l 1
 40 311 l 1
EndSplineSet
Fore
SplineSet
145 149 m 1
 305 149 l 1
 335 311 l 1
 175 311 l 1
 145 149 l 1
30 311 m 1
 30 355 l 1
 143 355 l 1
 180 560 l 1
 220 560 l 1
 183 355 l 1
 343 355 l 1
 380 560 l 1
 420 560 l 1
 383 355 l 1
 475 355 l 1
 475 311 l 1
 375 311 l 1
 345 149 l 1
 450 149 l 1
 450 105 l 1
 337 105 l 1
 300 -100 l 1
 260 -100 l 1
 297 105 l 1
 137 105 l 1
 100 -100 l 1
 60 -100 l 1
 97 105 l 1
 5 105 l 1
 5 149 l 1
 105 149 l 1
 135 311 l 1
 30 311 l 1
EndSplineSet
EndChar

StartChar: dollar
Encoding: 36 36 95
Width: 430
Flags: HMW
LayerCount: 3
Back
SplineSet
234 270 m 1
 232 270 l 1
 232 32 l 1
 293 41 323 86 323 135 c 0
 323 192 290 228 234 270 c 1
190 400 m 1
 192 400 l 1
 192 609 l 1
 142 602 110 568 110 523 c 0
 110 473 135 442 190 400 c 1
192 32 m 1
 192 294 l 1
 76 374 40 418 40 493 c 0
 40 564 100 632 192 643 c 1
 192 700 l 1
 232 700 l 1
 232 645 l 1
 283 643 330 628 362 605 c 1
 370 493 l 1
 341 493 l 1
 340 499 l 2
 330 560 294 602 232 610 c 1
 232 376 l 1
 360 288 400 244 400 167 c 0
 400 83 333 10 232 -3 c 1
 232 -60 l 1
 192 -60 l 1
 192 -5 l 1
 142 -4 89 10 51 37 c 1
 33 165 l 1
 62 165 l 1
 65 153 l 2
 83 80 124 38 192 32 c 1
EndSplineSet
Fore
SplineSet
234 260 m 1
 232 260 l 1
 232 22 l 1
 293 31 323 76 323 125 c 0
 323 182 290 218 234 260 c 1
190 390 m 1
 192 390 l 1
 192 599 l 1
 142 592 110 558 110 513 c 0
 110 463 135 432 190 390 c 1
192 22 m 1
 192 284 l 1
 76 364 40 408 40 483 c 0
 40 554 100 622 192 633 c 1
 192 690 l 1
 232 690 l 1
 232 635 l 1
 283 633 330 618 362 595 c 1
 370 483 l 1
 341 483 l 1
 340 489 l 2
 330 550 294 592 232 600 c 1
 232 366 l 1
 360 278 400 234 400 157 c 0
 400 73 333 0 232 -13 c 1
 232 -70 l 1
 192 -70 l 1
 192 -15 l 1
 142 -14 89 0 51 27 c 1
 33 155 l 1
 62 155 l 1
 65 143 l 2
 83 70 124 28 192 22 c 1
EndSplineSet
EndChar

StartChar: percent
Encoding: 37 37 96
Width: 780
Flags: HMW
LayerCount: 3
Back
SplineSet
567 645 m 1
 615 645 l 1
 213 -40 l 1
 165 -40 l 1
 567 645 l 1
445 150 m 0
 445 238 512 310 595 310 c 0
 678 310 745 238 745 150 c 0
 745 62 678 -10 595 -10 c 0
 512 -10 445 62 445 150 c 0
504 165 m 0
 504 78 548 24 603 24 c 0
 650 24 686 72 686 135 c 0
 686 222 642 276 587 276 c 0
 540 276 504 228 504 165 c 0
35 455 m 0
 35 543 102 615 185 615 c 0
 268 615 335 543 335 455 c 0
 335 367 268 295 185 295 c 0
 102 295 35 367 35 455 c 0
94 470 m 0
 94 383 138 329 193 329 c 0
 240 329 276 377 276 440 c 0
 276 527 232 581 177 581 c 0
 130 581 94 533 94 470 c 0
EndSplineSet
Fore
SplineSet
567 645 m 1
 615 645 l 1
 213 -40 l 1
 165 -40 l 1
 567 645 l 1
445 150 m 0
 445 238 512 310 595 310 c 0
 678 310 745 238 745 150 c 0
 745 62 678 -10 595 -10 c 0
 512 -10 445 62 445 150 c 0
504 165 m 0
 504 78 548 24 603 24 c 0
 650 24 686 72 686 135 c 0
 686 222 642 276 587 276 c 0
 540 276 504 228 504 165 c 0
35 455 m 0
 35 543 102 615 185 615 c 0
 268 615 335 543 335 455 c 0
 335 367 268 295 185 295 c 0
 102 295 35 367 35 455 c 0
94 470 m 0
 94 383 138 329 193 329 c 0
 240 329 276 377 276 440 c 0
 276 527 232 581 177 581 c 0
 130 581 94 533 94 470 c 0
EndSplineSet
EndChar

StartChar: less
Encoding: 60 60 97
Width: 480
Flags: HMW
LayerCount: 3
Back
SplineSet
450 47 m 1
 450 -5 l 1
 30 205 l 1
 30 235 l 1
 450 445 l 1
 450 393 l 1
 108 222 l 1
 108 218 l 1
 450 47 l 1
EndSplineSet
Fore
SplineSet
450 47 m 1
 450 -5 l 1
 30 205 l 1
 30 235 l 1
 450 445 l 1
 450 393 l 1
 108 222 l 1
 108 218 l 1
 450 47 l 1
EndSplineSet
EndChar

StartChar: equal
Encoding: 61 61 98
Width: 480
Flags: HMW
LayerCount: 3
Back
SplineSet
30 294 m 1
 30 340 l 1
 450 340 l 1
 450 294 l 1
 30 294 l 1
30 100 m 1
 30 146 l 1
 450 146 l 1
 450 100 l 1
 30 100 l 1
EndSplineSet
Fore
SplineSet
30 293 m 1
 30 341 l 1
 450 341 l 1
 450 293 l 1
 30 293 l 1
30 99 m 1
 30 147 l 1
 450 147 l 1
 450 99 l 1
 30 99 l 1
EndSplineSet
EndChar

StartChar: greater
Encoding: 62 62 99
Width: 480
Flags: HMW
LayerCount: 3
Back
SplineSet
30 393 m 1
 30 445 l 1
 450 235 l 1
 450 205 l 1
 30 -5 l 1
 30 47 l 1
 372 218 l 1
 372 222 l 1
 30 393 l 1
EndSplineSet
Fore
SplineSet
30 393 m 1
 30 445 l 1
 450 235 l 1
 450 205 l 1
 30 -5 l 1
 30 47 l 1
 372 218 l 1
 372 222 l 1
 30 393 l 1
EndSplineSet
EndChar

StartChar: at
Encoding: 64 64 100
Width: 790
Flags: HMW
LayerCount: 3
Back
SplineSet
500 -3 m 0
 425 -3 395 35 395 70 c 0
 395 95 400 125 408 156 c 1
 405 158 l 1
 330 53 285 22 245 22 c 0
 225 22 205 40 205 75 c 0
 205 205 355 395 450 395 c 0
 463 395 479 391 492 384 c 1
 522 405 l 1
 549 405 l 1
 549 400 l 1
 525 325 l 2
 479 182 465 127 465 98 c 0
 465 70 475 42 530 42 c 0
 615 42 705 115 705 240 c 0
 705 382 575 520 397 520 c 0
 222 520 85 380 85 203 c 0
 85 23 225 -120 403 -120 c 0
 500 -120 580 -80 638 -13 c 1
 660 -30 l 1
 595 -110 510 -160 397 -160 c 0
 200 -160 40 0 40 198 c 0
 40 399 201 560 402 560 c 0
 600 560 750 405 750 245 c 0
 750 70 610 -3 500 -3 c 0
445 310 m 0
 445 325 435 335 420 335 c 0
 350 335 258 200 258 115 c 0
 258 100 268 92 278 92 c 0
 333 92 445 225 445 310 c 0
EndSplineSet
Fore
SplineSet
500 -3 m 0
 425 -3 395 35 395 70 c 0
 395 95 400 125 408 156 c 1
 405 158 l 1
 330 53 285 22 245 22 c 0
 225 22 205 40 205 75 c 0
 205 205 355 395 450 395 c 0
 463 395 479 391 492 384 c 1
 522 405 l 1
 549 405 l 1
 549 400 l 1
 525 325 l 2
 479 182 465 127 465 98 c 0
 465 70 475 42 530 42 c 0
 615 42 705 115 705 240 c 0
 705 382 575 520 397 520 c 0
 222 520 85 380 85 203 c 0
 85 23 225 -120 403 -120 c 0
 500 -120 580 -80 638 -13 c 1
 660 -30 l 1
 595 -110 510 -160 397 -160 c 0
 200 -160 40 0 40 198 c 0
 40 399 201 560 402 560 c 0
 600 560 750 405 750 245 c 0
 750 70 610 -3 500 -3 c 0
445 310 m 0
 445 325 435 335 420 335 c 0
 350 335 258 200 258 115 c 0
 258 100 268 92 278 92 c 0
 333 92 445 225 445 310 c 0
EndSplineSet
EndChar

StartChar: backslash
Encoding: 92 92 101
Width: 310
Flags: HMW
LayerCount: 3
Back
SplineSet
36 660 m 1
 320 -100 l 1
 274 -100 l 1
 -10 660 l 1
 36 660 l 1
EndSplineSet
Fore
SplineSet
36 660 m 1
 320 -100 l 1
 274 -100 l 1
 -10 660 l 1
 36 660 l 1
EndSplineSet
EndChar

StartChar: asciicircum
Encoding: 94 94 102
Width: 200
Flags: HMW
LayerCount: 3
Back
SplineSet
47 45 m 0
 47 74 71 98 100 98 c 0
 129 98 153 74 153 45 c 0
 153 16 129 -8 100 -8 c 0
 71 -8 47 16 47 45 c 0
EndSplineSet
Fore
SplineSet
47 45 m 0
 47 74 71 98 100 98 c 0
 129 98 153 74 153 45 c 0
 153 16 129 -8 100 -8 c 0
 71 -8 47 16 47 45 c 0
EndSplineSet
EndChar

StartChar: underscore
Encoding: 95 95 103
Width: 480
Flags: HMW
LayerCount: 3
Back
SplineSet
20 -40 m 1
 460 -40 l 1
 460 -75 l 1
 20 -75 l 1
 20 -40 l 1
EndSplineSet
Fore
SplineSet
20 -40 m 1
 460 -40 l 1
 460 -75 l 1
 20 -75 l 1
 20 -40 l 1
EndSplineSet
EndChar

StartChar: grave
Encoding: 96 96 104
Width: 265
Flags: HMW
AnchorPoint: "Top" 151 500 mark 0
LayerCount: 3
Back
SplineSet
47 45 m 0
 47 74 71 98 100 98 c 0
 129 98 153 74 153 45 c 0
 153 16 129 -8 100 -8 c 0
 71 -8 47 16 47 45 c 0
EndSplineSet
Fore
SplineSet
115 670 m 1
 205 490 l 1
 183 477 l 1
 50 642 l 1
 50 647 l 1
 115 670 l 1
EndSplineSet
EndChar

StartChar: braceleft
Encoding: 123 123 105
Width: 300
Flags: HMW
LayerCount: 3
Back
SplineSet
100 242 m 1
 100 238 l 1
 155 225 175 185 175 130 c 2
 175 -67 l 2
 175 -127 200 -162 265 -162 c 2
 285 -162 l 1
 285 -195 l 1
 255 -195 l 2
 160 -195 112 -135 112 -50 c 2
 112 140 l 2
 112 195 93 225 25 225 c 1
 20 225 l 1
 20 255 l 1
 25 255 l 1
 93 255 112 285 112 340 c 2
 112 530 l 2
 112 615 160 675 255 675 c 2
 285 675 l 1
 285 642 l 1
 265 642 l 2
 200 642 175 607 175 547 c 2
 175 350 l 2
 175 295 155 255 100 242 c 1
EndSplineSet
Fore
SplineSet
100 242 m 1
 100 238 l 1
 155 225 175 185 175 130 c 2
 175 -67 l 2
 175 -127 200 -162 265 -162 c 2
 285 -162 l 1
 285 -195 l 1
 255 -195 l 2
 160 -195 112 -135 112 -50 c 2
 112 140 l 2
 112 195 93 225 25 225 c 1
 20 225 l 1
 20 255 l 1
 25 255 l 1
 93 255 112 285 112 340 c 2
 112 530 l 2
 112 615 160 675 255 675 c 2
 285 675 l 1
 285 642 l 1
 265 642 l 2
 200 642 175 607 175 547 c 2
 175 350 l 2
 175 295 155 255 100 242 c 1
EndSplineSet
EndChar

StartChar: bar
Encoding: 124 124 106
Width: 180
Flags: HMW
LayerCount: 3
Back
SplineSet
69 640 m 1
 111 640 l 1
 111 -200 l 1
 69 -200 l 1
 69 640 l 1
EndSplineSet
Fore
SplineSet
69 640 m 1
 111 640 l 1
 111 -200 l 1
 69 -200 l 1
 69 640 l 1
EndSplineSet
EndChar

StartChar: braceright
Encoding: 125 125 107
Width: 300
Flags: HMW
LayerCount: 3
Back
SplineSet
200 238 m 1
 200 242 l 1
 145 255 125 295 125 350 c 2
 125 547 l 2
 125 607 100 642 35 642 c 2
 15 642 l 1
 15 675 l 1
 45 675 l 2
 140 675 188 615 188 530 c 2
 188 340 l 2
 188 285 207 255 275 255 c 1
 280 255 l 1
 280 225 l 1
 275 225 l 1
 207 225 188 195 188 140 c 2
 188 -50 l 2
 188 -135 140 -195 45 -195 c 2
 15 -195 l 1
 15 -162 l 1
 35 -162 l 2
 100 -162 125 -127 125 -67 c 2
 125 130 l 2
 125 185 145 225 200 238 c 1
EndSplineSet
Fore
SplineSet
200 238 m 1
 200 242 l 1
 145 255 125 295 125 350 c 2
 125 547 l 2
 125 607 100 642 35 642 c 2
 15 642 l 1
 15 675 l 1
 45 675 l 2
 140 675 188 615 188 530 c 2
 188 340 l 2
 188 285 207 255 275 255 c 1
 280 255 l 1
 280 225 l 1
 275 225 l 1
 207 225 188 195 188 140 c 2
 188 -50 l 2
 188 -135 140 -195 45 -195 c 2
 15 -195 l 1
 15 -162 l 1
 35 -162 l 2
 100 -162 125 -127 125 -67 c 2
 125 130 l 2
 125 185 145 225 200 238 c 1
EndSplineSet
EndChar

StartChar: asciitilde
Encoding: 126 126 108
Width: 200
Flags: HMW
LayerCount: 3
Back
SplineSet
47 45 m 0
 47 74 71 98 100 98 c 0
 129 98 153 74 153 45 c 0
 153 16 129 -8 100 -8 c 0
 71 -8 47 16 47 45 c 0
EndSplineSet
Fore
SplineSet
47 45 m 0
 47 74 71 98 100 98 c 0
 129 98 153 74 153 45 c 0
 153 16 129 -8 100 -8 c 0
 71 -8 47 16 47 45 c 0
EndSplineSet
EndChar

StartChar: exclamdown
Encoding: 161 161 109
Width: 250
Flags: HMW
LayerCount: 3
Back
SplineSet
47 45 m 0
 47 74 71 98 100 98 c 0
 129 98 153 74 153 45 c 0
 153 16 129 -8 100 -8 c 0
 71 -8 47 16 47 45 c 0
EndSplineSet
Fore
SplineSet
175 360 m 0
 175 332 153 310 125 310 c 0
 97 310 75 332 75 360 c 0
 75 388 97 410 125 410 c 0
 153 410 175 388 175 360 c 0
170 -231 m 1
 80 -231 l 1
 110 224 l 1
 140 224 l 1
 170 -231 l 1
EndSplineSet
EndChar

StartChar: cent
Encoding: 162 162 110
Width: 200
Flags: HMW
LayerCount: 3
Back
SplineSet
47 45 m 0
 47 74 71 98 100 98 c 0
 129 98 153 74 153 45 c 0
 153 16 129 -8 100 -8 c 0
 71 -8 47 16 47 45 c 0
EndSplineSet
Fore
SplineSet
47 45 m 0
 47 74 71 98 100 98 c 0
 129 98 153 74 153 45 c 0
 153 16 129 -8 100 -8 c 0
 71 -8 47 16 47 45 c 0
EndSplineSet
EndChar

StartChar: sterling
Encoding: 163 163 111
Width: 200
Flags: HMW
LayerCount: 3
Back
SplineSet
47 45 m 0
 47 74 71 98 100 98 c 0
 129 98 153 74 153 45 c 0
 153 16 129 -8 100 -8 c 0
 71 -8 47 16 47 45 c 0
EndSplineSet
Fore
SplineSet
47 45 m 0
 47 74 71 98 100 98 c 0
 129 98 153 74 153 45 c 0
 153 16 129 -8 100 -8 c 0
 71 -8 47 16 47 45 c 0
EndSplineSet
EndChar

StartChar: currency
Encoding: 164 164 112
Width: 200
Flags: HMW
LayerCount: 3
Back
SplineSet
47 45 m 0
 47 74 71 98 100 98 c 0
 129 98 153 74 153 45 c 0
 153 16 129 -8 100 -8 c 0
 71 -8 47 16 47 45 c 0
EndSplineSet
Fore
SplineSet
47 45 m 0
 47 74 71 98 100 98 c 0
 129 98 153 74 153 45 c 0
 153 16 129 -8 100 -8 c 0
 71 -8 47 16 47 45 c 0
EndSplineSet
EndChar

StartChar: yen
Encoding: 165 165 113
Width: 200
Flags: HMW
LayerCount: 3
Back
SplineSet
47 45 m 0
 47 74 71 98 100 98 c 0
 129 98 153 74 153 45 c 0
 153 16 129 -8 100 -8 c 0
 71 -8 47 16 47 45 c 0
EndSplineSet
Fore
SplineSet
47 45 m 0
 47 74 71 98 100 98 c 0
 129 98 153 74 153 45 c 0
 153 16 129 -8 100 -8 c 0
 71 -8 47 16 47 45 c 0
EndSplineSet
EndChar

StartChar: brokenbar
Encoding: 166 166 114
Width: 200
Flags: HMW
LayerCount: 3
Back
SplineSet
47 45 m 0
 47 74 71 98 100 98 c 0
 129 98 153 74 153 45 c 0
 153 16 129 -8 100 -8 c 0
 71 -8 47 16 47 45 c 0
EndSplineSet
Fore
SplineSet
47 45 m 0
 47 74 71 98 100 98 c 0
 129 98 153 74 153 45 c 0
 153 16 129 -8 100 -8 c 0
 71 -8 47 16 47 45 c 0
EndSplineSet
EndChar

StartChar: section
Encoding: 167 167 115
Width: 200
Flags: HMW
LayerCount: 3
Back
SplineSet
47 45 m 0
 47 74 71 98 100 98 c 0
 129 98 153 74 153 45 c 0
 153 16 129 -8 100 -8 c 0
 71 -8 47 16 47 45 c 0
EndSplineSet
Fore
SplineSet
47 45 m 0
 47 74 71 98 100 98 c 0
 129 98 153 74 153 45 c 0
 153 16 129 -8 100 -8 c 0
 71 -8 47 16 47 45 c 0
EndSplineSet
EndChar

StartChar: dieresis
Encoding: 168 168 116
Width: 265
Flags: HMW
AnchorPoint: "Top" 133 500 mark 0
LayerCount: 3
Back
SplineSet
47 45 m 0
 47 74 71 98 100 98 c 0
 129 98 153 74 153 45 c 0
 153 16 129 -8 100 -8 c 0
 71 -8 47 16 47 45 c 0
EndSplineSet
Fore
SplineSet
10 560 m 0
 10 583 29 602 52 602 c 0
 75 602 94 583 94 560 c 0
 94 537 75 518 52 518 c 0
 29 518 10 537 10 560 c 0
171 560 m 0
 171 583 190 602 213 602 c 0
 236 602 255 583 255 560 c 0
 255 537 236 518 213 518 c 0
 190 518 171 537 171 560 c 0
EndSplineSet
EndChar

StartChar: copyright
Encoding: 169 169 117
Width: 200
Flags: HMW
LayerCount: 3
Back
SplineSet
47 45 m 0
 47 74 71 98 100 98 c 0
 129 98 153 74 153 45 c 0
 153 16 129 -8 100 -8 c 0
 71 -8 47 16 47 45 c 0
EndSplineSet
Fore
SplineSet
47 45 m 0
 47 74 71 98 100 98 c 0
 129 98 153 74 153 45 c 0
 153 16 129 -8 100 -8 c 0
 71 -8 47 16 47 45 c 0
EndSplineSet
EndChar

StartChar: ordfeminine
Encoding: 170 170 118
Width: 200
Flags: HMW
LayerCount: 3
Back
SplineSet
47 45 m 0
 47 74 71 98 100 98 c 0
 129 98 153 74 153 45 c 0
 153 16 129 -8 100 -8 c 0
 71 -8 47 16 47 45 c 0
EndSplineSet
Fore
SplineSet
47 45 m 0
 47 74 71 98 100 98 c 0
 129 98 153 74 153 45 c 0
 153 16 129 -8 100 -8 c 0
 71 -8 47 16 47 45 c 0
EndSplineSet
EndChar

StartChar: guillemotleft
Encoding: 171 171 119
Width: 200
Flags: HMW
LayerCount: 3
Back
SplineSet
47 45 m 0
 47 74 71 98 100 98 c 0
 129 98 153 74 153 45 c 0
 153 16 129 -8 100 -8 c 0
 71 -8 47 16 47 45 c 0
EndSplineSet
Fore
SplineSet
47 45 m 0
 47 74 71 98 100 98 c 0
 129 98 153 74 153 45 c 0
 153 16 129 -8 100 -8 c 0
 71 -8 47 16 47 45 c 0
EndSplineSet
EndChar

StartChar: logicalnot
Encoding: 172 172 120
Width: 480
Flags: HMW
LayerCount: 3
Back
SplineSet
440 305 m 1
 440 90 l 1
 394 90 l 1
 394 259 l 1
 30 259 l 1
 30 305 l 1
 440 305 l 1
EndSplineSet
Fore
SplineSet
441 306 m 1
 441 90 l 1
 393 90 l 1
 393 258 l 1
 30 258 l 1
 30 306 l 1
 441 306 l 1
EndSplineSet
EndChar

StartChar: uni00AD
Encoding: 173 173 121
Width: 200
Flags: HMW
LayerCount: 3
Back
SplineSet
47 45 m 0
 47 74 71 98 100 98 c 0
 129 98 153 74 153 45 c 0
 153 16 129 -8 100 -8 c 0
 71 -8 47 16 47 45 c 0
EndSplineSet
Fore
SplineSet
47 45 m 0
 47 74 71 98 100 98 c 0
 129 98 153 74 153 45 c 0
 153 16 129 -8 100 -8 c 0
 71 -8 47 16 47 45 c 0
EndSplineSet
EndChar

StartChar: registered
Encoding: 174 174 122
Width: 200
Flags: HMW
LayerCount: 3
Back
SplineSet
47 45 m 0
 47 74 71 98 100 98 c 0
 129 98 153 74 153 45 c 0
 153 16 129 -8 100 -8 c 0
 71 -8 47 16 47 45 c 0
EndSplineSet
Fore
SplineSet
47 45 m 0
 47 74 71 98 100 98 c 0
 129 98 153 74 153 45 c 0
 153 16 129 -8 100 -8 c 0
 71 -8 47 16 47 45 c 0
EndSplineSet
EndChar

StartChar: macron
Encoding: 175 175 123
Width: 265
Flags: HMW
AnchorPoint: "Top" 133 500 mark 0
LayerCount: 3
Back
SplineSet
47 45 m 0
 47 74 71 98 100 98 c 0
 129 98 153 74 153 45 c 0
 153 16 129 -8 100 -8 c 0
 71 -8 47 16 47 45 c 0
EndSplineSet
Fore
SplineSet
25 577 m 1
 240 577 l 1
 240 535 l 1
 25 535 l 1
 25 577 l 1
EndSplineSet
EndChar

StartChar: degree
Encoding: 176 176 124
Width: 240
Flags: HMW
LayerCount: 3
Back
SplineSet
53 550 m 0
 53 513 83 483 120 483 c 0
 157 483 187 513 187 550 c 0
 187 587 157 617 120 617 c 0
 83 617 53 587 53 550 c 0
22 550 m 0
 22 604 66 648 120 648 c 0
 174 648 218 604 218 550 c 0
 218 496 174 452 120 452 c 0
 66 452 22 496 22 550 c 0
EndSplineSet
Fore
SplineSet
53 530 m 0
 53 493 83 463 120 463 c 0
 157 463 187 493 187 530 c 0
 187 567 157 597 120 597 c 0
 83 597 53 567 53 530 c 0
22 530 m 0
 22 584 66 628 120 628 c 0
 174 628 218 584 218 530 c 0
 218 476 174 432 120 432 c 0
 66 432 22 476 22 530 c 0
EndSplineSet
EndChar

StartChar: plusminus
Encoding: 177 177 125
Width: 480
Flags: HMW
LayerCount: 3
Back
SplineSet
217 293 m 1
 217 405 l 1
 263 405 l 1
 263 293 l 1
 445 293 l 1
 445 247 l 1
 263 247 l 1
 263 130 l 1
 217 130 l 1
 217 247 l 1
 35 247 l 1
 35 293 l 1
 217 293 l 1
30 39 m 1
 30 85 l 1
 450 85 l 1
 450 39 l 1
 30 39 l 1
EndSplineSet
Fore
SplineSet
216 294 m 1
 216 405 l 1
 264 405 l 1
 264 294 l 1
 445 294 l 1
 445 246 l 1
 264 246 l 1
 264 130 l 1
 216 130 l 1
 216 246 l 1
 35 246 l 1
 35 294 l 1
 216 294 l 1
30 38 m 1
 30 86 l 1
 450 86 l 1
 450 38 l 1
 30 38 l 1
EndSplineSet
EndChar

StartChar: uni00B2
Encoding: 178 178 126
Width: 200
Flags: HMW
LayerCount: 3
Back
SplineSet
47 45 m 0
 47 74 71 98 100 98 c 0
 129 98 153 74 153 45 c 0
 153 16 129 -8 100 -8 c 0
 71 -8 47 16 47 45 c 0
EndSplineSet
Fore
SplineSet
47 45 m 0
 47 74 71 98 100 98 c 0
 129 98 153 74 153 45 c 0
 153 16 129 -8 100 -8 c 0
 71 -8 47 16 47 45 c 0
EndSplineSet
EndChar

StartChar: uni00B3
Encoding: 179 179 127
Width: 200
Flags: HMW
LayerCount: 3
Back
SplineSet
47 45 m 0
 47 74 71 98 100 98 c 0
 129 98 153 74 153 45 c 0
 153 16 129 -8 100 -8 c 0
 71 -8 47 16 47 45 c 0
EndSplineSet
Fore
SplineSet
47 45 m 0
 47 74 71 98 100 98 c 0
 129 98 153 74 153 45 c 0
 153 16 129 -8 100 -8 c 0
 71 -8 47 16 47 45 c 0
EndSplineSet
EndChar

StartChar: acute
Encoding: 180 180 128
Width: 265
Flags: HMW
AnchorPoint: "Top" 114 500 mark 0
LayerCount: 3
Back
SplineSet
47 45 m 0
 47 74 71 98 100 98 c 0
 129 98 153 74 153 45 c 0
 153 16 129 -8 100 -8 c 0
 71 -8 47 16 47 45 c 0
EndSplineSet
Fore
SplineSet
150 670 m 1
 215 647 l 1
 215 642 l 1
 82 477 l 1
 60 490 l 1
 150 670 l 1
EndSplineSet
EndChar

StartChar: mu
Encoding: 181 181 129
Width: 200
Flags: HMW
LayerCount: 3
Back
SplineSet
47 45 m 0
 47 74 71 98 100 98 c 0
 129 98 153 74 153 45 c 0
 153 16 129 -8 100 -8 c 0
 71 -8 47 16 47 45 c 0
EndSplineSet
Fore
SplineSet
47 45 m 0
 47 74 71 98 100 98 c 0
 129 98 153 74 153 45 c 0
 153 16 129 -8 100 -8 c 0
 71 -8 47 16 47 45 c 0
EndSplineSet
EndChar

StartChar: paragraph
Encoding: 182 182 130
Width: 470
Flags: HMW
LayerCount: 3
Back
SplineSet
47 45 m 0
 47 74 71 98 100 98 c 0
 129 98 153 74 153 45 c 0
 153 16 129 -8 100 -8 c 0
 71 -8 47 16 47 45 c 0
EndSplineSet
Fore
SplineSet
285 200 m 2
 135 200 35 285 35 410 c 0
 35 535 135 620 285 620 c 2
 450 620 l 1
 450 585 l 1
 375 585 l 1
 375 -45 l 2
 375 -155 316 -210 240 -210 c 0
 165 -210 120 -162 120 -115 c 0
 120 -80 145 -55 175 -55 c 0
 205 -55 230 -80 230 -110 c 0
 230 -132 215 -153 195 -160 c 1
 195 -162 l 1
 207 -170 223 -175 240 -175 c 0
 295 -175 330 -137 330 -48 c 2
 330 200 l 1
 285 200 l 2
330 585 m 1
 300 585 l 2
 205 585 150 515 150 410 c 0
 150 305 205 235 300 235 c 2
 330 235 l 1
 330 585 l 1
EndSplineSet
EndChar

StartChar: periodcentered
Encoding: 183 183 131
Width: 200
Flags: HMW
LayerCount: 3
Back
SplineSet
47 45 m 0
 47 74 71 98 100 98 c 0
 129 98 153 74 153 45 c 0
 153 16 129 -8 100 -8 c 0
 71 -8 47 16 47 45 c 0
EndSplineSet
Fore
SplineSet
47 45 m 0
 47 74 71 98 100 98 c 0
 129 98 153 74 153 45 c 0
 153 16 129 -8 100 -8 c 0
 71 -8 47 16 47 45 c 0
EndSplineSet
EndChar

StartChar: cedilla
Encoding: 184 184 132
Width: 265
Flags: HMW
AnchorPoint: "Bottom" 145 10 mark 0
LayerCount: 3
Back
SplineSet
47 45 m 0
 47 74 71 98 100 98 c 0
 129 98 153 74 153 45 c 0
 153 16 129 -8 100 -8 c 0
 71 -8 47 16 47 45 c 0
EndSplineSet
Fore
SplineSet
167 23 m 1
 135 -50 l 1
 136 -52 l 1
 178 -57 210 -85 210 -122 c 0
 210 -185 147 -218 65 -218 c 2
 55 -218 l 1
 56 -190 l 1
 115 -190 156 -172 156 -135 c 0
 156 -109 130 -90 87 -90 c 2
 84 -90 l 1
 84 -84 l 1
 132 23 l 1
 167 23 l 1
EndSplineSet
Layer: 2
SplineSet
167 23 m 1
 134 -50 l 1
 135 -52 l 1
 178 -57 210 -85 210 -122 c 0
 210 -185 147 -216 65 -216 c 2
 55 -216 l 1
 56 -190 l 1
 115 -190 156 -172 156 -135 c 0
 156 -109 130 -90 87 -90 c 2
 85 -90 l 1
 85 -84 l 1
 133 23 l 1
 167 23 l 1
EndSplineSet
EndChar

StartChar: uni00B9
Encoding: 185 185 133
Width: 200
Flags: HMW
LayerCount: 3
Back
SplineSet
47 45 m 0
 47 74 71 98 100 98 c 0
 129 98 153 74 153 45 c 0
 153 16 129 -8 100 -8 c 0
 71 -8 47 16 47 45 c 0
EndSplineSet
Fore
SplineSet
47 45 m 0
 47 74 71 98 100 98 c 0
 129 98 153 74 153 45 c 0
 153 16 129 -8 100 -8 c 0
 71 -8 47 16 47 45 c 0
EndSplineSet
EndChar

StartChar: ordmasculine
Encoding: 186 186 134
Width: 200
Flags: HMW
LayerCount: 3
Back
SplineSet
47 45 m 0
 47 74 71 98 100 98 c 0
 129 98 153 74 153 45 c 0
 153 16 129 -8 100 -8 c 0
 71 -8 47 16 47 45 c 0
EndSplineSet
Fore
SplineSet
47 45 m 0
 47 74 71 98 100 98 c 0
 129 98 153 74 153 45 c 0
 153 16 129 -8 100 -8 c 0
 71 -8 47 16 47 45 c 0
EndSplineSet
EndChar

StartChar: guillemotright
Encoding: 187 187 135
Width: 420
Flags: HMW
LayerCount: 3
Back
SplineSet
220 213 m 1
 220 207 l 1
 50 35 l 1
 25 45 l 1
 135 208 l 1
 135 210 l 1
 25 375 l 1
 50 385 l 1
 220 213 l 1
400 213 m 1
 400 207 l 1
 230 35 l 1
 205 45 l 1
 315 208 l 1
 315 210 l 1
 205 375 l 1
 230 385 l 1
 400 213 l 1
EndSplineSet
Fore
SplineSet
220 213 m 1
 220 207 l 1
 50 35 l 1
 25 45 l 1
 135 208 l 1
 135 210 l 1
 25 375 l 1
 50 385 l 1
 220 213 l 1
400 213 m 1
 400 207 l 1
 230 35 l 1
 205 45 l 1
 315 208 l 1
 315 210 l 1
 205 375 l 1
 230 385 l 1
 400 213 l 1
EndSplineSet
EndChar

StartChar: onequarter
Encoding: 188 188 136
Width: 200
Flags: HMW
LayerCount: 3
Back
SplineSet
47 45 m 0
 47 74 71 98 100 98 c 0
 129 98 153 74 153 45 c 0
 153 16 129 -8 100 -8 c 0
 71 -8 47 16 47 45 c 0
EndSplineSet
Fore
SplineSet
47 45 m 0
 47 74 71 98 100 98 c 0
 129 98 153 74 153 45 c 0
 153 16 129 -8 100 -8 c 0
 71 -8 47 16 47 45 c 0
EndSplineSet
EndChar

StartChar: onehalf
Encoding: 189 189 137
Width: 200
Flags: HMW
LayerCount: 3
Back
SplineSet
47 45 m 0
 47 74 71 98 100 98 c 0
 129 98 153 74 153 45 c 0
 153 16 129 -8 100 -8 c 0
 71 -8 47 16 47 45 c 0
EndSplineSet
Fore
SplineSet
47 45 m 0
 47 74 71 98 100 98 c 0
 129 98 153 74 153 45 c 0
 153 16 129 -8 100 -8 c 0
 71 -8 47 16 47 45 c 0
EndSplineSet
EndChar

StartChar: threequarters
Encoding: 190 190 138
Width: 200
Flags: HMW
LayerCount: 3
Back
SplineSet
47 45 m 0
 47 74 71 98 100 98 c 0
 129 98 153 74 153 45 c 0
 153 16 129 -8 100 -8 c 0
 71 -8 47 16 47 45 c 0
EndSplineSet
Fore
SplineSet
47 45 m 0
 47 74 71 98 100 98 c 0
 129 98 153 74 153 45 c 0
 153 16 129 -8 100 -8 c 0
 71 -8 47 16 47 45 c 0
EndSplineSet
EndChar

StartChar: questiondown
Encoding: 191 191 139
Width: 317
Flags: HMW
LayerCount: 3
Back
SplineSet
47 45 m 0
 47 74 71 98 100 98 c 0
 129 98 153 74 153 45 c 0
 153 16 129 -8 100 -8 c 0
 71 -8 47 16 47 45 c 0
EndSplineSet
Fore
SplineSet
257 360 m 0
 257 332 235 310 207 310 c 0
 179 310 157 332 157 360 c 0
 157 388 179 410 207 410 c 0
 235 410 257 388 257 360 c 0
69 -23 m 0
 69 -94 137 -125 227 -127 c 1
 227 -238 l 1
 199 -238 l 1
 199 -234 l 2
 199 -208 186 -207 146 -187 c 0
 74 -152 34 -99 34 -21 c 0
 34 53 73 111 142 144 c 0
 182 163 192 170 192 199 c 2
 192 229 l 1
 222 229 l 1
 222 85 l 1
 137 82 69 52 69 -23 c 0
EndSplineSet
EndChar

StartChar: Agrave
Encoding: 192 192 140
Width: 200
Flags: HMW
LayerCount: 3
Back
SplineSet
47 45 m 0
 47 74 71 98 100 98 c 0
 129 98 153 74 153 45 c 0
 153 16 129 -8 100 -8 c 0
 71 -8 47 16 47 45 c 0
EndSplineSet
Fore
SplineSet
47 45 m 0
 47 74 71 98 100 98 c 0
 129 98 153 74 153 45 c 0
 153 16 129 -8 100 -8 c 0
 71 -8 47 16 47 45 c 0
EndSplineSet
EndChar

StartChar: Aacute
Encoding: 193 193 141
Width: 200
Flags: HMW
LayerCount: 3
Back
SplineSet
47 45 m 0
 47 74 71 98 100 98 c 0
 129 98 153 74 153 45 c 0
 153 16 129 -8 100 -8 c 0
 71 -8 47 16 47 45 c 0
EndSplineSet
Fore
SplineSet
47 45 m 0
 47 74 71 98 100 98 c 0
 129 98 153 74 153 45 c 0
 153 16 129 -8 100 -8 c 0
 71 -8 47 16 47 45 c 0
EndSplineSet
EndChar

StartChar: Acircumflex
Encoding: 194 194 142
Width: 200
Flags: HMW
LayerCount: 3
Back
SplineSet
47 45 m 0
 47 74 71 98 100 98 c 0
 129 98 153 74 153 45 c 0
 153 16 129 -8 100 -8 c 0
 71 -8 47 16 47 45 c 0
EndSplineSet
Fore
SplineSet
47 45 m 0
 47 74 71 98 100 98 c 0
 129 98 153 74 153 45 c 0
 153 16 129 -8 100 -8 c 0
 71 -8 47 16 47 45 c 0
EndSplineSet
EndChar

StartChar: Atilde
Encoding: 195 195 143
Width: 200
Flags: HMW
LayerCount: 3
Back
SplineSet
47 45 m 0
 47 74 71 98 100 98 c 0
 129 98 153 74 153 45 c 0
 153 16 129 -8 100 -8 c 0
 71 -8 47 16 47 45 c 0
EndSplineSet
Fore
SplineSet
47 45 m 0
 47 74 71 98 100 98 c 0
 129 98 153 74 153 45 c 0
 153 16 129 -8 100 -8 c 0
 71 -8 47 16 47 45 c 0
EndSplineSet
EndChar

StartChar: Adieresis
Encoding: 196 196 144
Width: 200
Flags: HMW
LayerCount: 3
Back
SplineSet
47 45 m 0
 47 74 71 98 100 98 c 0
 129 98 153 74 153 45 c 0
 153 16 129 -8 100 -8 c 0
 71 -8 47 16 47 45 c 0
EndSplineSet
Fore
SplineSet
47 45 m 0
 47 74 71 98 100 98 c 0
 129 98 153 74 153 45 c 0
 153 16 129 -8 100 -8 c 0
 71 -8 47 16 47 45 c 0
EndSplineSet
EndChar

StartChar: Aring
Encoding: 197 197 145
Width: 200
Flags: HMW
LayerCount: 3
Back
SplineSet
47 45 m 0
 47 74 71 98 100 98 c 0
 129 98 153 74 153 45 c 0
 153 16 129 -8 100 -8 c 0
 71 -8 47 16 47 45 c 0
EndSplineSet
Fore
SplineSet
47 45 m 0
 47 74 71 98 100 98 c 0
 129 98 153 74 153 45 c 0
 153 16 129 -8 100 -8 c 0
 71 -8 47 16 47 45 c 0
EndSplineSet
EndChar

StartChar: AE
Encoding: 198 198 146
Width: 830
Flags: HMW
LayerCount: 3
Back
SplineSet
394 604 m 1
 237 322 l 1
 395 322 l 1
 395 545 l 1
 397 604 l 1
 394 604 l 1
288 640 m 1
 760 640 l 1
 765 490 l 1
 734 490 l 1
 730 524 l 2
 722 590 700 604 658 604 c 2
 475 604 l 1
 475 322 l 1
 667 322 l 1
 667 390 l 1
 700 390 l 1
 700 305 l 1
 700 210 l 1
 667 210 l 1
 667 285 l 1
 475 285 l 1
 475 68 l 2
 475 48 485 38 505 38 c 2
 658 38 l 2
 718 38 746 62 770 147 c 2
 778 175 l 1
 810 175 l 1
 775 0 l 1
 322 0 l 1
 322 34 l 1
 395 34 l 1
 395 285 l 1
 216 285 l 1
 103 83 l 1
 85 34 l 1
 155 34 l 1
 155 0 l 1
 -11 0 l 1
 -11 34 l 1
 29 34 l 1
 353 606 l 1
 288 606 l 1
 288 640 l 1
EndSplineSet
Fore
SplineSet
280 620 m 1
 748 620 l 1
 753 470 l 1
 722 470 l 1
 716 512 l 2
 708 570 688 584 646 584 c 2
 468 584 l 1
 468 312 l 1
 650 312 l 1
 650 380 l 1
 683 380 l 1
 683 295 l 1
 683 200 l 1
 650 200 l 1
 650 275 l 1
 468 275 l 1
 468 68 l 2
 468 48 478 38 498 38 c 2
 640 38 l 2
 700 38 725 60 748 125 c 2
 766 175 l 1
 798 175 l 1
 763 0 l 1
 313 0 l 1
 313 34 l 1
 388 34 l 1
 388 275 l 1
 214 275 l 1
 108 83 l 1
 90 34 l 1
 162 34 l 1
 162 0 l 1
 -15 0 l 1
 -15 34 l 1
 34 34 l 1
 346 586 l 1
 280 586 l 1
 280 620 l 1
387 584 m 1
 235 312 l 1
 388 312 l 1
 388 525 l 1
 390 584 l 1
 387 584 l 1
EndSplineSet
Layer: 2
SplineSet
382 586 m 1
 230 312 l 1
 383 312 l 1
 383 529 l 1
 385 586 l 1
 382 586 l 1
279 621 m 1
 737 621 l 1
 742 475 l 1
 712 475 l 1
 708 508 l 2
 700 572 679 586 638 586 c 2
 461 586 l 1
 461 312 l 1
 647 312 l 1
 647 378 l 1
 679 378 l 1
 679 296 l 1
 679 204 l 1
 647 204 l 1
 647 276 l 1
 461 276 l 1
 461 66 l 2
 461 47 471 37 490 37 c 2
 638 37 l 2
 696 37 724 61 747 143 c 2
 755 170 l 1
 786 170 l 1
 752 0 l 1
 312 0 l 1
 312 33 l 1
 383 33 l 1
 383 276 l 1
 210 276 l 1
 100 81 l 1
 82 33 l 1
 150 33 l 1
 150 0 l 1
 -11 0 l 1
 -11 33 l 1
 28 33 l 1
 342 588 l 1
 279 588 l 1
 279 621 l 1
EndSplineSet
EndChar

StartChar: Ccedilla
Encoding: 199 199 147
Width: 645
Flags: HMW
LayerCount: 3
Back
SplineSet
47 45 m 0
 47 74 71 98 100 98 c 0
 129 98 153 74 153 45 c 0
 153 16 129 -8 100 -8 c 0
 71 -8 47 16 47 45 c 0
EndSplineSet
Fore
SplineSet
47 45 m 0
 47 74 71 98 100 98 c 0
 129 98 153 74 153 45 c 0
 153 16 129 -8 100 -8 c 0
 71 -8 47 16 47 45 c 0
EndSplineSet
EndChar

StartChar: Egrave
Encoding: 200 200 148
Width: 200
Flags: HMW
LayerCount: 3
Back
SplineSet
47 45 m 0
 47 74 71 98 100 98 c 0
 129 98 153 74 153 45 c 0
 153 16 129 -8 100 -8 c 0
 71 -8 47 16 47 45 c 0
EndSplineSet
Fore
SplineSet
47 45 m 0
 47 74 71 98 100 98 c 0
 129 98 153 74 153 45 c 0
 153 16 129 -8 100 -8 c 0
 71 -8 47 16 47 45 c 0
EndSplineSet
EndChar

StartChar: Eacute
Encoding: 201 201 149
Width: 200
Flags: HMW
LayerCount: 3
Back
SplineSet
47 45 m 0
 47 74 71 98 100 98 c 0
 129 98 153 74 153 45 c 0
 153 16 129 -8 100 -8 c 0
 71 -8 47 16 47 45 c 0
EndSplineSet
Fore
SplineSet
47 45 m 0
 47 74 71 98 100 98 c 0
 129 98 153 74 153 45 c 0
 153 16 129 -8 100 -8 c 0
 71 -8 47 16 47 45 c 0
EndSplineSet
EndChar

StartChar: Ecircumflex
Encoding: 202 202 150
Width: 200
Flags: HMW
LayerCount: 3
Back
SplineSet
47 45 m 0
 47 74 71 98 100 98 c 0
 129 98 153 74 153 45 c 0
 153 16 129 -8 100 -8 c 0
 71 -8 47 16 47 45 c 0
EndSplineSet
Fore
SplineSet
47 45 m 0
 47 74 71 98 100 98 c 0
 129 98 153 74 153 45 c 0
 153 16 129 -8 100 -8 c 0
 71 -8 47 16 47 45 c 0
EndSplineSet
EndChar

StartChar: Edieresis
Encoding: 203 203 151
Width: 200
Flags: HMW
LayerCount: 3
Back
SplineSet
47 45 m 0
 47 74 71 98 100 98 c 0
 129 98 153 74 153 45 c 0
 153 16 129 -8 100 -8 c 0
 71 -8 47 16 47 45 c 0
EndSplineSet
Fore
SplineSet
47 45 m 0
 47 74 71 98 100 98 c 0
 129 98 153 74 153 45 c 0
 153 16 129 -8 100 -8 c 0
 71 -8 47 16 47 45 c 0
EndSplineSet
EndChar

StartChar: Igrave
Encoding: 204 204 152
Width: 200
Flags: HMW
LayerCount: 3
Back
SplineSet
47 45 m 0
 47 74 71 98 100 98 c 0
 129 98 153 74 153 45 c 0
 153 16 129 -8 100 -8 c 0
 71 -8 47 16 47 45 c 0
EndSplineSet
Fore
SplineSet
47 45 m 0
 47 74 71 98 100 98 c 0
 129 98 153 74 153 45 c 0
 153 16 129 -8 100 -8 c 0
 71 -8 47 16 47 45 c 0
EndSplineSet
EndChar

StartChar: Iacute
Encoding: 205 205 153
Width: 200
Flags: HMW
LayerCount: 3
Back
SplineSet
47 45 m 0
 47 74 71 98 100 98 c 0
 129 98 153 74 153 45 c 0
 153 16 129 -8 100 -8 c 0
 71 -8 47 16 47 45 c 0
EndSplineSet
Fore
SplineSet
47 45 m 0
 47 74 71 98 100 98 c 0
 129 98 153 74 153 45 c 0
 153 16 129 -8 100 -8 c 0
 71 -8 47 16 47 45 c 0
EndSplineSet
EndChar

StartChar: Icircumflex
Encoding: 206 206 154
Width: 200
Flags: HMW
LayerCount: 3
Back
SplineSet
47 45 m 0
 47 74 71 98 100 98 c 0
 129 98 153 74 153 45 c 0
 153 16 129 -8 100 -8 c 0
 71 -8 47 16 47 45 c 0
EndSplineSet
Fore
SplineSet
47 45 m 0
 47 74 71 98 100 98 c 0
 129 98 153 74 153 45 c 0
 153 16 129 -8 100 -8 c 0
 71 -8 47 16 47 45 c 0
EndSplineSet
EndChar

StartChar: Idieresis
Encoding: 207 207 155
Width: 200
Flags: HMW
LayerCount: 3
Back
SplineSet
47 45 m 0
 47 74 71 98 100 98 c 0
 129 98 153 74 153 45 c 0
 153 16 129 -8 100 -8 c 0
 71 -8 47 16 47 45 c 0
EndSplineSet
Fore
SplineSet
47 45 m 0
 47 74 71 98 100 98 c 0
 129 98 153 74 153 45 c 0
 153 16 129 -8 100 -8 c 0
 71 -8 47 16 47 45 c 0
EndSplineSet
EndChar

StartChar: Eth
Encoding: 208 208 156
Width: 717
Flags: HMW
LayerCount: 3
Back
SplineSet
315 642 m 2
 522 642 689 530 689 332 c 0
 689 140 545 0 325 0 c 2
 38 0 l 1
 38 34 l 1
 115 34 l 1
 115 315 l 1
 47 315 l 1
 47 350 l 1
 115 350 l 1
 115 606 l 1
 38 606 l 1
 38 640 l 1
 315 642 l 2
305 605 m 2
 195 605 l 1
 195 350 l 1
 325 350 l 1
 325 315 l 1
 195 315 l 1
 195 80 l 2
 195 52 210 38 240 38 c 2
 322 38 l 2
 494 38 597 150 597 320 c 0
 597 505 479 605 305 605 c 2
EndSplineSet
Fore
SplineSet
315 622 m 2
 515 622 676 512 676 322 c 0
 676 138 537 0 325 0 c 2
 36 0 l 1
 36 35 l 1
 115 35 l 1
 115 304 l 1
 47 304 l 1
 47 341 l 1
 115 341 l 1
 115 585 l 1
 36 585 l 1
 36 620 l 1
 315 622 l 2
305 585 m 2
 195 585 l 1
 195 341 l 1
 325 341 l 1
 325 304 l 1
 195 304 l 1
 195 80 l 2
 195 52 210 38 240 38 c 2
 320 38 l 2
 483 38 584 145 584 310 c 0
 584 488 472 585 305 585 c 2
EndSplineSet
Layer: 2
SplineSet
310 622 m 17
 510 622 671 512 671 322 c 0
 671 138 532 -2.59625121419e-14 320 0 c 2
 33 0 l 1
 33 35 l 1
 110 35 l 1
 110 585 l 1
 33 585 l 1
 33 620 l 1
 310 622 l 17
300 585 m 2
 190 585 l 1
 190 80 l 2
 190 52 205 38 235 38 c 2
 315 38 l 2
 478 38 579 145 579 310 c 0
 579 488 467 585 300 585 c 2
EndSplineSet
EndChar

StartChar: Ntilde
Encoding: 209 209 157
Width: 200
Flags: HMW
LayerCount: 3
Back
SplineSet
47 45 m 0
 47 74 71 98 100 98 c 0
 129 98 153 74 153 45 c 0
 153 16 129 -8 100 -8 c 0
 71 -8 47 16 47 45 c 0
EndSplineSet
Fore
SplineSet
47 45 m 0
 47 74 71 98 100 98 c 0
 129 98 153 74 153 45 c 0
 153 16 129 -8 100 -8 c 0
 71 -8 47 16 47 45 c 0
EndSplineSet
EndChar

StartChar: Ograve
Encoding: 210 210 158
Width: 200
Flags: HMW
LayerCount: 3
Back
SplineSet
47 45 m 0
 47 74 71 98 100 98 c 0
 129 98 153 74 153 45 c 0
 153 16 129 -8 100 -8 c 0
 71 -8 47 16 47 45 c 0
EndSplineSet
Fore
SplineSet
47 45 m 0
 47 74 71 98 100 98 c 0
 129 98 153 74 153 45 c 0
 153 16 129 -8 100 -8 c 0
 71 -8 47 16 47 45 c 0
EndSplineSet
EndChar

StartChar: Oacute
Encoding: 211 211 159
Width: 200
Flags: HMW
LayerCount: 3
Back
SplineSet
47 45 m 0
 47 74 71 98 100 98 c 0
 129 98 153 74 153 45 c 0
 153 16 129 -8 100 -8 c 0
 71 -8 47 16 47 45 c 0
EndSplineSet
Fore
SplineSet
47 45 m 0
 47 74 71 98 100 98 c 0
 129 98 153 74 153 45 c 0
 153 16 129 -8 100 -8 c 0
 71 -8 47 16 47 45 c 0
EndSplineSet
EndChar

StartChar: Ocircumflex
Encoding: 212 212 160
Width: 200
Flags: HMW
LayerCount: 3
Back
SplineSet
47 45 m 0
 47 74 71 98 100 98 c 0
 129 98 153 74 153 45 c 0
 153 16 129 -8 100 -8 c 0
 71 -8 47 16 47 45 c 0
EndSplineSet
Fore
SplineSet
47 45 m 0
 47 74 71 98 100 98 c 0
 129 98 153 74 153 45 c 0
 153 16 129 -8 100 -8 c 0
 71 -8 47 16 47 45 c 0
EndSplineSet
EndChar

StartChar: Otilde
Encoding: 213 213 161
Width: 200
Flags: HMW
LayerCount: 3
Back
SplineSet
47 45 m 0
 47 74 71 98 100 98 c 0
 129 98 153 74 153 45 c 0
 153 16 129 -8 100 -8 c 0
 71 -8 47 16 47 45 c 0
EndSplineSet
Fore
SplineSet
47 45 m 0
 47 74 71 98 100 98 c 0
 129 98 153 74 153 45 c 0
 153 16 129 -8 100 -8 c 0
 71 -8 47 16 47 45 c 0
EndSplineSet
EndChar

StartChar: Odieresis
Encoding: 214 214 162
Width: 200
Flags: HMW
LayerCount: 3
Back
SplineSet
47 45 m 0
 47 74 71 98 100 98 c 0
 129 98 153 74 153 45 c 0
 153 16 129 -8 100 -8 c 0
 71 -8 47 16 47 45 c 0
EndSplineSet
Fore
SplineSet
47 45 m 0
 47 74 71 98 100 98 c 0
 129 98 153 74 153 45 c 0
 153 16 129 -8 100 -8 c 0
 71 -8 47 16 47 45 c 0
EndSplineSet
EndChar

StartChar: multiply
Encoding: 215 215 163
Width: 200
Flags: HMW
LayerCount: 3
Back
SplineSet
47 45 m 0
 47 74 71 98 100 98 c 0
 129 98 153 74 153 45 c 0
 153 16 129 -8 100 -8 c 0
 71 -8 47 16 47 45 c 0
EndSplineSet
Fore
SplineSet
47 45 m 0
 47 74 71 98 100 98 c 0
 129 98 153 74 153 45 c 0
 153 16 129 -8 100 -8 c 0
 71 -8 47 16 47 45 c 0
EndSplineSet
EndChar

StartChar: Oslash
Encoding: 216 216 164
Width: 724
Flags: HMW
LayerCount: 3
Back
SplineSet
630 634 m 1
 658 609 l 1
 88 -14 l 1
 60 11 l 1
 630 634 l 1
-88 634 m 1
 -61 610 l 1
 -630 -14 l 1
 -657 10 l 1
 -88 634 l 1
35 310 m 0
 35 492 180 635 362 635 c 0
 544 635 689 492 689 310 c 0
 689 128 544 -15 362 -15 c 0
 180 -15 35 128 35 310 c 0
129 325 m 0
 129 148 233 22 372 22 c 0
 502 22 595 140 595 295 c 0
 595 472 491 599 352 599 c 0
 222 599 129 480 129 325 c 0
EndSplineSet
Fore
SplineSet
630 634 m 1
 658 609 l 1
 88 -14 l 1
 60 11 l 1
 630 634 l 1
35 310 m 0
 35 492 180 635 362 635 c 0
 544 635 689 492 689 310 c 0
 689 128 544 -15 362 -15 c 0
 180 -15 35 128 35 310 c 0
129 325 m 0
 129 148 233 22 372 22 c 0
 502 22 595 140 595 295 c 0
 595 472 491 599 352 599 c 0
 222 599 129 480 129 325 c 0
EndSplineSet
Layer: 2
SplineSet
525 515 m 1
 481 568 422 599 352 599 c 0
 221 599 128 482 128 325 c 0
 128 249 147 186 177 136 c 1
 179 136 l 1
 525 515 l 1
547 486 m 1
 545 486 l 1
 199 106 l 1
 243 54 302 22 372 22 c 0
 503 22 596 139 596 296 c 0
 596 372 577 436 547 486 c 1
633 634 m 1
 660 611 l 1
 593 538 l 1
 651 480 687 400 687 310 c 0
 687 129 543 -14 362 -14 c 0
 283 -14 212 12 156 58 c 1
 155 58 l 1
 90 -14 l 1
 64 10 l 1
 130 81 l 1
 130 82 l 1
 73 140 37 220 37 310 c 0
 37 491 181 634 362 634 c 0
 441 634 512 609 568 562 c 1
 633 634 l 1
EndSplineSet
EndChar

StartChar: Ugrave
Encoding: 217 217 165
Width: 200
Flags: HMW
LayerCount: 3
Back
SplineSet
47 45 m 0
 47 74 71 98 100 98 c 0
 129 98 153 74 153 45 c 0
 153 16 129 -8 100 -8 c 0
 71 -8 47 16 47 45 c 0
EndSplineSet
Fore
SplineSet
47 45 m 0
 47 74 71 98 100 98 c 0
 129 98 153 74 153 45 c 0
 153 16 129 -8 100 -8 c 0
 71 -8 47 16 47 45 c 0
EndSplineSet
EndChar

StartChar: Uacute
Encoding: 218 218 166
Width: 200
Flags: HMW
LayerCount: 3
Back
SplineSet
47 45 m 0
 47 74 71 98 100 98 c 0
 129 98 153 74 153 45 c 0
 153 16 129 -8 100 -8 c 0
 71 -8 47 16 47 45 c 0
EndSplineSet
Fore
SplineSet
47 45 m 0
 47 74 71 98 100 98 c 0
 129 98 153 74 153 45 c 0
 153 16 129 -8 100 -8 c 0
 71 -8 47 16 47 45 c 0
EndSplineSet
EndChar

StartChar: Ucircumflex
Encoding: 219 219 167
Width: 200
Flags: HMW
LayerCount: 3
Back
SplineSet
47 45 m 0
 47 74 71 98 100 98 c 0
 129 98 153 74 153 45 c 0
 153 16 129 -8 100 -8 c 0
 71 -8 47 16 47 45 c 0
EndSplineSet
Fore
SplineSet
47 45 m 0
 47 74 71 98 100 98 c 0
 129 98 153 74 153 45 c 0
 153 16 129 -8 100 -8 c 0
 71 -8 47 16 47 45 c 0
EndSplineSet
EndChar

StartChar: Udieresis
Encoding: 220 220 168
Width: 200
Flags: HMW
LayerCount: 3
Back
SplineSet
47 45 m 0
 47 74 71 98 100 98 c 0
 129 98 153 74 153 45 c 0
 153 16 129 -8 100 -8 c 0
 71 -8 47 16 47 45 c 0
EndSplineSet
Fore
SplineSet
47 45 m 0
 47 74 71 98 100 98 c 0
 129 98 153 74 153 45 c 0
 153 16 129 -8 100 -8 c 0
 71 -8 47 16 47 45 c 0
EndSplineSet
EndChar

StartChar: Yacute
Encoding: 221 221 169
Width: 200
Flags: HMW
LayerCount: 3
Back
SplineSet
47 45 m 0
 47 74 71 98 100 98 c 0
 129 98 153 74 153 45 c 0
 153 16 129 -8 100 -8 c 0
 71 -8 47 16 47 45 c 0
EndSplineSet
Fore
SplineSet
47 45 m 0
 47 74 71 98 100 98 c 0
 129 98 153 74 153 45 c 0
 153 16 129 -8 100 -8 c 0
 71 -8 47 16 47 45 c 0
EndSplineSet
EndChar

StartChar: Thorn
Encoding: 222 222 170
Width: 510
Flags: HMW
LayerCount: 3
Back
SplineSet
33 606 m 1
 33 640 l 1
 267 640 l 1
 267 606 l 1
 190 606 l 1
 190 520 l 1
 250 520 l 2
 390 520 494 455 494 345 c 0
 494 210 373 143 238 143 c 0
 233 143 225 144 220 145 c 1
 220 177 l 1
 240 177 l 2
 335 177 405 230 405 330 c 0
 405 430 345 485 240 485 c 2
 215 485 l 2
 197 485 190 478 190 460 c 2
 190 34 l 1
 270 34 l 1
 270 0 l 1
 33 0 l 1
 33 34 l 1
 110 34 l 1
 110 606 l 1
 33 606 l 1
EndSplineSet
Fore
SplineSet
33 586 m 1
 33 620 l 1
 267 620 l 1
 267 586 l 1
 190 586 l 1
 190 505 l 1
 250 505 l 2
 388 505 489 445 489 335 c 0
 489 205 373 138 238 138 c 0
 233 138 225 139 220 140 c 1
 220 172 l 1
 240 172 l 2
 332 172 400 222 400 320 c 0
 400 415 342 470 240 470 c 2
 215 470 l 2
 197 470 190 463 190 445 c 2
 190 34 l 1
 270 34 l 1
 270 0 l 1
 33 0 l 1
 33 34 l 1
 110 34 l 1
 110 586 l 1
 33 586 l 1
EndSplineSet
Layer: 2
SplineSet
39 588 m 1
 39 621 l 1
 266 621 l 1
 266 588 l 1
 191 588 l 1
 191 504 l 1
 249 504 l 2
 385 504 486 442 486 335 c 0
 486 204 369 139 238 139 c 0
 233 139 225 140 220 141 c 1
 220 172 l 1
 240 172 l 2
 332 172 400 223 400 320 c 0
 400 417 342 470 240 470 c 2
 216 470 l 2
 199 470 191 463 191 446 c 2
 191 33 l 1
 269 33 l 1
 269 0 l 1
 39 0 l 1
 39 33 l 1
 114 33 l 1
 114 588 l 1
 39 588 l 1
EndSplineSet
EndChar

StartChar: agrave
Encoding: 224 224 171
Width: 415
Flags: HMW
LayerCount: 3
Back
SplineSet
47 45 m 0
 47 74 71 98 100 98 c 0
 129 98 153 74 153 45 c 0
 153 16 129 -8 100 -8 c 0
 71 -8 47 16 47 45 c 0
EndSplineSet
Fore
Refer: 104 96 N 1 0 0 1 44 0 2
Refer: 6 97 N 1 0 0 1 0 0 3
EndChar

StartChar: aacute
Encoding: 225 225 172
Width: 415
Flags: HMW
LayerCount: 3
Back
SplineSet
47 45 m 0
 47 74 71 98 100 98 c 0
 129 98 153 74 153 45 c 0
 153 16 129 -8 100 -8 c 0
 71 -8 47 16 47 45 c 0
EndSplineSet
Fore
Refer: 128 180 N 1 0 0 1 81 0 2
Refer: 6 97 N 1 0 0 1 0 0 3
EndChar

StartChar: acircumflex
Encoding: 226 226 173
Width: 415
Flags: HMW
LayerCount: 3
Back
SplineSet
47 45 m 0
 47 74 71 98 100 98 c 0
 129 98 153 74 153 45 c 0
 153 16 129 -8 100 -8 c 0
 71 -8 47 16 47 45 c 0
EndSplineSet
Fore
Refer: 268 710 N 1 0 0 1 62 0 2
Refer: 6 97 N 1 0 0 1 0 0 3
EndChar

StartChar: atilde
Encoding: 227 227 174
Width: 415
Flags: HMW
LayerCount: 3
Back
SplineSet
47 45 m 0
 47 74 71 98 100 98 c 0
 129 98 153 74 153 45 c 0
 153 16 129 -8 100 -8 c 0
 71 -8 47 16 47 45 c 0
EndSplineSet
Fore
Refer: 274 732 N 1 0 0 1 62 0 2
Refer: 6 97 N 1 0 0 1 0 0 3
EndChar

StartChar: adieresis
Encoding: 228 228 175
Width: 415
Flags: HMW
LayerCount: 3
Back
SplineSet
47 45 m 0
 47 74 71 98 100 98 c 0
 129 98 153 74 153 45 c 0
 153 16 129 -8 100 -8 c 0
 71 -8 47 16 47 45 c 0
EndSplineSet
Fore
Refer: 116 168 N 1 0 0 1 62 0 2
Refer: 6 97 N 1 0 0 1 0 0 3
EndChar

StartChar: aring
Encoding: 229 229 176
Width: 415
Flags: HMW
LayerCount: 3
Back
SplineSet
47 45 m 0
 47 74 71 98 100 98 c 0
 129 98 153 74 153 45 c 0
 153 16 129 -8 100 -8 c 0
 71 -8 47 16 47 45 c 0
EndSplineSet
Fore
Refer: 272 730 N 1 0 0 1 62 0 2
Refer: 6 97 N 1 0 0 1 0 0 3
EndChar

StartChar: ccedilla
Encoding: 231 231 177
Width: 398
Flags: HMW
LayerCount: 3
Back
SplineSet
47 45 m 0
 47 74 71 98 100 98 c 0
 129 98 153 74 153 45 c 0
 153 16 129 -8 100 -8 c 0
 71 -8 47 16 47 45 c 0
EndSplineSet
Fore
Refer: 132 184 N 1 0 0 1 75 0 2
Refer: 61 99 N 1 0 0 1 0 0 3
EndChar

StartChar: egrave
Encoding: 232 232 178
Width: 418
Flags: HMW
LayerCount: 3
Back
SplineSet
47 45 m 0
 47 74 71 98 100 98 c 0
 129 98 153 74 153 45 c 0
 153 16 129 -8 100 -8 c 0
 71 -8 47 16 47 45 c 0
EndSplineSet
Fore
Refer: 104 96 N 1 0 0 1 69 0 2
Refer: 63 101 N 1 0 0 1 0 0 3
EndChar

StartChar: eacute
Encoding: 233 233 179
Width: 418
Flags: HMW
LayerCount: 3
Back
SplineSet
47 45 m 0
 47 74 71 98 100 98 c 0
 129 98 153 74 153 45 c 0
 153 16 129 -8 100 -8 c 0
 71 -8 47 16 47 45 c 0
EndSplineSet
Fore
Refer: 128 180 N 1 0 0 1 106 0 2
Refer: 63 101 N 1 0 0 1 0 0 3
EndChar

StartChar: ecircumflex
Encoding: 234 234 180
Width: 418
Flags: HMW
LayerCount: 3
Back
SplineSet
47 45 m 0
 47 74 71 98 100 98 c 0
 129 98 153 74 153 45 c 0
 153 16 129 -8 100 -8 c 0
 71 -8 47 16 47 45 c 0
EndSplineSet
Fore
Refer: 268 710 N 1 0 0 1 87 0 2
Refer: 63 101 N 1 0 0 1 0 0 3
EndChar

StartChar: edieresis
Encoding: 235 235 181
Width: 418
Flags: HMW
LayerCount: 3
Back
SplineSet
47 45 m 0
 47 74 71 98 100 98 c 0
 129 98 153 74 153 45 c 0
 153 16 129 -8 100 -8 c 0
 71 -8 47 16 47 45 c 0
EndSplineSet
Fore
Refer: 116 168 N 1 0 0 1 87 0 2
Refer: 63 101 N 1 0 0 1 0 0 3
EndChar

StartChar: igrave
Encoding: 236 236 182
Width: 265
Flags: HMW
LayerCount: 3
Back
SplineSet
47 45 m 0
 47 74 71 98 100 98 c 0
 129 98 153 74 153 45 c 0
 153 16 129 -8 100 -8 c 0
 71 -8 47 16 47 45 c 0
EndSplineSet
Fore
Refer: 104 96 N 1 0 0 1 -18 0 2
Refer: 89 305 N 1 0 0 1 0 0 3
EndChar

StartChar: iacute
Encoding: 237 237 183
Width: 265
Flags: HMW
LayerCount: 3
Back
SplineSet
47 45 m 0
 47 74 71 98 100 98 c 0
 129 98 153 74 153 45 c 0
 153 16 129 -8 100 -8 c 0
 71 -8 47 16 47 45 c 0
EndSplineSet
Fore
Refer: 128 180 N 1 0 0 1 19 0 2
Refer: 89 305 N 1 0 0 1 0 0 3
EndChar

StartChar: icircumflex
Encoding: 238 238 184
Width: 265
Flags: HMW
LayerCount: 3
Back
SplineSet
47 45 m 0
 47 74 71 98 100 98 c 0
 129 98 153 74 153 45 c 0
 153 16 129 -8 100 -8 c 0
 71 -8 47 16 47 45 c 0
EndSplineSet
Fore
Refer: 268 710 N 1 0 0 1 0 0 2
Refer: 89 305 N 1 0 0 1 0 0 3
EndChar

StartChar: idieresis
Encoding: 239 239 185
Width: 265
Flags: HMW
LayerCount: 3
Back
SplineSet
47 45 m 0
 47 74 71 98 100 98 c 0
 129 98 153 74 153 45 c 0
 153 16 129 -8 100 -8 c 0
 71 -8 47 16 47 45 c 0
EndSplineSet
Fore
Refer: 116 168 N 1 0 0 1 0 0 2
Refer: 89 305 N 1 0 0 1 0 0 3
EndChar

StartChar: ntilde
Encoding: 241 241 186
Width: 533
Flags: HMW
LayerCount: 3
Back
SplineSet
47 45 m 0
 47 74 71 98 100 98 c 0
 129 98 153 74 153 45 c 0
 153 16 129 -8 100 -8 c 0
 71 -8 47 16 47 45 c 0
EndSplineSet
Fore
Refer: 274 732 N 1 0 0 1 127 0 2
Refer: 1 110 N 1 0 0 1 0 0 3
EndChar

StartChar: ograve
Encoding: 242 242 187
Width: 496
Flags: HMW
LayerCount: 3
Back
SplineSet
47 45 m 0
 47 74 71 98 100 98 c 0
 129 98 153 74 153 45 c 0
 153 16 129 -8 100 -8 c 0
 71 -8 47 16 47 45 c 0
EndSplineSet
Fore
Refer: 104 96 N 1 0 0 1 97 0 2
Refer: 2 111 N 1 0 0 1 0 0 3
EndChar

StartChar: oacute
Encoding: 243 243 188
Width: 496
Flags: HMW
LayerCount: 3
Back
SplineSet
47 45 m 0
 47 74 71 98 100 98 c 0
 129 98 153 74 153 45 c 0
 153 16 129 -8 100 -8 c 0
 71 -8 47 16 47 45 c 0
EndSplineSet
Fore
Refer: 128 180 N 1 0 0 1 134 0 2
Refer: 2 111 N 1 0 0 1 0 0 3
EndChar

StartChar: ocircumflex
Encoding: 244 244 189
Width: 496
Flags: HMW
LayerCount: 3
Back
SplineSet
47 45 m 0
 47 74 71 98 100 98 c 0
 129 98 153 74 153 45 c 0
 153 16 129 -8 100 -8 c 0
 71 -8 47 16 47 45 c 0
EndSplineSet
Fore
Refer: 268 710 N 1 0 0 1 115 0 2
Refer: 2 111 N 1 0 0 1 0 0 3
EndChar

StartChar: otilde
Encoding: 245 245 190
Width: 496
Flags: HMW
LayerCount: 3
Back
SplineSet
47 45 m 0
 47 74 71 98 100 98 c 0
 129 98 153 74 153 45 c 0
 153 16 129 -8 100 -8 c 0
 71 -8 47 16 47 45 c 0
EndSplineSet
Fore
Refer: 274 732 N 1 0 0 1 115 0 2
Refer: 2 111 N 1 0 0 1 0 0 3
EndChar

StartChar: odieresis
Encoding: 246 246 191
Width: 496
Flags: HMW
LayerCount: 3
Back
SplineSet
47 45 m 0
 47 74 71 98 100 98 c 0
 129 98 153 74 153 45 c 0
 153 16 129 -8 100 -8 c 0
 71 -8 47 16 47 45 c 0
EndSplineSet
Fore
Refer: 116 168 N 1 0 0 1 115 0 2
Refer: 2 111 N 1 0 0 1 0 0 3
EndChar

StartChar: divide
Encoding: 247 247 192
Width: 200
Flags: HMW
LayerCount: 3
Back
SplineSet
47 45 m 0
 47 74 71 98 100 98 c 0
 129 98 153 74 153 45 c 0
 153 16 129 -8 100 -8 c 0
 71 -8 47 16 47 45 c 0
EndSplineSet
Fore
SplineSet
47 45 m 0
 47 74 71 98 100 98 c 0
 129 98 153 74 153 45 c 0
 153 16 129 -8 100 -8 c 0
 71 -8 47 16 47 45 c 0
EndSplineSet
EndChar

StartChar: ugrave
Encoding: 249 249 193
Width: 517
Flags: HMW
LayerCount: 3
Back
SplineSet
47 45 m 0
 47 74 71 98 100 98 c 0
 129 98 153 74 153 45 c 0
 153 16 129 -8 100 -8 c 0
 71 -8 47 16 47 45 c 0
EndSplineSet
Fore
Refer: 104 96 N 1 0 0 1 103 0 2
Refer: 71 117 N 1 0 0 1 0 0 3
EndChar

StartChar: uacute
Encoding: 250 250 194
Width: 517
Flags: HMW
LayerCount: 3
Back
SplineSet
47 45 m 0
 47 74 71 98 100 98 c 0
 129 98 153 74 153 45 c 0
 153 16 129 -8 100 -8 c 0
 71 -8 47 16 47 45 c 0
EndSplineSet
Fore
Refer: 128 180 N 1 0 0 1 140 0 2
Refer: 71 117 N 1 0 0 1 0 0 3
EndChar

StartChar: ucircumflex
Encoding: 251 251 195
Width: 517
Flags: HMW
LayerCount: 3
Back
SplineSet
47 45 m 0
 47 74 71 98 100 98 c 0
 129 98 153 74 153 45 c 0
 153 16 129 -8 100 -8 c 0
 71 -8 47 16 47 45 c 0
EndSplineSet
Fore
Refer: 268 710 N 1 0 0 1 121 0 2
Refer: 71 117 N 1 0 0 1 0 0 3
EndChar

StartChar: udieresis
Encoding: 252 252 196
Width: 517
Flags: HMW
LayerCount: 3
Back
SplineSet
47 45 m 0
 47 74 71 98 100 98 c 0
 129 98 153 74 153 45 c 0
 153 16 129 -8 100 -8 c 0
 71 -8 47 16 47 45 c 0
EndSplineSet
Fore
Refer: 116 168 N 1 0 0 1 121 0 2
Refer: 71 117 N 1 0 0 1 0 0 3
EndChar

StartChar: yacute
Encoding: 253 253 197
Width: 445
Flags: HMW
LayerCount: 3
Back
SplineSet
47 45 m 0
 47 74 71 98 100 98 c 0
 129 98 153 74 153 45 c 0
 153 16 129 -8 100 -8 c 0
 71 -8 47 16 47 45 c 0
EndSplineSet
Fore
Refer: 128 180 N 1 0 0 1 115 0 2
Refer: 75 121 N 1 0 0 1 0 0 3
EndChar

StartChar: ydieresis
Encoding: 255 255 198
Width: 445
Flags: HMW
LayerCount: 3
Back
SplineSet
47 45 m 0
 47 74 71 98 100 98 c 0
 129 98 153 74 153 45 c 0
 153 16 129 -8 100 -8 c 0
 71 -8 47 16 47 45 c 0
EndSplineSet
Fore
Refer: 116 168 N 1 0 0 1 96 0 2
Refer: 75 121 N 1 0 0 1 0 0 3
EndChar

StartChar: Amacron
Encoding: 256 256 199
Width: 200
Flags: HMW
LayerCount: 3
Back
SplineSet
47 45 m 0
 47 74 71 98 100 98 c 0
 129 98 153 74 153 45 c 0
 153 16 129 -8 100 -8 c 0
 71 -8 47 16 47 45 c 0
EndSplineSet
Fore
SplineSet
47 45 m 0
 47 74 71 98 100 98 c 0
 129 98 153 74 153 45 c 0
 153 16 129 -8 100 -8 c 0
 71 -8 47 16 47 45 c 0
EndSplineSet
EndChar

StartChar: amacron
Encoding: 257 257 200
Width: 415
Flags: HMW
LayerCount: 3
Back
SplineSet
47 45 m 0
 47 74 71 98 100 98 c 0
 129 98 153 74 153 45 c 0
 153 16 129 -8 100 -8 c 0
 71 -8 47 16 47 45 c 0
EndSplineSet
Fore
Refer: 123 175 N 1 0 0 1 62 0 2
Refer: 6 97 N 1 0 0 1 0 0 3
EndChar

StartChar: Emacron
Encoding: 274 274 201
Width: 200
Flags: HMW
LayerCount: 3
Back
SplineSet
47 45 m 0
 47 74 71 98 100 98 c 0
 129 98 153 74 153 45 c 0
 153 16 129 -8 100 -8 c 0
 71 -8 47 16 47 45 c 0
EndSplineSet
Fore
SplineSet
47 45 m 0
 47 74 71 98 100 98 c 0
 129 98 153 74 153 45 c 0
 153 16 129 -8 100 -8 c 0
 71 -8 47 16 47 45 c 0
EndSplineSet
EndChar

StartChar: emacron
Encoding: 275 275 202
Width: 418
Flags: HMW
LayerCount: 3
Back
SplineSet
47 45 m 0
 47 74 71 98 100 98 c 0
 129 98 153 74 153 45 c 0
 153 16 129 -8 100 -8 c 0
 71 -8 47 16 47 45 c 0
EndSplineSet
Fore
Refer: 123 175 N 1 0 0 1 87 0 2
Refer: 63 101 N 1 0 0 1 0 0 3
EndChar

StartChar: Imacron
Encoding: 298 298 203
Width: 200
Flags: HMW
LayerCount: 3
Back
SplineSet
47 45 m 0
 47 74 71 98 100 98 c 0
 129 98 153 74 153 45 c 0
 153 16 129 -8 100 -8 c 0
 71 -8 47 16 47 45 c 0
EndSplineSet
Fore
SplineSet
47 45 m 0
 47 74 71 98 100 98 c 0
 129 98 153 74 153 45 c 0
 153 16 129 -8 100 -8 c 0
 71 -8 47 16 47 45 c 0
EndSplineSet
EndChar

StartChar: imacron
Encoding: 299 299 204
Width: 265
Flags: HMW
AnchorPoint: "Top" 133 500 mark 0
LayerCount: 3
Back
SplineSet
47 45 m 0
 47 74 71 98 100 98 c 0
 129 98 153 74 153 45 c 0
 153 16 129 -8 100 -8 c 0
 71 -8 47 16 47 45 c 0
EndSplineSet
Fore
SplineSet
45 577 m 1
 220 577 l 1
 220 535 l 1
 45 535 l 1
 45 577 l 1
EndSplineSet
Refer: 89 305 N 1 0 0 1 0 0 3
EndChar

StartChar: IJ
Encoding: 306 306 205
Width: 200
Flags: HMW
LayerCount: 3
Back
SplineSet
47 45 m 0
 47 74 71 98 100 98 c 0
 129 98 153 74 153 45 c 0
 153 16 129 -8 100 -8 c 0
 71 -8 47 16 47 45 c 0
EndSplineSet
Fore
SplineSet
47 45 m 0
 47 74 71 98 100 98 c 0
 129 98 153 74 153 45 c 0
 153 16 129 -8 100 -8 c 0
 71 -8 47 16 47 45 c 0
EndSplineSet
EndChar

StartChar: ij
Encoding: 307 307 206
Width: 200
Flags: HMW
LayerCount: 3
Back
SplineSet
47 45 m 0
 47 74 71 98 100 98 c 0
 129 98 153 74 153 45 c 0
 153 16 129 -8 100 -8 c 0
 71 -8 47 16 47 45 c 0
EndSplineSet
Fore
SplineSet
47 45 m 0
 47 74 71 98 100 98 c 0
 129 98 153 74 153 45 c 0
 153 16 129 -8 100 -8 c 0
 71 -8 47 16 47 45 c 0
EndSplineSet
EndChar

StartChar: Omacron
Encoding: 332 332 207
Width: 200
Flags: HMW
LayerCount: 3
Back
SplineSet
47 45 m 0
 47 74 71 98 100 98 c 0
 129 98 153 74 153 45 c 0
 153 16 129 -8 100 -8 c 0
 71 -8 47 16 47 45 c 0
EndSplineSet
Fore
SplineSet
47 45 m 0
 47 74 71 98 100 98 c 0
 129 98 153 74 153 45 c 0
 153 16 129 -8 100 -8 c 0
 71 -8 47 16 47 45 c 0
EndSplineSet
EndChar

StartChar: omacron
Encoding: 333 333 208
Width: 496
Flags: HMW
LayerCount: 3
Back
SplineSet
47 45 m 0
 47 74 71 98 100 98 c 0
 129 98 153 74 153 45 c 0
 153 16 129 -8 100 -8 c 0
 71 -8 47 16 47 45 c 0
EndSplineSet
Fore
Refer: 123 175 N 1 0 0 1 115 0 2
Refer: 2 111 N 1 0 0 1 0 0 3
EndChar

StartChar: Umacron
Encoding: 362 362 209
Width: 200
Flags: HMW
LayerCount: 3
Back
SplineSet
47 45 m 0
 47 74 71 98 100 98 c 0
 129 98 153 74 153 45 c 0
 153 16 129 -8 100 -8 c 0
 71 -8 47 16 47 45 c 0
EndSplineSet
Fore
SplineSet
47 45 m 0
 47 74 71 98 100 98 c 0
 129 98 153 74 153 45 c 0
 153 16 129 -8 100 -8 c 0
 71 -8 47 16 47 45 c 0
EndSplineSet
EndChar

StartChar: umacron
Encoding: 363 363 210
Width: 517
Flags: HMW
LayerCount: 3
Back
SplineSet
47 45 m 0
 47 74 71 98 100 98 c 0
 129 98 153 74 153 45 c 0
 153 16 129 -8 100 -8 c 0
 71 -8 47 16 47 45 c 0
EndSplineSet
Fore
Refer: 123 175 N 1 0 0 1 121 0 2
Refer: 71 117 N 1 0 0 1 0 0 3
EndChar

StartChar: quotesinglbase
Encoding: 8218 8218 211
Width: 200
Flags: HMW
LayerCount: 3
Back
SplineSet
47 45 m 0
 47 74 71 98 100 98 c 0
 129 98 153 74 153 45 c 0
 153 16 129 -8 100 -8 c 0
 71 -8 47 16 47 45 c 0
EndSplineSet
Fore
SplineSet
47 45 m 0
 47 74 71 98 100 98 c 0
 129 98 153 74 153 45 c 0
 153 16 129 -8 100 -8 c 0
 71 -8 47 16 47 45 c 0
EndSplineSet
EndChar

StartChar: quotereversed
Encoding: 8219 8219 212
Width: 200
Flags: HMW
LayerCount: 3
Back
SplineSet
47 45 m 0
 47 74 71 98 100 98 c 0
 129 98 153 74 153 45 c 0
 153 16 129 -8 100 -8 c 0
 71 -8 47 16 47 45 c 0
EndSplineSet
Fore
SplineSet
47 45 m 0
 47 74 71 98 100 98 c 0
 129 98 153 74 153 45 c 0
 153 16 129 -8 100 -8 c 0
 71 -8 47 16 47 45 c 0
EndSplineSet
EndChar

StartChar: dagger
Encoding: 8224 8224 213
Width: 200
Flags: HMW
LayerCount: 3
Back
SplineSet
47 45 m 0
 47 74 71 98 100 98 c 0
 129 98 153 74 153 45 c 0
 153 16 129 -8 100 -8 c 0
 71 -8 47 16 47 45 c 0
EndSplineSet
Fore
SplineSet
47 45 m 0
 47 74 71 98 100 98 c 0
 129 98 153 74 153 45 c 0
 153 16 129 -8 100 -8 c 0
 71 -8 47 16 47 45 c 0
EndSplineSet
EndChar

StartChar: daggerdbl
Encoding: 8225 8225 214
Width: 200
Flags: HMW
LayerCount: 3
Back
SplineSet
47 45 m 0
 47 74 71 98 100 98 c 0
 129 98 153 74 153 45 c 0
 153 16 129 -8 100 -8 c 0
 71 -8 47 16 47 45 c 0
EndSplineSet
Fore
SplineSet
47 45 m 0
 47 74 71 98 100 98 c 0
 129 98 153 74 153 45 c 0
 153 16 129 -8 100 -8 c 0
 71 -8 47 16 47 45 c 0
EndSplineSet
EndChar

StartChar: quotedblbase
Encoding: 8222 8222 215
Width: 200
Flags: HMW
LayerCount: 3
Back
SplineSet
47 45 m 0
 47 74 71 98 100 98 c 0
 129 98 153 74 153 45 c 0
 153 16 129 -8 100 -8 c 0
 71 -8 47 16 47 45 c 0
EndSplineSet
Fore
SplineSet
47 45 m 0
 47 74 71 98 100 98 c 0
 129 98 153 74 153 45 c 0
 153 16 129 -8 100 -8 c 0
 71 -8 47 16 47 45 c 0
EndSplineSet
EndChar

StartChar: uni201F
Encoding: 8223 8223 216
Width: 200
Flags: HMW
LayerCount: 3
Back
SplineSet
47 45 m 0
 47 74 71 98 100 98 c 0
 129 98 153 74 153 45 c 0
 153 16 129 -8 100 -8 c 0
 71 -8 47 16 47 45 c 0
EndSplineSet
Fore
SplineSet
47 45 m 0
 47 74 71 98 100 98 c 0
 129 98 153 74 153 45 c 0
 153 16 129 -8 100 -8 c 0
 71 -8 47 16 47 45 c 0
EndSplineSet
EndChar

StartChar: onedotenleader
Encoding: 8228 8228 217
Width: 200
Flags: HMW
LayerCount: 3
Back
SplineSet
47 45 m 0
 47 74 71 98 100 98 c 0
 129 98 153 74 153 45 c 0
 153 16 129 -8 100 -8 c 0
 71 -8 47 16 47 45 c 0
EndSplineSet
Fore
SplineSet
47 45 m 0
 47 74 71 98 100 98 c 0
 129 98 153 74 153 45 c 0
 153 16 129 -8 100 -8 c 0
 71 -8 47 16 47 45 c 0
EndSplineSet
EndChar

StartChar: twodotenleader
Encoding: 8229 8229 218
Width: 200
Flags: HMW
LayerCount: 3
Back
SplineSet
47 45 m 0
 47 74 71 98 100 98 c 0
 129 98 153 74 153 45 c 0
 153 16 129 -8 100 -8 c 0
 71 -8 47 16 47 45 c 0
EndSplineSet
Fore
SplineSet
47 45 m 0
 47 74 71 98 100 98 c 0
 129 98 153 74 153 45 c 0
 153 16 129 -8 100 -8 c 0
 71 -8 47 16 47 45 c 0
EndSplineSet
EndChar

StartChar: ellipsis
Encoding: 8230 8230 219
Width: 200
Flags: HMW
LayerCount: 3
Back
SplineSet
47 45 m 0
 47 74 71 98 100 98 c 0
 129 98 153 74 153 45 c 0
 153 16 129 -8 100 -8 c 0
 71 -8 47 16 47 45 c 0
EndSplineSet
Fore
SplineSet
47 45 m 0
 47 74 71 98 100 98 c 0
 129 98 153 74 153 45 c 0
 153 16 129 -8 100 -8 c 0
 71 -8 47 16 47 45 c 0
EndSplineSet
EndChar

StartChar: uni2027
Encoding: 8231 8231 220
Width: 200
Flags: HMW
LayerCount: 3
Back
SplineSet
47 45 m 0
 47 74 71 98 100 98 c 0
 129 98 153 74 153 45 c 0
 153 16 129 -8 100 -8 c 0
 71 -8 47 16 47 45 c 0
EndSplineSet
Fore
SplineSet
47 45 m 0
 47 74 71 98 100 98 c 0
 129 98 153 74 153 45 c 0
 153 16 129 -8 100 -8 c 0
 71 -8 47 16 47 45 c 0
EndSplineSet
EndChar

StartChar: exclamdbl
Encoding: 8252 8252 221
Width: 200
Flags: HMW
LayerCount: 3
Back
SplineSet
47 45 m 0
 47 74 71 98 100 98 c 0
 129 98 153 74 153 45 c 0
 153 16 129 -8 100 -8 c 0
 71 -8 47 16 47 45 c 0
EndSplineSet
Fore
SplineSet
47 45 m 0
 47 74 71 98 100 98 c 0
 129 98 153 74 153 45 c 0
 153 16 129 -8 100 -8 c 0
 71 -8 47 16 47 45 c 0
EndSplineSet
EndChar

StartChar: uni203D
Encoding: 8253 8253 222
Width: 200
Flags: HMW
LayerCount: 3
Back
SplineSet
47 45 m 0
 47 74 71 98 100 98 c 0
 129 98 153 74 153 45 c 0
 153 16 129 -8 100 -8 c 0
 71 -8 47 16 47 45 c 0
EndSplineSet
Fore
SplineSet
47 45 m 0
 47 74 71 98 100 98 c 0
 129 98 153 74 153 45 c 0
 153 16 129 -8 100 -8 c 0
 71 -8 47 16 47 45 c 0
EndSplineSet
EndChar

StartChar: uni2047
Encoding: 8263 8263 223
Width: 200
Flags: HMW
LayerCount: 3
Back
SplineSet
47 45 m 0
 47 74 71 98 100 98 c 0
 129 98 153 74 153 45 c 0
 153 16 129 -8 100 -8 c 0
 71 -8 47 16 47 45 c 0
EndSplineSet
Fore
SplineSet
47 45 m 0
 47 74 71 98 100 98 c 0
 129 98 153 74 153 45 c 0
 153 16 129 -8 100 -8 c 0
 71 -8 47 16 47 45 c 0
EndSplineSet
EndChar

StartChar: uni2048
Encoding: 8264 8264 224
Width: 200
Flags: HMW
LayerCount: 3
Back
SplineSet
47 45 m 0
 47 74 71 98 100 98 c 0
 129 98 153 74 153 45 c 0
 153 16 129 -8 100 -8 c 0
 71 -8 47 16 47 45 c 0
EndSplineSet
Fore
SplineSet
47 45 m 0
 47 74 71 98 100 98 c 0
 129 98 153 74 153 45 c 0
 153 16 129 -8 100 -8 c 0
 71 -8 47 16 47 45 c 0
EndSplineSet
EndChar

StartChar: uni2049
Encoding: 8265 8265 225
Width: 200
Flags: HMW
LayerCount: 3
Back
SplineSet
47 45 m 0
 47 74 71 98 100 98 c 0
 129 98 153 74 153 45 c 0
 153 16 129 -8 100 -8 c 0
 71 -8 47 16 47 45 c 0
EndSplineSet
Fore
SplineSet
47 45 m 0
 47 74 71 98 100 98 c 0
 129 98 153 74 153 45 c 0
 153 16 129 -8 100 -8 c 0
 71 -8 47 16 47 45 c 0
EndSplineSet
EndChar

StartChar: uni2074
Encoding: 8308 8308 226
Width: 200
Flags: HMW
LayerCount: 3
Back
SplineSet
47 45 m 0
 47 74 71 98 100 98 c 0
 129 98 153 74 153 45 c 0
 153 16 129 -8 100 -8 c 0
 71 -8 47 16 47 45 c 0
EndSplineSet
Fore
SplineSet
47 45 m 0
 47 74 71 98 100 98 c 0
 129 98 153 74 153 45 c 0
 153 16 129 -8 100 -8 c 0
 71 -8 47 16 47 45 c 0
EndSplineSet
EndChar

StartChar: uni2075
Encoding: 8309 8309 227
Width: 200
Flags: HMW
LayerCount: 3
Back
SplineSet
47 45 m 0
 47 74 71 98 100 98 c 0
 129 98 153 74 153 45 c 0
 153 16 129 -8 100 -8 c 0
 71 -8 47 16 47 45 c 0
EndSplineSet
Fore
SplineSet
47 45 m 0
 47 74 71 98 100 98 c 0
 129 98 153 74 153 45 c 0
 153 16 129 -8 100 -8 c 0
 71 -8 47 16 47 45 c 0
EndSplineSet
EndChar

StartChar: uni2076
Encoding: 8310 8310 228
Width: 200
Flags: HMW
LayerCount: 3
Back
SplineSet
47 45 m 0
 47 74 71 98 100 98 c 0
 129 98 153 74 153 45 c 0
 153 16 129 -8 100 -8 c 0
 71 -8 47 16 47 45 c 0
EndSplineSet
Fore
SplineSet
47 45 m 0
 47 74 71 98 100 98 c 0
 129 98 153 74 153 45 c 0
 153 16 129 -8 100 -8 c 0
 71 -8 47 16 47 45 c 0
EndSplineSet
EndChar

StartChar: uni2077
Encoding: 8311 8311 229
Width: 200
Flags: HMW
LayerCount: 3
Back
SplineSet
47 45 m 0
 47 74 71 98 100 98 c 0
 129 98 153 74 153 45 c 0
 153 16 129 -8 100 -8 c 0
 71 -8 47 16 47 45 c 0
EndSplineSet
Fore
SplineSet
47 45 m 0
 47 74 71 98 100 98 c 0
 129 98 153 74 153 45 c 0
 153 16 129 -8 100 -8 c 0
 71 -8 47 16 47 45 c 0
EndSplineSet
EndChar

StartChar: uni2078
Encoding: 8312 8312 230
Width: 200
Flags: HMW
LayerCount: 3
Back
SplineSet
47 45 m 0
 47 74 71 98 100 98 c 0
 129 98 153 74 153 45 c 0
 153 16 129 -8 100 -8 c 0
 71 -8 47 16 47 45 c 0
EndSplineSet
Fore
SplineSet
47 45 m 0
 47 74 71 98 100 98 c 0
 129 98 153 74 153 45 c 0
 153 16 129 -8 100 -8 c 0
 71 -8 47 16 47 45 c 0
EndSplineSet
EndChar

StartChar: uni2079
Encoding: 8313 8313 231
Width: 200
Flags: HMW
LayerCount: 3
Back
SplineSet
47 45 m 0
 47 74 71 98 100 98 c 0
 129 98 153 74 153 45 c 0
 153 16 129 -8 100 -8 c 0
 71 -8 47 16 47 45 c 0
EndSplineSet
Fore
SplineSet
47 45 m 0
 47 74 71 98 100 98 c 0
 129 98 153 74 153 45 c 0
 153 16 129 -8 100 -8 c 0
 71 -8 47 16 47 45 c 0
EndSplineSet
EndChar

StartChar: uni2080
Encoding: 8320 8320 232
Width: 200
Flags: HMW
LayerCount: 3
Back
SplineSet
47 45 m 0
 47 74 71 98 100 98 c 0
 129 98 153 74 153 45 c 0
 153 16 129 -8 100 -8 c 0
 71 -8 47 16 47 45 c 0
EndSplineSet
Fore
SplineSet
47 45 m 0
 47 74 71 98 100 98 c 0
 129 98 153 74 153 45 c 0
 153 16 129 -8 100 -8 c 0
 71 -8 47 16 47 45 c 0
EndSplineSet
EndChar

StartChar: uni2081
Encoding: 8321 8321 233
Width: 200
Flags: HMW
LayerCount: 3
Back
SplineSet
47 45 m 0
 47 74 71 98 100 98 c 0
 129 98 153 74 153 45 c 0
 153 16 129 -8 100 -8 c 0
 71 -8 47 16 47 45 c 0
EndSplineSet
Fore
SplineSet
47 45 m 0
 47 74 71 98 100 98 c 0
 129 98 153 74 153 45 c 0
 153 16 129 -8 100 -8 c 0
 71 -8 47 16 47 45 c 0
EndSplineSet
EndChar

StartChar: uni2082
Encoding: 8322 8322 234
Width: 200
Flags: HMW
LayerCount: 3
Back
SplineSet
47 45 m 0
 47 74 71 98 100 98 c 0
 129 98 153 74 153 45 c 0
 153 16 129 -8 100 -8 c 0
 71 -8 47 16 47 45 c 0
EndSplineSet
Fore
SplineSet
47 45 m 0
 47 74 71 98 100 98 c 0
 129 98 153 74 153 45 c 0
 153 16 129 -8 100 -8 c 0
 71 -8 47 16 47 45 c 0
EndSplineSet
EndChar

StartChar: uni2083
Encoding: 8323 8323 235
Width: 200
Flags: HMW
LayerCount: 3
Back
SplineSet
47 45 m 0
 47 74 71 98 100 98 c 0
 129 98 153 74 153 45 c 0
 153 16 129 -8 100 -8 c 0
 71 -8 47 16 47 45 c 0
EndSplineSet
Fore
SplineSet
47 45 m 0
 47 74 71 98 100 98 c 0
 129 98 153 74 153 45 c 0
 153 16 129 -8 100 -8 c 0
 71 -8 47 16 47 45 c 0
EndSplineSet
EndChar

StartChar: uni2084
Encoding: 8324 8324 236
Width: 200
Flags: HMW
LayerCount: 3
Back
SplineSet
47 45 m 0
 47 74 71 98 100 98 c 0
 129 98 153 74 153 45 c 0
 153 16 129 -8 100 -8 c 0
 71 -8 47 16 47 45 c 0
EndSplineSet
Fore
SplineSet
47 45 m 0
 47 74 71 98 100 98 c 0
 129 98 153 74 153 45 c 0
 153 16 129 -8 100 -8 c 0
 71 -8 47 16 47 45 c 0
EndSplineSet
EndChar

StartChar: uni2085
Encoding: 8325 8325 237
Width: 200
Flags: HMW
LayerCount: 3
Back
SplineSet
47 45 m 0
 47 74 71 98 100 98 c 0
 129 98 153 74 153 45 c 0
 153 16 129 -8 100 -8 c 0
 71 -8 47 16 47 45 c 0
EndSplineSet
Fore
SplineSet
47 45 m 0
 47 74 71 98 100 98 c 0
 129 98 153 74 153 45 c 0
 153 16 129 -8 100 -8 c 0
 71 -8 47 16 47 45 c 0
EndSplineSet
EndChar

StartChar: uni2086
Encoding: 8326 8326 238
Width: 200
Flags: HMW
LayerCount: 3
Back
SplineSet
47 45 m 0
 47 74 71 98 100 98 c 0
 129 98 153 74 153 45 c 0
 153 16 129 -8 100 -8 c 0
 71 -8 47 16 47 45 c 0
EndSplineSet
Fore
SplineSet
47 45 m 0
 47 74 71 98 100 98 c 0
 129 98 153 74 153 45 c 0
 153 16 129 -8 100 -8 c 0
 71 -8 47 16 47 45 c 0
EndSplineSet
EndChar

StartChar: uni2087
Encoding: 8327 8327 239
Width: 200
Flags: HMW
LayerCount: 3
Back
SplineSet
47 45 m 0
 47 74 71 98 100 98 c 0
 129 98 153 74 153 45 c 0
 153 16 129 -8 100 -8 c 0
 71 -8 47 16 47 45 c 0
EndSplineSet
Fore
SplineSet
47 45 m 0
 47 74 71 98 100 98 c 0
 129 98 153 74 153 45 c 0
 153 16 129 -8 100 -8 c 0
 71 -8 47 16 47 45 c 0
EndSplineSet
EndChar

StartChar: uni2088
Encoding: 8328 8328 240
Width: 200
Flags: HMW
LayerCount: 3
Back
SplineSet
47 45 m 0
 47 74 71 98 100 98 c 0
 129 98 153 74 153 45 c 0
 153 16 129 -8 100 -8 c 0
 71 -8 47 16 47 45 c 0
EndSplineSet
Fore
SplineSet
47 45 m 0
 47 74 71 98 100 98 c 0
 129 98 153 74 153 45 c 0
 153 16 129 -8 100 -8 c 0
 71 -8 47 16 47 45 c 0
EndSplineSet
EndChar

StartChar: uni2089
Encoding: 8329 8329 241
Width: 200
Flags: HMW
LayerCount: 3
Back
SplineSet
47 45 m 0
 47 74 71 98 100 98 c 0
 129 98 153 74 153 45 c 0
 153 16 129 -8 100 -8 c 0
 71 -8 47 16 47 45 c 0
EndSplineSet
Fore
SplineSet
47 45 m 0
 47 74 71 98 100 98 c 0
 129 98 153 74 153 45 c 0
 153 16 129 -8 100 -8 c 0
 71 -8 47 16 47 45 c 0
EndSplineSet
EndChar

StartChar: arrowleft
Encoding: 8592 8592 242
Width: 200
Flags: HMW
LayerCount: 3
Back
SplineSet
47 45 m 0
 47 74 71 98 100 98 c 0
 129 98 153 74 153 45 c 0
 153 16 129 -8 100 -8 c 0
 71 -8 47 16 47 45 c 0
EndSplineSet
Fore
SplineSet
47 45 m 0
 47 74 71 98 100 98 c 0
 129 98 153 74 153 45 c 0
 153 16 129 -8 100 -8 c 0
 71 -8 47 16 47 45 c 0
EndSplineSet
EndChar

StartChar: arrowup
Encoding: 8593 8593 243
Width: 200
Flags: HMW
LayerCount: 3
Back
SplineSet
47 45 m 0
 47 74 71 98 100 98 c 0
 129 98 153 74 153 45 c 0
 153 16 129 -8 100 -8 c 0
 71 -8 47 16 47 45 c 0
EndSplineSet
Fore
SplineSet
47 45 m 0
 47 74 71 98 100 98 c 0
 129 98 153 74 153 45 c 0
 153 16 129 -8 100 -8 c 0
 71 -8 47 16 47 45 c 0
EndSplineSet
EndChar

StartChar: arrowright
Encoding: 8594 8594 244
Width: 200
Flags: HMW
LayerCount: 3
Back
SplineSet
47 45 m 0
 47 74 71 98 100 98 c 0
 129 98 153 74 153 45 c 0
 153 16 129 -8 100 -8 c 0
 71 -8 47 16 47 45 c 0
EndSplineSet
Fore
SplineSet
47 45 m 0
 47 74 71 98 100 98 c 0
 129 98 153 74 153 45 c 0
 153 16 129 -8 100 -8 c 0
 71 -8 47 16 47 45 c 0
EndSplineSet
EndChar

StartChar: arrowdown
Encoding: 8595 8595 245
Width: 200
Flags: HMW
LayerCount: 3
Back
SplineSet
47 45 m 0
 47 74 71 98 100 98 c 0
 129 98 153 74 153 45 c 0
 153 16 129 -8 100 -8 c 0
 71 -8 47 16 47 45 c 0
EndSplineSet
Fore
SplineSet
47 45 m 0
 47 74 71 98 100 98 c 0
 129 98 153 74 153 45 c 0
 153 16 129 -8 100 -8 c 0
 71 -8 47 16 47 45 c 0
EndSplineSet
EndChar

StartChar: uni2196
Encoding: 8598 8598 246
Width: 200
Flags: HMW
LayerCount: 3
Back
SplineSet
47 45 m 0
 47 74 71 98 100 98 c 0
 129 98 153 74 153 45 c 0
 153 16 129 -8 100 -8 c 0
 71 -8 47 16 47 45 c 0
EndSplineSet
Fore
SplineSet
47 45 m 0
 47 74 71 98 100 98 c 0
 129 98 153 74 153 45 c 0
 153 16 129 -8 100 -8 c 0
 71 -8 47 16 47 45 c 0
EndSplineSet
EndChar

StartChar: uni2197
Encoding: 8599 8599 247
Width: 200
Flags: HMW
LayerCount: 3
Back
SplineSet
47 45 m 0
 47 74 71 98 100 98 c 0
 129 98 153 74 153 45 c 0
 153 16 129 -8 100 -8 c 0
 71 -8 47 16 47 45 c 0
EndSplineSet
Fore
SplineSet
47 45 m 0
 47 74 71 98 100 98 c 0
 129 98 153 74 153 45 c 0
 153 16 129 -8 100 -8 c 0
 71 -8 47 16 47 45 c 0
EndSplineSet
EndChar

StartChar: uni2198
Encoding: 8600 8600 248
Width: 200
Flags: HMW
LayerCount: 3
Back
SplineSet
47 45 m 0
 47 74 71 98 100 98 c 0
 129 98 153 74 153 45 c 0
 153 16 129 -8 100 -8 c 0
 71 -8 47 16 47 45 c 0
EndSplineSet
Fore
SplineSet
47 45 m 0
 47 74 71 98 100 98 c 0
 129 98 153 74 153 45 c 0
 153 16 129 -8 100 -8 c 0
 71 -8 47 16 47 45 c 0
EndSplineSet
EndChar

StartChar: uni2199
Encoding: 8601 8601 249
Width: 200
Flags: HMW
LayerCount: 3
Back
SplineSet
47 45 m 0
 47 74 71 98 100 98 c 0
 129 98 153 74 153 45 c 0
 153 16 129 -8 100 -8 c 0
 71 -8 47 16 47 45 c 0
EndSplineSet
Fore
SplineSet
47 45 m 0
 47 74 71 98 100 98 c 0
 129 98 153 74 153 45 c 0
 153 16 129 -8 100 -8 c 0
 71 -8 47 16 47 45 c 0
EndSplineSet
EndChar

StartChar: radical
Encoding: 8730 8730 250
Width: 200
Flags: HMW
LayerCount: 3
Back
SplineSet
47 45 m 0
 47 74 71 98 100 98 c 0
 129 98 153 74 153 45 c 0
 153 16 129 -8 100 -8 c 0
 71 -8 47 16 47 45 c 0
EndSplineSet
Fore
SplineSet
47 45 m 0
 47 74 71 98 100 98 c 0
 129 98 153 74 153 45 c 0
 153 16 129 -8 100 -8 c 0
 71 -8 47 16 47 45 c 0
EndSplineSet
EndChar

StartChar: uni2219
Encoding: 8729 8729 251
Width: 200
Flags: HMW
LayerCount: 3
Back
SplineSet
47 45 m 0
 47 74 71 98 100 98 c 0
 129 98 153 74 153 45 c 0
 153 16 129 -8 100 -8 c 0
 71 -8 47 16 47 45 c 0
EndSplineSet
Fore
SplineSet
47 45 m 0
 47 74 71 98 100 98 c 0
 129 98 153 74 153 45 c 0
 153 16 129 -8 100 -8 c 0
 71 -8 47 16 47 45 c 0
EndSplineSet
EndChar

StartChar: uni2766
Encoding: 10086 10086 252
Width: 200
Flags: HMW
LayerCount: 3
Back
SplineSet
47 45 m 0
 47 74 71 98 100 98 c 0
 129 98 153 74 153 45 c 0
 153 16 129 -8 100 -8 c 0
 71 -8 47 16 47 45 c 0
EndSplineSet
Fore
SplineSet
47 45 m 0
 47 74 71 98 100 98 c 0
 129 98 153 74 153 45 c 0
 153 16 129 -8 100 -8 c 0
 71 -8 47 16 47 45 c 0
EndSplineSet
EndChar

StartChar: uni2767
Encoding: 10087 10087 253
Width: 200
Flags: HMW
LayerCount: 3
Back
SplineSet
47 45 m 0
 47 74 71 98 100 98 c 0
 129 98 153 74 153 45 c 0
 153 16 129 -8 100 -8 c 0
 71 -8 47 16 47 45 c 0
EndSplineSet
Fore
SplineSet
47 45 m 0
 47 74 71 98 100 98 c 0
 129 98 153 74 153 45 c 0
 153 16 129 -8 100 -8 c 0
 71 -8 47 16 47 45 c 0
EndSplineSet
EndChar

StartChar: OE
Encoding: 338 338 254
Width: 912
Flags: HMW
AnchorPoint: "CapTop" 270 690 basechar 0
LayerCount: 3
Back
SplineSet
490 57 m 1
 490 577 l 1
 455 602 410 614 361 614 c 0
 225 614 129 497 129 333 c 0
 129 150 235 27 379 27 c 0
 425 27 465 37 490 57 c 1
485 640 m 2
 860 640 l 1
 865 490 l 1
 834 490 l 1
 830 524 l 2
 822 590 800 604 758 604 c 2
 570 604 l 1
 570 352 l 1
 762 352 l 1
 762 420 l 1
 795 420 l 1
 795 335 l 1
 795 240 l 1
 762 240 l 1
 762 315 l 1
 570 315 l 1
 570 68 l 2
 570 48 580 38 600 38 c 2
 748 38 l 2
 808 38 836 62 860 147 c 2
 868 175 l 1
 900 175 l 1
 865 0 l 1
 485 0 l 2
 450 0 425 -10 370 -10 c 0
 183 -10 35 133 35 320 c 0
 35 507 183 650 370 650 c 0
 425 650 450 640 485 640 c 2
EndSplineSet
Fore
SplineSet
477 55 m 1
 477 559 l 1
 445 582 403 594 355 594 c 0
 224 594 129 483 129 323 c 0
 129 147 232 27 373 27 c 0
 417 27 452 37 477 55 c 1
482 0 m 1
 447 0 419 -10 364 -10 c 0
 184 -10 35 127 35 310 c 0
 35 493 184 630 364 630 c 0
 419 630 447 620 482 620 c 1
 837 620 l 1
 842 470 l 1
 811 470 l 1
 805 512 l 2
 797 570 777 584 735 584 c 2
 557 584 l 1
 557 345 l 1
 737 345 l 1
 737 413 l 1
 770 413 l 1
 770 328 l 1
 770 233 l 1
 737 233 l 1
 737 308 l 1
 557 308 l 1
 557 68 l 2
 557 48 567 38 587 38 c 2
 719 38 l 2
 779 38 804 60 827 125 c 2
 845 175 l 1
 877 175 l 1
 842 0 l 1
 482 0 l 1
EndSplineSet
Layer: 2
SplineSet
480 55 m 1
 480 560 l 1
 446 584 403 596 355 596 c 0
 223 596 130 482 130 323 c 0
 130 145 233 26 373 26 c 0
 418 26 456 36 480 55 c 1
475 621 m 2
 839 621 l 1
 844 475 l 1
 814 475 l 1
 810 508 l 2
 802 572 781 586 740 586 c 2
 558 586 l 1
 558 341 l 1
 744 341 l 1
 744 407 l 1
 776 407 l 1
 776 325 l 1
 776 233 l 1
 744 233 l 1
 744 306 l 1
 558 306 l 1
 558 66 l 2
 558 47 568 37 587 37 c 2
 731 37 l 2
 789 37 816 61 839 143 c 2
 847 170 l 1
 878 170 l 1
 844 0 l 1
 475 0 l 2
 441 0 417 -10 364 -10 c 0
 183 -10 39 129 39 310 c 0
 39 491 183 630 364 630 c 0
 417 630 441 621 475 621 c 2
EndSplineSet
EndChar

StartChar: uni1E9E
Encoding: 7838 7838 255
Width: 645
Flags: HMW
LayerCount: 3
Back
SplineSet
490 531 m 1
 462 575 409 615 342 615 c 0
 250 615 185 545 185 450 c 2
 185 35 l 1
 257 35 l 1
 257 0 l 1
 27 0 l 1
 27 35 l 1
 105 35 l 1
 105 420 l 2
 105 550 205 650 352 650 c 0
 435 650 506 618 565 563 c 1
 565 560 l 1
 425 380 l 1
 567 310 631 240 631 155 c 0
 631 62 545 -14 435 -14 c 0
 385 -14 332 -2 293 22 c 1
 271 167 l 1
 303 167 l 1
 312 127 l 2
 328 56 371 21 442 21 c 0
 510 21 550 68 550 125 c 0
 550 201 488 268 342 333 c 1
 342 336 l 1
 490 531 l 1
EndSplineSet
Fore
SplineSet
480 517 m 1
 450 560 402 595 337 595 c 0
 250 595 185 525 185 430 c 2
 185 35 l 1
 258 35 l 1
 258 0 l 1
 25 0 l 1
 25 35 l 1
 105 35 l 1
 105 405 l 2
 105 530 205 630 347 630 c 0
 430 630 498 602 555 549 c 1
 555 546 l 1
 420 371 l 1
 556 304 621 235 621 152 c 0
 621 64 540 -14 430 -14 c 0
 380 -14 330 -1 292 22 c 1
 270 167 l 1
 302 167 l 1
 311 127 l 2
 327 56 370 21 437 21 c 0
 500 21 540 65 540 122 c 0
 540 198 478 261 337 324 c 1
 337 327 l 1
 480 517 l 1
EndSplineSet
Layer: 2
SplineSet
482 515 m 1
 455 558 404 597 339 597 c 0
 250 597 186 528 186 436 c 2
 186 34 l 1
 256 34 l 1
 256 0 l 1
 32 0 l 1
 32 34 l 1
 109 34 l 1
 109 407 l 2
 109 533 205 630 348 630 c 0
 429 630 498 599 555 546 c 1
 555 543 l 1
 419 369 l 1
 557 301 619 232 619 150 c 0
 619 60 536 -14 429 -14 c 0
 381 -14 329 -2 291 21 c 1
 270 162 l 1
 301 162 l 1
 310 123 l 2
 326 54 367 20 436 20 c 0
 502 20 541 66 541 121 c 0
 541 195 481 260 339 323 c 1
 339 326 l 1
 482 515 l 1
EndSplineSet
EndChar

StartChar: afii00208
Encoding: 8213 8213 256
Width: 1000
Flags: HMW
LayerCount: 3
Back
SplineSet
0 230 m 1
 1500 230 l 1
 1500 185 l 1
 0 185 l 1
 0 230 l 1
EndSplineSet
Fore
SplineSet
0 233 m 1
 1000 233 l 1
 1000 185 l 1
 0 185 l 1
 0 233 l 1
EndSplineSet
EndChar

StartChar: guilsinglright
Encoding: 8250 8250 257
Width: 240
Flags: HMW
LayerCount: 3
Back
SplineSet
220 213 m 1
 220 207 l 1
 50 35 l 1
 25 45 l 1
 135 208 l 1
 135 210 l 1
 25 375 l 1
 50 385 l 1
 220 213 l 1
EndSplineSet
Fore
SplineSet
220 213 m 1
 220 207 l 1
 50 35 l 1
 25 45 l 1
 135 208 l 1
 135 210 l 1
 25 375 l 1
 50 385 l 1
 220 213 l 1
EndSplineSet
EndChar

StartChar: guilsinglleft
Encoding: 8249 8249 258
Width: 200
Flags: HMW
LayerCount: 3
Back
SplineSet
47 45 m 0
 47 74 71 98 100 98 c 0
 129 98 153 74 153 45 c 0
 153 16 129 -8 100 -8 c 0
 71 -8 47 16 47 45 c 0
EndSplineSet
Fore
SplineSet
47 45 m 0
 47 74 71 98 100 98 c 0
 129 98 153 74 153 45 c 0
 153 16 129 -8 100 -8 c 0
 71 -8 47 16 47 45 c 0
EndSplineSet
EndChar

StartChar: uniFB00
Encoding: 64256 64256 259
Width: 560
Flags: HMW
LayerCount: 3
Back
SplineSet
446 627 m 1
 490 675 547 703 593 703 c 0
 618 703 644 695 663 681 c 1
 633 622 l 1
 631 622 l 1
 609 636 579 645 556 645 c 0
 495 645 443 605 443 480 c 2
 443 400 l 1
 560 400 l 1
 555 357 l 1
 443 357 l 1
 443 35 l 1
 531 35 l 1
 531 0 l 1
 310 0 l 1
 310 35 l 1
 373 35 l 1
 373 358 l 1
 168 358 l 1
 168 35 l 1
 250 35 l 1
 250 0 l 1
 35 0 l 1
 35 35 l 1
 98 35 l 1
 98 355 l 1
 32 355 l 1
 32 378 l 1
 98 408 l 1
 98 415 l 2
 98 557 222 669 333 669 c 0
 375 669 415 653 446 627 c 1
409 577 m 1
 381 601 342 618 303 618 c 0
 223 618 168 569 168 450 c 2
 168 399 l 1
 355 399 l 1
 373 408 l 1
 373 440 l 2
 373 492 387 539 409 577 c 1
EndSplineSet
Fore
SplineSet
368 408 m 1
 368 440 l 2
 368 494 383 541 406 580 c 1
 378 603 341 618 303 618 c 0
 223 618 168 569 168 450 c 2
 168 399 l 1
 350 399 l 1
 368 408 l 1
626 622 m 1
 604 636 574 645 551 645 c 0
 490 645 438 605 438 480 c 2
 438 400 l 1
 555 400 l 1
 550 357 l 1
 438 357 l 1
 438 35 l 1
 528 35 l 1
 528 0 l 1
 305 0 l 1
 305 35 l 1
 368 35 l 1
 368 357 l 1
 168 357 l 1
 168 35 l 1
 250 35 l 1
 250 0 l 1
 35 0 l 1
 35 35 l 1
 98 35 l 1
 98 355 l 1
 32 355 l 1
 32 378 l 1
 98 408 l 1
 98 415 l 2
 98 557 222 669 333 669 c 0
 374 669 412 654 443 629 c 1
 487 676 543 703 588 703 c 0
 613 703 639 695 658 681 c 1
 628 622 l 1
 626 622 l 1
EndSplineSet
Layer: 2
SplineSet
409 577 m 1
 381 601 342 618 303 618 c 0
 223 618 168 569 168 450 c 2
 168 399 l 1
 350 399 l 1
 368 408 l 1
 368 357 l 1
 168 357 l 1
 168 35 l 1
 250 35 l 1
 250 0 l 1
 35 0 l 1
 35 35 l 1
 98 35 l 1
 98 355 l 1
 32 355 l 1
 32 378 l 1
 98 408 l 1
 98 415 l 2
 98 557 222 669 333 669 c 0
 375 669 415 653 446 627 c 1
 435 595 l 1
 409 577 l 1
EndSplineSet
LCarets2: 1 0
Ligature2: "'liga' Standard Ligatures in Latin lookup 1-1" f f
EndChar

StartChar: uniFB01
Encoding: 64257 64257 260
Width: 538
Flags: HMW
LayerCount: 3
Fore
SplineSet
398 613 m 1
 372 633 337 647 298 647 c 0
 218 647 168 595 168 475 c 2
 168 399 l 1
 385 399 l 1
 433 415 l 1
 443 415 l 1
 443 35 l 1
 518 35 l 1
 518 0 l 1
 302 0 l 1
 302 35 l 1
 373 35 l 1
 373 330 l 1
 348 357 l 1
 168 357 l 1
 168 35 l 1
 248 35 l 1
 248 0 l 1
 35 0 l 1
 35 35 l 1
 98 35 l 1
 98 355 l 1
 32 355 l 1
 32 378 l 1
 98 408 l 1
 98 430 l 2
 98 590 219 703 340 703 c 0
 376 703 411 691 438 672 c 1
 400 613 l 1
 398 613 l 1
EndSplineSet
LCarets2: 1 0
Ligature2: "'liga' Standard Ligatures in Latin lookup 1-1" f i
EndChar

StartChar: uniFB02
Encoding: 64258 64258 261
Width: 538
Flags: HMW
LayerCount: 3
Fore
SplineSet
373 616 m 1
 354 633 322 642 292 642 c 0
 217 642 168 595 168 471 c 2
 168 400 l 1
 285 400 l 1
 280 357 l 1
 168 357 l 1
 168 35 l 1
 250 35 l 1
 250 0 l 1
 35 0 l 1
 35 35 l 1
 98 35 l 1
 98 355 l 1
 32 355 l 1
 32 378 l 1
 98 408 l 1
 98 430 l 2
 98 588 222 698 327 698 c 0
 342 698 361 695 374 690 c 1
 433 712 l 1
 443 712 l 1
 443 35 l 1
 517 35 l 1
 517 0 l 1
 303 0 l 1
 303 35 l 1
 373 35 l 1
 373 616 l 1
EndSplineSet
Layer: 2
SplineSet
-47 612 m 1
 -68 630 -103 639 -131 639 c 0
 -206 639 -255 590 -255 466 c 2
 -255 400 l 1
 -145 400 l 1
 -150 357 l 1
 -255 357 l 1
 -255 34 l 1
 -175 34 l 1
 -175 0 l 1
 -385 0 l 1
 -385 34 l 1
 -325 34 l 1
 -325 357 l 1
 -385 357 l 1
 -385 378 l 1
 -325 405 l 1
 -325 425 l 2
 -325 583 -201 695 -96 695 c 0
 -76 695 -54 690 -38 682 c 1
 -47 612 l 1
EndSplineSet
LCarets2: 1 0
Ligature2: "'liga' Standard Ligatures in Latin lookup 1-1" f l
EndChar

StartChar: uniFB03
Encoding: 64259 64259 262
Width: 808
Flags: HMW
LayerCount: 3
Fore
SplineSet
407 578 m 1
 379 601 341 618 303 618 c 0
 223 618 168 569 168 450 c 2
 168 399 l 1
 350 399 l 1
 368 408 l 1
 368 430 l 2
 368 486 382 536 407 578 c 1
668 613 m 1
 642 633 607 647 568 647 c 0
 488 647 438 595 438 475 c 2
 438 399 l 1
 655 399 l 1
 703 415 l 1
 713 415 l 1
 713 35 l 1
 788 35 l 1
 788 0 l 1
 572 0 l 1
 572 35 l 1
 643 35 l 1
 643 330 l 1
 618 357 l 1
 438 357 l 1
 438 35 l 1
 518 35 l 1
 518 0 l 1
 305 0 l 1
 305 35 l 1
 368 35 l 1
 368 357 l 1
 168 357 l 1
 168 35 l 1
 250 35 l 1
 250 0 l 1
 35 0 l 1
 35 35 l 1
 98 35 l 1
 98 355 l 1
 32 355 l 1
 32 378 l 1
 98 408 l 1
 98 415 l 2
 98 557 222 669 333 669 c 0
 375 669 414 653 445 628 c 1
 490 675 550 703 610 703 c 0
 646 703 681 691 708 672 c 1
 670 613 l 1
 668 613 l 1
EndSplineSet
LCarets2: 2 0 0
Ligature2: "'liga' Standard Ligatures in Latin lookup 1-1" f f i
EndChar

StartChar: uniFB04
Encoding: 64260 64260 263
Width: 808
Flags: HMW
LayerCount: 3
Back
SplineSet
328 669 m 0
 222 669 98 555 98 415 c 2
 98 405 l 1
 38 378 l 1
 38 357 l 1
 98 357 l 1
 98 35 l 1
 35 35 l 1
 35 0 l 1
 250 0 l 1
 250 35 l 1
 168 35 l 1
 168 358 l 1
 363 358 l 1
 363 35 l 1
 300 35 l 1
 300 0 l 1
 513 0 l 1
 513 35 l 1
 433 35 l 1
 433 358 l 1
 603 358 l 1
 628 330 l 1
 628 35 l 1
 557 35 l 1
 557 0 l 1
 773 0 l 1
 773 35 l 1
 698 35 l 1
 698 415 l 1
 688 415 l 1
 640 399 l 1
 433 399 l 1
 433 475 l 2
 433 595 483 647 563 647 c 0
 602 647 637 633 663 613 c 1
 665 613 l 1
 703 672 l 1
 676 691 641 703 605 703 c 0
 484 703 363 590 363 430 c 2
 363 406 l 1
 348 399 l 1
 168 399 l 1
 168 450 l 2
 168 569 223 616 298 616 c 0
 338 616 375 602 407 577 c 9
 446 628 l 17
 412 653 372 669 328 669 c 0
EndSplineSet
Fore
SplineSet
643 616 m 1
 624 633 592 642 562 642 c 0
 487 642 438 595 438 471 c 2
 438 400 l 1
 555 400 l 1
 550 357 l 1
 438 357 l 1
 438 35 l 1
 520 35 l 1
 520 0 l 1
 305 0 l 1
 305 35 l 1
 368 35 l 1
 368 357 l 1
 168 357 l 1
 168 35 l 1
 250 35 l 1
 250 0 l 1
 35 0 l 1
 35 35 l 1
 98 35 l 1
 98 355 l 1
 32 355 l 1
 32 378 l 1
 98 408 l 1
 98 415 l 2
 98 557 222 669 333 669 c 0
 375 669 415 653 446 627 c 1
 490 672 546 698 597 698 c 0
 612 698 631 695 644 690 c 1
 703 712 l 1
 713 712 l 1
 713 35 l 1
 787 35 l 1
 787 0 l 1
 573 0 l 1
 573 35 l 1
 643 35 l 1
 643 616 l 1
409 577 m 1
 381 601 342 618 303 618 c 0
 223 618 168 569 168 450 c 2
 168 399 l 1
 348 399 l 1
 368 408 l 1
 368 430 l 2
 368 486 384 536 409 577 c 1
EndSplineSet
Layer: 2
SplineSet
363 406 m 1
 348 399 l 1
 168 399 l 1
 168 450 l 2
 168 569 224 616 300 616 c 0
 345 616 380 600 410 578 c 9
 451 630 l 17
 415 655 375 669 330 669 c 0
 223 669 98 555 98 415 c 2
 98 405 l 1
 38 378 l 1
 38 357 l 1
 98 357 l 1
 98 35 l 1
 35 35 l 1
 35 0 l 1
 250 0 l 1
 250 35 l 1
 168 35 l 1
 168 358 l 1
 363 358 l 1
 363 35 l 1
 300 35 l 1
 300 0 l 1
 515 0 l 1
 515 35 l 1
 433 35 l 1
 433 357 l 1
 545 357 l 1
 550 400 l 1
 433 400 l 1
 433 471 l 2
 433 595 482 642 557 642 c 0
 587 642 619 633 638 616 c 1
 638 35 l 1
 568 35 l 1
 568 0 l 1
 782 0 l 1
 782 35 l 1
 708 35 l 1
 708 712 l 1
 698 712 l 1
 639 690 l 1
 626 695 607 698 592 698 c 0
 487 698 363 587 363 430 c 2
 363 406 l 1
EndSplineSet
LCarets2: 2 0 0
Ligature2: "'liga' Standard Ligatures in Latin lookup 1-1" f f l
EndChar

StartChar: uniFB05
Encoding: 64261 64261 264
Width: 200
Flags: HMW
LayerCount: 3
Back
SplineSet
47 45 m 0
 47 74 71 98 100 98 c 0
 129 98 153 74 153 45 c 0
 153 16 129 -8 100 -8 c 0
 71 -8 47 16 47 45 c 0
EndSplineSet
Fore
SplineSet
47 45 m 0
 47 74 71 98 100 98 c 0
 129 98 153 74 153 45 c 0
 153 16 129 -8 100 -8 c 0
 71 -8 47 16 47 45 c 0
EndSplineSet
Layer: 2
SplineSet
396 522 m 0
 396 602 349 648 284 648 c 0
 214 648 164 602 164 477 c 2
 164 32 l 1
 242 32 l 1
 242 0 l 1
 34 0 l 1
 34 32 l 1
 94 32 l 1
 94 357 l 1
 36 357 l 1
 36 378 l 1
 94 404 l 1
 94 435 l 2
 94 595 217 698 309 698 c 0
 384 698 444 648 444 560 c 0
 444 505 419 480 419 450 c 2
 419 400 l 1
 552 400 l 1
 552 357 l 1
 419 357 l 1
 419 105 l 2
 419 64 441 42 473 42 c 0
 501 42 522 53 541 75 c 1
 557 60 l 1
 532 19 488 -14 438 -14 c 0
 382 -14 349 20 349 80 c 2
 349 357 l 1
 293 357 l 1
 293 377 l 1
 359 431 l 2
 386 454 396 480 396 522 c 0
EndSplineSet
EndChar

StartChar: uniFB06
Encoding: 64262 64262 265
Width: 200
Flags: HMW
LayerCount: 3
Back
SplineSet
47 45 m 0
 47 74 71 98 100 98 c 0
 129 98 153 74 153 45 c 0
 153 16 129 -8 100 -8 c 0
 71 -8 47 16 47 45 c 0
EndSplineSet
Fore
SplineSet
47 45 m 0
 47 74 71 98 100 98 c 0
 129 98 153 74 153 45 c 0
 153 16 129 -8 100 -8 c 0
 71 -8 47 16 47 45 c 0
EndSplineSet
Layer: 2
SplineSet
471 398 m 1
 604 398 l 1
 604 355 l 1
 471 355 l 1
 471 105 l 2
 471 64 493 42 525 42 c 0
 553 42 574 53 593 75 c 1
 609 60 l 1
 584 19 540 -14 490 -14 c 0
 434 -14 401 20 401 80 c 2
 401 355 l 1
 345 355 l 1
 345 375 l 1
 419 439 l 1
 419 450 l 2
 419 543 381 597 316 597 c 0
 263 597 224 558 224 498 c 0
 224 460 239 430 262 410 c 1
 273 290 l 1
 242 290 l 1
 239 314 l 2
 234 355 205 380 161 380 c 0
 129 380 104 361 104 332 c 0
 104 300 125 277 185 237 c 0
 256 189 286 157 286 108 c 0
 286 36 224 -13 144 -13 c 0
 109 -13 70 -3 45 14 c 1
 31 125 l 1
 62 125 l 1
 68 95 l 2
 77 49 107 21 154 21 c 0
 196 21 221 45 221 80 c 0
 221 110 196 138 129 182 c 0
 64 225 44 262 44 307 c 0
 44 366 99 413 169 413 c 0
 185 413 202 410 212 406 c 1
 213 408 l 1
 195 430 185 460 185 495 c 0
 185 573 248 637 329 637 c 0
 419 637 471 563 471 470 c 2
 471 398 l 1
EndSplineSet
EndChar

StartChar: Ydieresis
Encoding: 376 376 266
Width: 200
Flags: HMW
LayerCount: 3
Back
SplineSet
47 45 m 0
 47 74 71 98 100 98 c 0
 129 98 153 74 153 45 c 0
 153 16 129 -8 100 -8 c 0
 71 -8 47 16 47 45 c 0
EndSplineSet
Fore
SplineSet
47 45 m 0
 47 74 71 98 100 98 c 0
 129 98 153 74 153 45 c 0
 153 16 129 -8 100 -8 c 0
 71 -8 47 16 47 45 c 0
EndSplineSet
EndChar

StartChar: longs
Encoding: 383 383 267
Width: 275
Flags: HMW
LayerCount: 3
Back
SplineSet
168 34 m 1
 255 34 l 1
 255 0 l 1
 37 0 l 1
 37 34 l 1
 98 34 l 1
 98 357 l 1
 38 357 l 1
 38 378 l 1
 98 405 l 1
 98 440 l 2
 98 600 223 703 308 703 c 0
 333 703 359 695 378 681 c 1
 348 622 l 1
 346 622 l 1
 324 636 294 645 271 645 c 0
 213 645 168 605 168 480 c 2
 168 34 l 1
EndSplineSet
Fore
SplineSet
168 480 m 1
 168 35 l 1
 258 35 l 1
 258 0 l 1
 35 0 l 1
 35 35 l 1
 98 35 l 1
 98 355 l 1
 32 355 l 1
 32 378 l 1
 98 408 l 1
 98 440 l 2
 98 600 230 703 318 703 c 0
 343 703 369 695 388 681 c 1
 358 622 l 1
 356 622 l 1
 334 636 304 645 281 645 c 0
 220 645 168 605 168 480 c 1
EndSplineSet
EndChar

StartChar: circumflex
Encoding: 710 710 268
Width: 265
Flags: W
HStem: 477 186
VStem: 20 225
AnchorPoint: "Top" 133 500 mark 0
LayerCount: 3
Fore
SplineSet
120 663 m 1
 145 663 l 1
 245 490 l 1
 225 477 l 1
 134 582 l 1
 131 582 l 1
 40 477 l 1
 20 490 l 1
 120 663 l 1
EndSplineSet
EndChar

StartChar: caron
Encoding: 711 711 269
Width: 265
Flags: HW
AnchorPoint: "Top" 133 500 mark 0
LayerCount: 3
Fore
SplineSet
120 485 m 1
 20 658 l 1
 40 671 l 1
 131 566 l 1
 134 566 l 1
 225 671 l 1
 245 658 l 1
 145 485 l 1
 120 485 l 1
EndSplineSet
EndChar

StartChar: breve
Encoding: 728 728 270
Width: 265
Flags: HW
AnchorPoint: "Top" 133 500 mark 0
LayerCount: 3
Fore
SplineSet
132 503 m 0
 64 503 23 560 15 630 c 1
 40 635 l 1
 50 589 86 561 133 561 c 0
 179 561 215 589 225 635 c 1
 250 630 l 1
 242 560 201 503 132 503 c 0
EndSplineSet
EndChar

StartChar: dotaccent
Encoding: 729 729 271
Width: 265
Flags: HW
AnchorPoint: "Top" 133 500 mark 0
LayerCount: 3
Fore
SplineSet
89 588 m 0
 89 612 109 632 133 632 c 0
 157 632 177 612 177 588 c 0
 177 564 157 544 133 544 c 0
 109 544 89 564 89 588 c 0
EndSplineSet
EndChar

StartChar: ring
Encoding: 730 730 272
Width: 265
Flags: HW
AnchorPoint: "Top" 133 500 mark 0
LayerCount: 3
Fore
SplineSet
93 585 m 0
 93 552 110 527 135 527 c 0
 157 527 173 548 173 575 c 0
 173 608 156 633 131 633 c 0
 109 633 93 612 93 585 c 0
57 580 m 0
 57 622 91 656 133 656 c 0
 175 656 209 622 209 580 c 0
 209 538 175 504 133 504 c 0
 91 504 57 538 57 580 c 0
EndSplineSet
EndChar

StartChar: ogonek
Encoding: 731 731 273
Width: 265
Flags: HW
LayerCount: 3
Fore
SplineSet
170 30 m 1
 195 20 l 1
 135 -40 107 -82 107 -135 c 0
 107 -173 132 -197 165 -197 c 0
 189 -197 209 -188 225 -173 c 1
 238 -188 l 1
 215 -220 180 -248 135 -248 c 0
 83 -248 45 -212 45 -157 c 0
 45 -88 95 -30 170 30 c 1
EndSplineSet
EndChar

StartChar: tilde
Encoding: 732 732 274
Width: 265
Flags: W
HStem: 523 52<115.655 234.602> 550 52<30.398 149.345>
VStem: 0 22<519.773 532.457> 243 22<592.543 605.227>
AnchorPoint: "Top" 133 500 mark 0
LayerCount: 3
Fore
SplineSet
0 522 m 1x70
 15 580 48 602 78 602 c 0x70
 95 602 110 600 143 588 c 0
 171 578 185 575 199 575 c 0
 218 575 234 586 243 610 c 1
 265 603 l 1
 250 545 217 523 187 523 c 0xb0
 170 523 155 525 122 537 c 0
 94 547 80 550 66 550 c 0
 47 550 31 539 22 515 c 1
 0 522 l 1x70
EndSplineSet
EndChar

StartChar: hungarumlaut
Encoding: 733 733 275
Width: 265
Flags: HW
AnchorPoint: "Top" 133 500 mark 0
LayerCount: 3
Fore
SplineSet
75 670 m 1
 135 647 l 1
 135 642 l 1
 27 477 l 1
 5 490 l 1
 75 670 l 1
205 670 m 1
 265 647 l 1
 265 642 l 1
 152 477 l 1
 130 490 l 1
 205 670 l 1
EndSplineSet
EndChar

StartChar: uni2010
Encoding: 8208 8208 276
Width: 235
Flags: HW
LayerCount: 3
Fore
SplineSet
20 234 m 1
 215 234 l 1
 215 176 l 1
 20 176 l 1
 20 234 l 1
EndSplineSet
EndChar

StartChar: uni2011
Encoding: 8209 8209 277
Width: 235
Flags: HW
LayerCount: 3
Fore
SplineSet
20 234 m 1
 215 234 l 1
 215 176 l 1
 20 176 l 1
 20 234 l 1
EndSplineSet
EndChar

StartChar: figuredash
Encoding: 8210 8210 278
Width: 200
Flags: HW
LayerCount: 3
Fore
SplineSet
47 45 m 0
 47 74 71 98 100 98 c 0
 129 98 153 74 153 45 c 0
 153 16 129 -8 100 -8 c 0
 71 -8 47 16 47 45 c 0
EndSplineSet
EndChar

StartChar: endash
Encoding: 8211 8211 279
Width: 500
Flags: HW
LayerCount: 3
Fore
SplineSet
20 233 m 1
 480 233 l 1
 480 185 l 1
 20 185 l 1
 20 233 l 1
EndSplineSet
EndChar

StartChar: emdash
Encoding: 8212 8212 280
Width: 900
Flags: HW
LayerCount: 3
Fore
SplineSet
20 233 m 1
 880 233 l 1
 880 185 l 1
 20 185 l 1
 20 233 l 1
EndSplineSet
EndChar

